{"glyphs":{"0":{"ha":849,"x_min":0,"x_max":0,"o":"m 389 -21 b 793 343 599 11 793 104 b 461 694 793 560 647 694 b 56 332 251 664 56 569 b 389 -21 56 115 203 -21 z m 438 90 b 301 401 374 90 301 179 b 410 583 301 544 347 583 b 544 274 474 583 544 496 b 438 90 544 131 500 90 z "},"1":{"ha":681,"x_min":0,"x_max":0,"o":"m 49 -1 l 354 3 l 653 -1 l 660 75 l 472 99 l 472 681 l 340 681 l 28 535 l 60 464 l 178 483 l 236 511 l 229 486 l 229 99 l 42 75 z "},"2":{"ha":793,"x_min":0,"x_max":0,"o":"m 61 0 l 701 0 l 751 111 l 751 181 l 450 181 l 192 121 l 400 218 b 713 499 575 300 713 376 b 415 694 713 619 613 694 l 104 590 l 104 397 l 263 397 l 303 576 b 386 597 324 586 356 597 b 464 522 438 597 464 568 b 263 246 464 394 379 333 l 28 68 z "},"3":{"ha":726,"x_min":0,"x_max":0,"o":"m 35 -319 l 201 -319 l 340 -260 b 671 36 621 -139 671 -94 b 397 272 671 161 556 261 b 618 500 549 321 618 392 b 346 694 618 625 521 694 l 42 590 l 42 397 l 207 397 l 247 575 b 307 592 267 586 286 592 b 388 453 356 592 388 536 b 265 251 388 356 349 292 l 221 231 l 235 171 b 421 7 351 171 421 110 b 364 -139 421 -57 406 -96 l 35 -139 z "},"4":{"ha":797,"x_min":0,"x_max":0,"o":"m 410 -319 l 618 -319 l 618 -78 l 776 -78 l 776 82 l 618 82 l 618 353 l 575 353 l 410 215 l 410 82 l 236 82 l 164 51 l 650 583 l 650 675 l 468 675 l 14 32 l 76 -78 l 410 -78 z "},"5":{"ha":719,"x_min":0,"x_max":0,"o":"m 64 -319 l 236 -319 l 382 -250 b 678 81 615 -137 678 -68 b 347 338 678 231 540 338 l 158 240 l 196 494 l 613 494 l 663 606 l 663 675 l 129 675 l 63 169 l 101 135 l 147 156 b 285 192 206 183 239 192 b 428 8 374 192 428 122 b 382 -139 428 -54 411 -108 l 64 -139 z "},"6":{"ha":844,"x_min":0,"x_max":0,"o":"m 506 628 l 328 478 b 675 924 340 714 433 831 l 654 1001 b 69 369 267 871 69 657 b 392 -21 69 128 192 -21 b 782 336 675 53 782 151 b 506 628 782 507 668 628 z m 439 69 b 326 383 367 69 331 182 l 364 414 b 457 461 401 446 431 461 b 533 275 504 461 533 389 b 439 69 533 142 500 69 z "},"7":{"ha":726,"x_min":0,"x_max":0,"o":"m 78 -319 l 268 -319 l 706 618 l 653 675 l 28 675 l 28 481 l 461 481 l 522 513 l 78 -219 z "},"8":{"ha":825,"x_min":0,"x_max":0,"o":"m 535 553 b 732 763 660 589 732 660 b 411 993 732 890 606 993 b 78 729 193 940 78 857 b 268 467 78 625 150 533 b 63 247 104 406 63 343 b 397 -21 63 97 204 -21 b 763 274 626 49 763 117 b 535 553 763 390 674 476 z m 403 903 b 492 765 461 903 492 833 b 436 606 492 685 465 639 b 324 790 369 647 324 715 b 403 903 324 861 351 903 z m 414 69 b 304 239 357 69 304 138 b 356 417 304 303 331 390 b 508 211 429 375 508 317 b 414 69 508 115 467 69 z "},"9":{"ha":844,"x_min":0,"x_max":0,"o":"m 453 694 b 63 343 178 624 63 524 b 339 46 63 164 176 46 l 515 194 b 169 -250 497 -53 399 -161 l 190 -328 b 775 310 583 -194 775 17 b 453 694 775 543 653 694 z m 390 213 b 311 401 339 213 311 283 b 404 604 311 531 344 604 b 518 290 478 604 518 497 l 481 260 b 390 213 446 231 415 213 z "},"\r":{"ha":444,"x_min":0,"x_max":0,"o":""}," ":{"ha":326,"x_min":0,"x_max":0,"o":""},"A":{"ha":1024,"x_min":0,"x_max":0,"o":"m 14 -1 l 149 3 l 289 -1 l 296 75 l 196 93 l 265 307 l 583 307 l 653 93 l 563 75 l 569 -1 l 725 3 l 1010 -1 l 1017 75 l 929 90 l 624 996 l 385 947 l 81 93 l 7 75 z m 294 390 l 439 838 l 440 756 l 556 390 z "},"B":{"ha":925,"x_min":0,"x_max":0,"o":"m 49 -1 l 213 3 l 542 -1 b 904 276 746 25 904 111 b 593 521 904 419 799 511 b 854 753 754 547 854 636 b 611 974 854 860 778 975 l 213 969 l 49 974 l 42 899 l 139 881 l 139 93 l 42 75 z m 396 546 l 396 888 l 458 899 b 597 731 563 899 597 826 b 469 546 597 629 550 546 z m 465 75 l 396 86 l 396 476 l 475 476 b 647 275 583 476 647 390 b 465 75 647 186 601 75 z "},"C":{"ha":986,"x_min":0,"x_max":0,"o":"m 567 -25 b 944 69 744 0 853 31 l 965 351 l 863 351 l 799 183 b 590 79 740 124 686 79 b 319 506 428 79 319 261 b 586 893 319 750 438 893 b 789 783 700 893 753 839 l 833 644 l 943 644 l 943 914 b 625 997 865 956 754 997 b 42 457 254 936 42 789 b 567 -25 42 140 290 -25 z "},"D":{"ha":1076,"x_min":0,"x_max":0,"o":"m 49 -1 l 208 3 l 547 -1 b 1035 511 896 29 1035 251 b 549 974 1035 811 851 976 l 215 969 l 49 974 l 42 899 l 139 881 l 139 93 l 42 75 z m 522 76 l 396 86 l 396 888 l 489 894 b 764 490 656 907 764 736 b 522 76 764 274 679 64 z "},"E":{"ha":911,"x_min":0,"x_max":0,"o":"m 49 -1 l 240 3 l 847 -1 l 890 283 l 803 283 l 708 96 l 396 92 l 396 465 l 535 460 l 590 310 l 674 310 l 660 511 l 674 713 l 590 713 l 535 563 l 396 557 l 396 881 l 692 876 l 778 696 l 865 696 l 850 974 l 240 969 l 49 974 l 42 899 l 139 881 l 139 93 l 42 75 z "},"F":{"ha":886,"x_min":0,"x_max":0,"o":"m 49 -1 l 240 3 l 556 -1 l 563 75 l 396 93 l 396 442 l 535 436 l 590 286 l 674 286 l 660 488 l 674 689 l 590 689 l 535 539 l 396 533 l 396 881 l 692 876 l 778 682 l 865 682 l 850 974 l 240 969 l 49 974 l 42 899 l 139 881 l 139 93 l 42 75 z "},"G":{"ha":1053,"x_min":0,"x_max":0,"o":"m 556 -25 b 965 83 757 1 876 35 l 965 361 l 1032 379 l 1021 463 l 838 458 l 590 463 l 583 379 l 708 361 l 708 111 b 599 79 685 94 656 79 b 319 504 424 79 319 258 b 599 893 319 756 425 893 b 796 782 686 893 756 850 l 842 646 l 951 646 l 951 908 b 628 997 872 950 760 997 b 42 447 257 938 42 790 b 556 -25 42 147 288 -25 z "},"H":{"ha":1125,"x_min":0,"x_max":0,"o":"m 49 -1 l 268 3 l 472 -1 l 479 75 l 396 93 l 396 454 l 729 454 l 729 93 l 646 75 l 653 -1 l 857 3 l 1076 -1 l 1083 75 l 986 93 l 986 881 l 1083 899 l 1076 974 l 857 969 l 653 974 l 646 899 l 729 881 l 729 551 l 396 551 l 396 881 l 479 899 l 472 974 l 268 969 l 49 974 l 42 899 l 139 881 l 139 93 l 42 75 z "},"I":{"ha":535,"x_min":0,"x_max":0,"o":"m 49 -1 l 268 3 l 486 -1 l 493 75 l 396 93 l 396 881 l 493 899 l 486 974 l 268 969 l 49 974 l 42 899 l 139 881 l 139 93 l 42 75 z "},"J":{"ha":583,"x_min":0,"x_max":0,"o":"m 7 -243 l 154 -243 l 249 -146 b 458 229 322 -69 458 60 l 458 881 l 549 899 l 542 974 l 331 968 l 56 974 l 49 899 l 201 881 l 201 132 b 183 -19 201 79 199 25 l 174 -49 l 7 -49 z "},"K":{"ha":1079,"x_min":0,"x_max":0,"o":"m 49 -1 l 268 3 l 479 -1 l 486 75 l 396 93 l 396 489 l 424 428 l 756 -1 l 947 3 l 1065 -1 l 1072 75 l 1000 93 l 639 504 l 561 533 l 942 881 l 1047 899 l 1040 974 l 856 969 l 699 974 l 692 899 l 793 881 l 439 547 l 396 526 l 396 881 l 486 899 l 479 974 l 268 969 l 49 974 l 42 899 l 139 881 l 139 93 l 42 75 z "},"L":{"ha":858,"x_min":0,"x_max":0,"o":"m 49 -1 l 240 4 l 822 -1 l 872 297 l 799 297 l 683 96 l 396 92 l 396 881 l 493 899 l 486 974 l 240 969 l 49 974 l 42 899 l 139 881 l 139 93 l 42 75 z "},"M":{"ha":1368,"x_min":0,"x_max":0,"o":"m 49 -1 l 194 3 l 347 -1 l 350 75 l 257 93 l 257 889 l 289 714 l 549 -1 l 708 -1 l 1006 901 l 986 732 l 986 93 l 889 75 l 896 -1 l 1104 3 l 1319 -1 l 1326 75 l 1229 93 l 1229 881 l 1326 899 l 1319 974 l 1149 969 l 935 974 l 675 175 l 685 311 l 447 974 l 171 969 l 49 974 l 42 899 l 139 881 l 139 93 l 42 75 z "},"N":{"ha":1022,"x_min":0,"x_max":0,"o":"m 796 -4 l 911 -4 l 911 881 l 1008 899 l 1001 974 l 856 969 l 703 974 l 700 899 l 793 881 l 793 333 l 750 478 l 329 974 l 153 969 l 49 974 l 42 899 l 139 881 l 139 93 l 42 75 l 49 -1 l 194 3 l 347 -1 l 350 75 l 257 93 l 257 772 l 294 624 z "},"O":{"ha":1146,"x_min":0,"x_max":0,"o":"m 556 -25 b 1104 514 958 54 1104 203 b 590 997 1104 790 907 997 b 42 458 188 918 42 769 b 556 -25 42 182 239 -25 z m 590 79 b 319 510 407 79 319 296 b 560 893 319 742 393 893 b 826 464 742 893 826 674 b 590 79 826 232 756 79 z "},"P":{"ha":907,"x_min":0,"x_max":0,"o":"m 49 -1 l 268 3 l 556 -1 l 563 75 l 396 93 l 396 408 l 507 408 b 900 724 697 474 900 538 b 611 974 900 889 771 975 l 264 969 l 49 974 l 42 899 l 139 881 l 139 93 l 42 75 z m 396 507 l 396 888 l 458 899 b 629 707 543 899 629 832 b 474 507 629 575 550 507 z "},"Q":{"ha":1146,"x_min":0,"x_max":0,"o":"m 818 -36 l 685 6 b 1104 514 990 90 1104 239 b 590 997 1104 790 907 997 b 42 458 188 918 42 769 b 554 -25 42 182 239 -25 l 768 -229 l 1050 -229 l 1056 -153 l 949 -131 z m 319 510 b 560 893 319 742 393 893 b 826 464 742 893 826 674 b 590 79 826 232 756 79 b 319 510 407 79 319 296 z "},"R":{"ha":1021,"x_min":0,"x_max":0,"o":"m 953 97 l 764 403 l 582 479 b 900 732 761 511 900 592 b 611 974 900 885 771 975 l 264 969 l 49 974 l 42 899 l 139 881 l 139 93 l 42 75 l 49 -1 l 268 3 l 486 -1 l 493 75 l 396 93 l 396 440 l 435 440 l 454 425 l 706 -1 l 831 3 l 1008 -1 l 1014 75 z m 396 888 l 479 899 b 629 721 564 899 629 838 b 481 532 629 597 557 532 l 396 532 z "},"S":{"ha":814,"x_min":0,"x_max":0,"o":"m 369 -25 b 772 300 661 54 772 144 b 560 568 772 419 719 486 l 367 667 b 272 786 300 701 272 736 b 417 886 272 846 331 886 b 579 810 476 886 529 861 l 621 681 l 738 681 l 738 917 b 428 997 651 967 535 997 b 49 701 176 942 49 842 b 246 444 49 593 108 515 l 418 356 b 528 217 493 318 528 274 b 392 90 528 139 475 90 b 214 188 329 90 269 124 l 167 319 l 35 319 l 65 69 b 369 -25 161 10 274 -25 z "},"T":{"ha":896,"x_min":0,"x_max":0,"o":"m 188 -1 l 449 3 l 708 -1 l 715 75 l 576 93 l 576 883 l 722 879 l 793 671 l 875 671 l 875 974 l 461 969 l 21 974 l 21 671 l 103 671 l 174 879 l 319 883 l 319 93 l 181 75 z "},"U":{"ha":1056,"x_min":0,"x_max":0,"o":"m 579 -25 b 931 357 856 42 931 171 l 931 881 l 1035 899 l 1028 974 l 872 969 l 694 974 l 688 899 l 799 881 l 799 361 b 586 100 799 199 725 100 b 375 360 447 100 375 199 l 375 881 l 465 899 l 458 974 l 213 969 l 28 974 l 21 899 l 118 881 l 118 346 b 579 -25 118 125 239 -25 z "},"V":{"ha":988,"x_min":0,"x_max":0,"o":"m 396 -25 l 603 24 l 907 881 l 981 899 l 974 974 l 840 969 l 699 974 l 692 899 l 792 881 l 553 153 l 557 265 l 354 881 l 444 899 l 438 974 l 285 969 l 14 974 l 7 899 l 88 881 z "},"W":{"ha":1478,"x_min":0,"x_max":0,"o":"m 400 -25 l 551 17 l 754 667 l 757 564 l 950 -25 l 1107 17 l 1376 881 l 1471 899 l 1464 974 l 1301 969 l 1171 974 l 1164 899 l 1271 881 l 1090 243 l 1085 357 l 911 881 l 1001 899 l 994 974 l 839 969 l 599 974 l 592 899 l 650 881 l 690 758 l 529 246 l 529 363 l 357 881 l 451 899 l 444 974 l 282 969 l 14 974 l 7 899 l 94 881 z "},"X":{"ha":1060,"x_min":0,"x_max":0,"o":"m 21 -1 l 163 3 l 353 -1 l 360 75 l 274 93 l 488 401 l 508 336 l 685 93 l 594 75 l 601 -1 l 875 3 l 1039 -1 l 1046 75 l 972 93 l 664 526 l 924 881 l 1018 899 l 1011 974 l 890 969 l 700 974 l 693 899 l 786 881 l 582 583 l 563 647 l 404 881 l 494 899 l 488 974 l 207 969 l 50 974 l 43 899 l 124 881 l 404 471 l 122 93 l 14 75 z "},"Y":{"ha":1017,"x_min":0,"x_max":0,"o":"m 244 -1 l 511 3 l 779 -1 l 786 75 l 640 93 l 640 385 l 929 881 l 1010 899 l 1003 974 l 874 969 l 728 974 l 721 899 l 814 881 l 569 446 l 574 524 l 361 881 l 451 899 l 444 974 l 226 969 l 14 974 l 7 899 l 89 881 l 383 385 l 383 93 l 238 75 z "},"Z":{"ha":840,"x_min":0,"x_max":0,"o":"m 42 0 l 767 0 l 819 297 l 725 297 l 615 97 l 264 90 l 340 135 l 801 906 l 785 972 l 69 972 l 69 693 l 158 693 l 229 874 l 554 881 l 478 832 l 21 75 z "},"Á":{"ha":1024,"x_min":0,"x_max":0,"o":"m 439 1071 l 561 1071 l 717 1263 l 494 1263 z m 14 -1 l 149 3 l 289 -1 l 296 75 l 196 93 l 265 307 l 583 307 l 653 93 l 563 75 l 569 -1 l 725 3 l 1010 -1 l 1017 75 l 929 90 l 624 996 l 385 947 l 81 93 l 7 75 z m 294 390 l 439 838 l 440 756 l 556 390 z "},"Ă":{"ha":1024,"x_min":0,"x_max":0,"o":"m 529 1061 b 726 1215 651 1110 689 1142 l 672 1257 b 508 1175 646 1226 592 1175 b 344 1257 425 1175 371 1226 l 290 1215 b 529 1061 328 1133 413 1061 z m 14 -1 l 149 3 l 289 -1 l 296 75 l 196 93 l 265 307 l 583 307 l 653 93 l 563 75 l 569 -1 l 725 3 l 1010 -1 l 1017 75 l 929 90 l 624 996 l 385 947 l 81 93 l 7 75 z m 294 390 l 439 838 l 440 756 l 556 390 z "},"Â":{"ha":1024,"x_min":0,"x_max":0,"o":"m 269 1071 l 406 1071 l 479 1135 l 508 1174 l 538 1135 l 611 1071 l 747 1071 l 581 1263 l 436 1263 z m 14 -1 l 149 3 l 289 -1 l 296 75 l 196 93 l 265 307 l 583 307 l 653 93 l 563 75 l 569 -1 l 725 3 l 1010 -1 l 1017 75 l 929 90 l 624 996 l 385 947 l 81 93 l 7 75 z m 294 390 l 439 838 l 440 756 l 556 390 z "},"Ä":{"ha":1024,"x_min":0,"x_max":0,"o":"m 306 1060 l 415 1069 l 435 1146 l 424 1235 l 378 1244 l 265 1235 l 249 1160 l 258 1069 z m 639 1060 l 750 1069 l 768 1146 l 758 1235 l 711 1244 l 600 1235 l 582 1160 l 593 1069 z m 14 -1 l 149 3 l 289 -1 l 296 75 l 196 93 l 265 307 l 583 307 l 653 93 l 563 75 l 569 -1 l 725 3 l 1010 -1 l 1017 75 l 929 90 l 624 996 l 385 947 l 81 93 l 7 75 z m 294 390 l 439 838 l 440 756 l 556 390 z "},"Æ":{"ha":1467,"x_min":0,"x_max":0,"o":"m 14 0 l 149 4 l 304 0 l 311 74 l 218 92 l 424 425 l 708 425 l 708 93 l 611 75 l 618 -1 l 810 1 l 1382 -1 l 1432 263 l 1358 263 l 1257 96 l 951 92 l 951 424 l 1097 418 l 1153 268 l 1222 268 l 1208 469 l 1222 671 l 1153 671 l 1097 521 l 951 515 l 951 882 l 1247 878 l 1333 718 l 1407 718 l 1392 975 l 825 972 l 663 974 l 88 89 l 7 74 z m 469 508 l 708 896 l 708 508 z "},"Ǽ":{"ha":1467,"x_min":0,"x_max":0,"o":"m 868 1071 l 990 1071 l 1146 1263 l 924 1263 z m 14 0 l 149 4 l 304 0 l 311 74 l 218 92 l 424 425 l 708 425 l 708 93 l 611 75 l 618 -1 l 810 1 l 1382 -1 l 1432 263 l 1358 263 l 1257 96 l 951 92 l 951 424 l 1097 418 l 1153 268 l 1222 268 l 1208 469 l 1222 671 l 1153 671 l 1097 521 l 951 515 l 951 882 l 1247 878 l 1333 718 l 1407 718 l 1392 975 l 825 972 l 663 974 l 88 89 l 7 74 z m 469 508 l 708 896 l 708 508 z "},"À":{"ha":1024,"x_min":0,"x_max":0,"o":"m 450 1071 l 572 1071 l 517 1263 l 294 1263 z m 14 -1 l 149 3 l 289 -1 l 296 75 l 196 93 l 265 307 l 583 307 l 653 93 l 563 75 l 569 -1 l 725 3 l 1010 -1 l 1017 75 l 929 90 l 624 996 l 385 947 l 81 93 l 7 75 z m 294 390 l 439 838 l 440 756 l 556 390 z "},"Ā":{"ha":1024,"x_min":0,"x_max":0,"o":"m 300 1094 l 717 1094 l 717 1206 l 300 1206 z m 14 -1 l 149 3 l 289 -1 l 296 75 l 196 93 l 265 307 l 583 307 l 653 93 l 563 75 l 569 -1 l 725 3 l 1010 -1 l 1017 75 l 929 90 l 624 996 l 385 947 l 81 93 l 7 75 z m 294 390 l 439 838 l 440 756 l 556 390 z "},"Ą":{"ha":1024,"x_min":0,"x_max":0,"o":"m 713 3 l 1010 -1 l 1017 75 l 929 90 l 624 996 l 385 947 l 81 93 l 7 75 l 14 -1 l 149 3 l 289 -1 l 296 75 l 196 93 l 265 307 l 583 307 l 664 60 l 511 -104 l 511 -207 b 810 -340 511 -296 590 -340 l 810 -275 b 667 -185 667 -275 667 -218 l 667 -139 z m 294 390 l 439 838 l 440 756 l 556 390 z "},"Å":{"ha":1024,"x_min":0,"x_max":0,"o":"m 513 1028 b 679 1181 604 1050 679 1068 b 508 1339 679 1301 604 1339 b 338 1181 421 1314 338 1283 b 513 1028 338 1064 428 1028 z m 510 1101 b 426 1181 463 1101 426 1133 b 510 1265 426 1226 463 1265 b 593 1181 557 1265 593 1226 b 510 1101 593 1133 557 1101 z m 14 -1 l 149 3 l 289 -1 l 296 75 l 196 93 l 265 307 l 583 307 l 653 93 l 563 75 l 569 -1 l 725 3 l 1010 -1 l 1017 75 l 929 90 l 624 996 l 385 947 l 81 93 l 7 75 z m 294 390 l 439 838 l 440 756 l 556 390 z "},"Ã":{"ha":1024,"x_min":0,"x_max":0,"o":"m 257 1069 l 313 1069 l 351 1138 l 613 1067 l 715 1090 l 760 1263 l 704 1263 l 664 1194 l 404 1265 l 300 1235 z m 14 -1 l 149 3 l 289 -1 l 296 75 l 196 93 l 265 307 l 583 307 l 653 93 l 563 75 l 569 -1 l 725 3 l 1010 -1 l 1017 75 l 929 90 l 624 996 l 385 947 l 81 93 l 7 75 z m 294 390 l 439 838 l 440 756 l 556 390 z "},"Ć":{"ha":986,"x_min":0,"x_max":0,"o":"m 535 1071 l 657 1071 l 813 1263 l 590 1263 z m 567 -25 b 944 69 744 0 853 31 l 965 351 l 863 351 l 799 183 b 590 79 740 124 686 79 b 319 506 428 79 319 261 b 586 893 319 750 438 893 b 789 783 700 893 753 839 l 833 644 l 943 644 l 943 914 b 625 997 865 956 754 997 b 42 457 254 936 42 789 b 567 -25 42 140 290 -25 z "},"Č":{"ha":986,"x_min":0,"x_max":0,"o":"m 532 1071 l 676 1071 l 843 1263 l 707 1263 l 633 1199 l 604 1160 l 575 1199 l 501 1263 l 365 1263 z m 567 -25 b 944 69 744 0 853 31 l 965 351 l 863 351 l 799 183 b 590 79 740 124 686 79 b 319 506 428 79 319 261 b 586 893 319 750 438 893 b 789 783 700 893 753 839 l 833 644 l 943 644 l 943 914 b 625 997 865 956 754 997 b 42 457 254 936 42 789 b 567 -25 42 140 290 -25 z "},"Ç":{"ha":986,"x_min":0,"x_max":0,"o":"m 567 -25 b 944 69 744 0 853 31 l 965 351 l 863 351 l 799 183 b 590 79 740 124 686 79 b 319 506 428 79 319 261 b 586 893 319 750 438 893 b 789 783 700 893 753 839 l 833 644 l 943 644 l 943 914 b 625 997 865 956 754 997 b 42 457 254 936 42 789 b 486 -21 42 171 244 8 l 419 -111 b 503 -187 458 -111 503 -131 b 468 -271 503 -218 492 -253 l 379 -271 l 339 -340 l 426 -340 l 497 -312 b 651 -153 561 -287 651 -247 b 539 -65 651 -96 610 -65 l 565 -25 z "},"Ĉ":{"ha":986,"x_min":0,"x_max":0,"o":"m 365 1071 l 501 1071 l 575 1135 l 604 1174 l 633 1135 l 707 1071 l 843 1071 l 676 1263 l 532 1263 z m 567 -25 b 944 69 744 0 853 31 l 965 351 l 863 351 l 799 183 b 590 79 740 124 686 79 b 319 506 428 79 319 261 b 586 893 319 750 438 893 b 789 783 700 893 753 839 l 833 644 l 943 644 l 943 914 b 625 997 865 956 754 997 b 42 457 254 936 42 789 b 567 -25 42 140 290 -25 z "},"Ċ":{"ha":986,"x_min":0,"x_max":0,"o":"m 592 1072 l 682 1082 l 701 1165 l 692 1264 l 615 1274 l 518 1267 l 500 1182 l 510 1082 z m 567 -25 b 944 69 744 0 853 31 l 965 351 l 863 351 l 799 183 b 590 79 740 124 686 79 b 319 506 428 79 319 261 b 586 893 319 750 438 893 b 789 783 700 893 753 839 l 833 644 l 943 644 l 943 914 b 625 997 865 956 754 997 b 42 457 254 936 42 789 b 567 -25 42 140 290 -25 z "},"Ď":{"ha":1076,"x_min":0,"x_max":0,"o":"m 407 1072 l 551 1072 l 718 1264 l 582 1264 l 508 1200 l 479 1161 l 450 1200 l 376 1264 l 240 1264 z m 49 -1 l 208 3 l 547 -1 b 1035 511 896 29 1035 251 b 549 974 1035 811 851 976 l 215 969 l 49 974 l 42 899 l 139 881 l 139 93 l 42 75 z m 522 76 l 396 86 l 396 888 l 489 894 b 764 490 656 907 764 736 b 522 76 764 274 679 64 z "},"Đ":{"ha":1076,"x_min":0,"x_max":0,"o":"m 549 974 l 215 969 l 49 974 l 42 899 l 139 881 l 139 546 l 49 546 l 49 463 l 139 463 l 139 93 l 42 75 l 49 -1 l 208 3 l 547 -1 b 1035 511 896 29 1035 251 b 549 974 1035 811 851 976 z m 522 76 l 396 86 l 396 463 l 535 463 l 535 546 l 396 546 l 396 888 l 489 894 b 764 490 656 907 764 736 b 522 76 764 274 679 64 z "},"É":{"ha":911,"x_min":0,"x_max":0,"o":"m 432 1071 l 554 1071 l 710 1263 l 488 1263 z m 49 -1 l 240 3 l 847 -1 l 890 283 l 803 283 l 708 96 l 396 92 l 396 465 l 535 460 l 590 310 l 674 310 l 660 511 l 674 713 l 590 713 l 535 563 l 396 557 l 396 881 l 692 876 l 778 696 l 865 696 l 850 974 l 240 969 l 49 974 l 42 899 l 139 881 l 139 93 l 42 75 z "},"Ĕ":{"ha":911,"x_min":0,"x_max":0,"o":"m 522 1061 b 719 1215 644 1110 682 1142 l 665 1257 b 501 1175 639 1226 585 1175 b 338 1257 418 1175 364 1226 l 283 1215 b 522 1061 321 1133 406 1061 z m 49 -1 l 240 3 l 847 -1 l 890 283 l 803 283 l 708 96 l 396 92 l 396 465 l 535 460 l 590 310 l 674 310 l 660 511 l 674 713 l 590 713 l 535 563 l 396 557 l 396 881 l 692 876 l 778 696 l 865 696 l 850 974 l 240 969 l 49 974 l 42 899 l 139 881 l 139 93 l 42 75 z "},"Ě":{"ha":911,"x_min":0,"x_max":0,"o":"m 429 1071 l 574 1071 l 740 1263 l 604 1263 l 531 1199 l 501 1160 l 472 1199 l 399 1263 l 263 1263 z m 49 -1 l 240 3 l 847 -1 l 890 283 l 803 283 l 708 96 l 396 92 l 396 465 l 535 460 l 590 310 l 674 310 l 660 511 l 674 713 l 590 713 l 535 563 l 396 557 l 396 881 l 692 876 l 778 696 l 865 696 l 850 974 l 240 969 l 49 974 l 42 899 l 139 881 l 139 93 l 42 75 z "},"Ê":{"ha":911,"x_min":0,"x_max":0,"o":"m 263 1071 l 399 1071 l 472 1135 l 501 1174 l 531 1135 l 604 1071 l 740 1071 l 574 1263 l 429 1263 z m 49 -1 l 240 3 l 847 -1 l 890 283 l 803 283 l 708 96 l 396 92 l 396 465 l 535 460 l 590 310 l 674 310 l 660 511 l 674 713 l 590 713 l 535 563 l 396 557 l 396 881 l 692 876 l 778 696 l 865 696 l 850 974 l 240 969 l 49 974 l 42 899 l 139 881 l 139 93 l 42 75 z "},"Ë":{"ha":911,"x_min":0,"x_max":0,"o":"m 299 1060 l 408 1069 l 428 1146 l 417 1235 l 371 1244 l 258 1235 l 242 1160 l 251 1069 z m 632 1060 l 743 1069 l 761 1146 l 751 1235 l 704 1244 l 593 1235 l 575 1160 l 586 1069 z m 49 -1 l 240 3 l 847 -1 l 890 283 l 803 283 l 708 96 l 396 92 l 396 465 l 535 460 l 590 310 l 674 310 l 660 511 l 674 713 l 590 713 l 535 563 l 396 557 l 396 881 l 692 876 l 778 696 l 865 696 l 850 974 l 240 969 l 49 974 l 42 899 l 139 881 l 139 93 l 42 75 z "},"Ė":{"ha":911,"x_min":0,"x_max":0,"o":"m 492 1072 l 582 1082 l 601 1165 l 592 1264 l 515 1274 l 418 1267 l 400 1182 l 410 1082 z m 49 -1 l 240 3 l 847 -1 l 890 283 l 803 283 l 708 96 l 396 92 l 396 465 l 535 460 l 590 310 l 674 310 l 660 511 l 674 713 l 590 713 l 535 563 l 396 557 l 396 881 l 692 876 l 778 696 l 865 696 l 850 974 l 240 969 l 49 974 l 42 899 l 139 881 l 139 93 l 42 75 z "},"È":{"ha":911,"x_min":0,"x_max":0,"o":"m 443 1071 l 565 1071 l 510 1263 l 288 1263 z m 49 -1 l 240 3 l 847 -1 l 890 283 l 803 283 l 708 96 l 396 92 l 396 465 l 535 460 l 590 310 l 674 310 l 660 511 l 674 713 l 590 713 l 535 563 l 396 557 l 396 881 l 692 876 l 778 696 l 865 696 l 850 974 l 240 969 l 49 974 l 42 899 l 139 881 l 139 93 l 42 75 z "},"Ē":{"ha":911,"x_min":0,"x_max":0,"o":"m 293 1094 l 710 1094 l 710 1206 l 293 1206 z m 49 -1 l 240 3 l 847 -1 l 890 283 l 803 283 l 708 96 l 396 92 l 396 465 l 535 460 l 590 310 l 674 310 l 660 511 l 674 713 l 590 713 l 535 563 l 396 557 l 396 881 l 692 876 l 778 696 l 865 696 l 850 974 l 240 969 l 49 974 l 42 899 l 139 881 l 139 93 l 42 75 z "},"Ę":{"ha":911,"x_min":0,"x_max":0,"o":"m 717 -185 l 717 -139 l 761 -1 l 847 -1 l 890 283 l 803 283 l 708 96 l 396 92 l 396 465 l 535 460 l 590 310 l 674 310 l 660 511 l 674 713 l 590 713 l 535 563 l 396 557 l 396 881 l 692 876 l 778 696 l 865 696 l 850 974 l 240 969 l 49 974 l 42 899 l 139 881 l 139 93 l 42 75 l 49 -1 l 240 3 l 658 0 l 561 -104 l 561 -207 b 860 -340 561 -296 640 -340 l 860 -275 b 717 -185 717 -275 717 -218 z "},"Ð":{"ha":1076,"x_min":0,"x_max":0,"o":"m 549 974 l 215 969 l 49 974 l 42 899 l 139 881 l 139 546 l 49 546 l 49 463 l 139 463 l 139 93 l 42 75 l 49 -1 l 208 3 l 547 -1 b 1035 511 896 29 1035 251 b 549 974 1035 811 851 976 z m 522 76 l 396 86 l 396 463 l 535 463 l 535 546 l 396 546 l 396 888 l 489 894 b 764 490 656 907 764 736 b 522 76 764 274 679 64 z "},"Ğ":{"ha":1053,"x_min":0,"x_max":0,"o":"m 622 1061 b 819 1215 744 1110 782 1142 l 765 1257 b 601 1175 739 1226 685 1175 b 438 1257 518 1175 464 1226 l 383 1215 b 622 1061 421 1133 506 1061 z m 556 -25 b 965 83 757 1 876 35 l 965 361 l 1032 379 l 1021 463 l 838 458 l 590 463 l 583 379 l 708 361 l 708 111 b 599 79 685 94 656 79 b 319 504 424 79 319 258 b 599 893 319 756 425 893 b 796 782 686 893 756 850 l 842 646 l 951 646 l 951 908 b 628 997 872 950 760 997 b 42 447 257 938 42 790 b 556 -25 42 147 288 -25 z "},"Ĝ":{"ha":1053,"x_min":0,"x_max":0,"o":"m 363 1071 l 499 1071 l 572 1135 l 601 1174 l 631 1135 l 704 1071 l 840 1071 l 674 1263 l 529 1263 z m 556 -25 b 965 83 757 1 876 35 l 965 361 l 1032 379 l 1021 463 l 838 458 l 590 463 l 583 379 l 708 361 l 708 111 b 599 79 685 94 656 79 b 319 504 424 79 319 258 b 599 893 319 756 425 893 b 796 782 686 893 756 850 l 842 646 l 951 646 l 951 908 b 628 997 872 950 760 997 b 42 447 257 938 42 790 b 556 -25 42 147 288 -25 z "},"Ģ":{"ha":1053,"x_min":0,"x_max":0,"o":"m 556 -25 b 965 83 757 1 876 35 l 965 361 l 1032 379 l 1021 463 l 838 458 l 590 463 l 583 379 l 708 361 l 708 111 b 599 79 685 94 656 79 b 319 504 424 79 319 258 b 599 893 319 756 425 893 b 796 782 686 893 756 850 l 842 646 l 951 646 l 951 908 b 628 997 872 950 760 997 b 42 447 257 938 42 790 b 556 -25 42 147 288 -25 z m 539 -340 l 654 -181 l 654 -69 l 460 -69 l 460 -125 l 492 -174 l 460 -326 z "},"Ġ":{"ha":1053,"x_min":0,"x_max":0,"o":"m 592 1072 l 682 1082 l 701 1165 l 692 1264 l 615 1274 l 518 1267 l 500 1182 l 510 1082 z m 556 -25 b 965 83 757 1 876 35 l 965 361 l 1032 379 l 1021 463 l 838 458 l 590 463 l 583 379 l 708 361 l 708 111 b 599 79 685 94 656 79 b 319 504 424 79 319 258 b 599 893 319 756 425 893 b 796 782 686 893 756 850 l 842 646 l 951 646 l 951 908 b 628 997 872 950 760 997 b 42 447 257 938 42 790 b 556 -25 42 147 288 -25 z "},"Ħ":{"ha":1125,"x_min":0,"x_max":0,"o":"m 986 881 l 1083 899 l 1076 974 l 857 969 l 653 974 l 646 899 l 729 881 l 729 722 l 396 722 l 396 881 l 479 899 l 472 974 l 268 969 l 49 974 l 42 899 l 139 881 l 139 93 l 42 75 l 49 -1 l 268 3 l 472 -1 l 479 75 l 396 93 l 396 454 l 729 454 l 729 93 l 646 75 l 653 -1 l 857 3 l 1076 -1 l 1083 75 l 986 93 z m 396 551 l 396 653 l 729 653 l 729 551 z "},"Ĥ":{"ha":1125,"x_min":0,"x_max":0,"o":"m 324 1071 l 460 1071 l 533 1135 l 563 1174 l 592 1135 l 665 1071 l 801 1071 l 635 1263 l 490 1263 z m 49 -1 l 268 3 l 472 -1 l 479 75 l 396 93 l 396 454 l 729 454 l 729 93 l 646 75 l 653 -1 l 857 3 l 1076 -1 l 1083 75 l 986 93 l 986 881 l 1083 899 l 1076 974 l 857 969 l 653 974 l 646 899 l 729 881 l 729 551 l 396 551 l 396 881 l 479 899 l 472 974 l 268 969 l 49 974 l 42 899 l 139 881 l 139 93 l 42 75 z "},"Í":{"ha":535,"x_min":0,"x_max":0,"o":"m 199 1071 l 321 1071 l 476 1263 l 254 1263 z m 49 -1 l 268 3 l 486 -1 l 493 75 l 396 93 l 396 881 l 493 899 l 486 974 l 268 969 l 49 974 l 42 899 l 139 881 l 139 93 l 42 75 z "},"Ĭ":{"ha":535,"x_min":0,"x_max":0,"o":"m 289 1061 b 486 1215 411 1110 449 1142 l 432 1257 b 268 1175 406 1226 351 1175 b 104 1257 185 1175 131 1226 l 50 1215 b 289 1061 88 1133 172 1061 z m 49 -1 l 268 3 l 486 -1 l 493 75 l 396 93 l 396 881 l 493 899 l 486 974 l 268 969 l 49 974 l 42 899 l 139 881 l 139 93 l 42 75 z "},"Î":{"ha":535,"x_min":0,"x_max":0,"o":"m 29 1071 l 165 1071 l 239 1135 l 268 1174 l 297 1135 l 371 1071 l 507 1071 l 340 1263 l 196 1263 z m 49 -1 l 268 3 l 486 -1 l 493 75 l 396 93 l 396 881 l 493 899 l 486 974 l 268 969 l 49 974 l 42 899 l 139 881 l 139 93 l 42 75 z "},"Ï":{"ha":535,"x_min":0,"x_max":0,"o":"m 65 1060 l 175 1069 l 194 1146 l 183 1235 l 138 1244 l 25 1235 l 8 1160 l 18 1069 z m 399 1060 l 510 1069 l 528 1146 l 518 1235 l 471 1244 l 360 1235 l 342 1160 l 353 1069 z m 49 -1 l 268 3 l 486 -1 l 493 75 l 396 93 l 396 881 l 493 899 l 486 974 l 268 969 l 49 974 l 42 899 l 139 881 l 139 93 l 42 75 z "},"İ":{"ha":535,"x_min":0,"x_max":0,"o":"m 258 1072 l 349 1082 l 368 1165 l 358 1264 l 282 1274 l 185 1267 l 167 1182 l 176 1082 z m 49 -1 l 268 3 l 486 -1 l 493 75 l 396 93 l 396 881 l 493 899 l 486 974 l 268 969 l 49 974 l 42 899 l 139 881 l 139 93 l 42 75 z "},"Ì":{"ha":535,"x_min":0,"x_max":0,"o":"m 210 1071 l 332 1071 l 276 1263 l 54 1263 z m 49 -1 l 268 3 l 486 -1 l 493 75 l 396 93 l 396 881 l 493 899 l 486 974 l 268 969 l 49 974 l 42 899 l 139 881 l 139 93 l 42 75 z "},"Ĳ":{"ha":1118,"x_min":0,"x_max":0,"o":"m 49 -1 l 268 3 l 486 -1 l 493 75 l 396 93 l 396 881 l 493 899 l 486 974 l 268 969 l 49 974 l 42 899 l 139 881 l 139 93 l 42 75 z m 542 -243 l 689 -243 l 783 -146 b 993 229 857 -69 993 60 l 993 881 l 1083 899 l 1076 974 l 865 968 l 590 974 l 583 899 l 736 881 l 736 132 b 718 -19 736 79 733 25 l 708 -49 l 542 -49 z "},"Ī":{"ha":535,"x_min":0,"x_max":0,"o":"m 60 1094 l 476 1094 l 476 1206 l 60 1206 z m 49 -1 l 268 3 l 486 -1 l 493 75 l 396 93 l 396 881 l 493 899 l 486 974 l 268 969 l 49 974 l 42 899 l 139 881 l 139 93 l 42 75 z "},"Į":{"ha":535,"x_min":0,"x_max":0,"o":"m 396 881 l 493 899 l 486 974 l 268 969 l 49 974 l 42 899 l 139 881 l 139 93 l 42 75 l 49 -1 l 207 1 l 108 -104 l 108 -207 b 407 -340 108 -296 188 -340 l 407 -275 b 264 -185 264 -275 264 -218 l 264 -139 l 308 1 l 486 -1 l 493 75 l 396 93 z "},"Ĩ":{"ha":535,"x_min":0,"x_max":0,"o":"m 17 1069 l 72 1069 l 111 1138 l 372 1067 l 475 1090 l 519 1263 l 464 1263 l 424 1194 l 164 1265 l 60 1235 z m 49 -1 l 268 3 l 486 -1 l 493 75 l 396 93 l 396 881 l 493 899 l 486 974 l 268 969 l 49 974 l 42 899 l 139 881 l 139 93 l 42 75 z "},"Ĵ":{"ha":583,"x_min":0,"x_max":0,"o":"m 53 1071 l 189 1071 l 263 1135 l 292 1174 l 321 1135 l 394 1071 l 531 1071 l 364 1263 l 219 1263 z m 7 -243 l 154 -243 l 249 -146 b 458 229 322 -69 458 60 l 458 881 l 549 899 l 542 974 l 331 968 l 56 974 l 49 899 l 201 881 l 201 132 b 183 -19 201 79 199 25 l 174 -49 l 7 -49 z "},"Ķ":{"ha":1079,"x_min":0,"x_max":0,"o":"m 49 -1 l 268 3 l 479 -1 l 486 75 l 396 93 l 396 489 l 424 428 l 756 -1 l 947 3 l 1065 -1 l 1072 75 l 1000 93 l 639 504 l 561 533 l 942 881 l 1047 899 l 1040 974 l 856 969 l 699 974 l 692 899 l 793 881 l 439 547 l 396 526 l 396 881 l 486 899 l 479 974 l 268 969 l 49 974 l 42 899 l 139 881 l 139 93 l 42 75 z m 522 -340 l 638 -181 l 638 -69 l 443 -69 l 443 -125 l 475 -174 l 443 -326 z "},"Ĺ":{"ha":858,"x_min":0,"x_max":0,"o":"m 213 1071 l 335 1071 l 490 1263 l 268 1263 z m 49 -1 l 240 4 l 822 -1 l 872 297 l 799 297 l 683 96 l 396 92 l 396 881 l 493 899 l 486 974 l 240 969 l 49 974 l 42 899 l 139 881 l 139 93 l 42 75 z "},"Ľ":{"ha":860,"x_min":0,"x_max":0,"o":"m 639 529 l 754 764 l 767 863 l 754 974 l 700 986 l 546 974 l 536 876 l 546 764 l 626 756 b 564 560 625 719 589 608 z m 49 -1 l 240 4 l 822 -1 l 872 297 l 799 297 l 683 96 l 396 92 l 396 881 l 493 899 l 486 974 l 240 969 l 49 974 l 42 899 l 139 881 l 139 93 l 42 75 z "},"Ļ":{"ha":858,"x_min":0,"x_max":0,"o":"m 49 -1 l 240 4 l 822 -1 l 872 297 l 799 297 l 683 96 l 396 92 l 396 881 l 493 899 l 486 974 l 240 969 l 49 974 l 42 899 l 139 881 l 139 93 l 42 75 z m 425 -340 l 540 -181 l 540 -69 l 346 -69 l 346 -125 l 378 -174 l 346 -326 z "},"Ŀ":{"ha":858,"x_min":0,"x_max":0,"o":"m 49 -1 l 240 4 l 822 -1 l 872 297 l 799 297 l 683 96 l 396 92 l 396 881 l 493 899 l 486 974 l 240 969 l 49 974 l 42 899 l 139 881 l 139 93 l 42 75 z m 582 451 l 722 461 l 735 553 l 722 656 l 668 668 l 528 656 l 518 567 l 528 461 z "},"Ł":{"ha":858,"x_min":0,"x_max":0,"o":"m 799 297 l 683 96 l 396 92 l 396 529 l 517 589 l 517 700 l 396 640 l 396 881 l 493 899 l 486 974 l 240 969 l 49 974 l 42 899 l 139 881 l 139 513 l 58 472 l 58 361 l 139 401 l 139 93 l 42 75 l 49 -1 l 240 4 l 822 -1 l 872 297 z "},"Ń":{"ha":1022,"x_min":0,"x_max":0,"o":"m 442 1071 l 564 1071 l 719 1263 l 497 1263 z m 796 -4 l 911 -4 l 911 881 l 1008 899 l 1001 974 l 856 969 l 703 974 l 700 899 l 793 881 l 793 333 l 750 478 l 329 974 l 153 969 l 49 974 l 42 899 l 139 881 l 139 93 l 42 75 l 49 -1 l 194 3 l 347 -1 l 350 75 l 257 93 l 257 772 l 294 624 z "},"Ň":{"ha":1022,"x_min":0,"x_max":0,"o":"m 439 1071 l 583 1071 l 750 1263 l 614 1263 l 540 1199 l 511 1160 l 482 1199 l 408 1263 l 272 1263 z m 796 -4 l 911 -4 l 911 881 l 1008 899 l 1001 974 l 856 969 l 703 974 l 700 899 l 793 881 l 793 333 l 750 478 l 329 974 l 153 969 l 49 974 l 42 899 l 139 881 l 139 93 l 42 75 l 49 -1 l 194 3 l 347 -1 l 350 75 l 257 93 l 257 772 l 294 624 z "},"Ņ":{"ha":1022,"x_min":0,"x_max":0,"o":"m 796 -4 l 911 -4 l 911 881 l 1008 899 l 1001 974 l 856 969 l 703 974 l 700 899 l 793 881 l 793 333 l 750 478 l 329 974 l 153 969 l 49 974 l 42 899 l 139 881 l 139 93 l 42 75 l 49 -1 l 194 3 l 347 -1 l 350 75 l 257 93 l 257 772 l 294 624 z m 493 -340 l 608 -181 l 608 -69 l 414 -69 l 414 -125 l 446 -174 l 414 -326 z "},"Ñ":{"ha":1022,"x_min":0,"x_max":0,"o":"m 260 1069 l 315 1069 l 354 1138 l 615 1067 l 718 1090 l 763 1263 l 707 1263 l 667 1194 l 407 1265 l 303 1235 z m 796 -4 l 911 -4 l 911 881 l 1008 899 l 1001 974 l 856 969 l 703 974 l 700 899 l 793 881 l 793 333 l 750 478 l 329 974 l 153 969 l 49 974 l 42 899 l 139 881 l 139 93 l 42 75 l 49 -1 l 194 3 l 347 -1 l 350 75 l 257 93 l 257 772 l 294 624 z "},"Ŋ":{"ha":1022,"x_min":0,"x_max":0,"o":"m 583 -326 l 781 -326 l 911 -4 l 911 881 l 1008 899 l 1001 975 l 846 971 l 710 975 l 703 899 l 793 881 l 793 368 l 750 478 l 315 974 l 153 969 l 51 974 l 44 897 l 139 883 l 139 93 l 42 75 l 49 -1 l 203 3 l 368 -1 l 375 75 l 257 93 l 257 731 l 294 624 l 810 -4 l 851 -4 l 774 -51 l 681 -183 l 583 -183 z "},"Ó":{"ha":1146,"x_min":0,"x_max":0,"o":"m 504 1071 l 626 1071 l 782 1263 l 560 1263 z m 556 -25 b 1104 514 958 54 1104 203 b 590 997 1104 790 907 997 b 42 458 188 918 42 769 b 556 -25 42 182 239 -25 z m 590 79 b 319 510 407 79 319 296 b 560 893 319 742 393 893 b 826 464 742 893 826 674 b 590 79 826 232 756 79 z "},"Ŏ":{"ha":1146,"x_min":0,"x_max":0,"o":"m 594 1061 b 792 1215 717 1110 754 1142 l 738 1257 b 574 1175 711 1226 657 1175 b 410 1257 490 1175 436 1226 l 356 1215 b 594 1061 393 1133 478 1061 z m 556 -25 b 1104 514 958 54 1104 203 b 590 997 1104 790 907 997 b 42 458 188 918 42 769 b 556 -25 42 182 239 -25 z m 590 79 b 319 510 407 79 319 296 b 560 893 319 742 393 893 b 826 464 742 893 826 674 b 590 79 826 232 756 79 z "},"Ô":{"ha":1146,"x_min":0,"x_max":0,"o":"m 335 1071 l 471 1071 l 544 1135 l 574 1174 l 603 1135 l 676 1071 l 813 1071 l 646 1263 l 501 1263 z m 556 -25 b 1104 514 958 54 1104 203 b 590 997 1104 790 907 997 b 42 458 188 918 42 769 b 556 -25 42 182 239 -25 z m 590 79 b 319 510 407 79 319 296 b 560 893 319 742 393 893 b 826 464 742 893 826 674 b 590 79 826 232 756 79 z "},"Ö":{"ha":1146,"x_min":0,"x_max":0,"o":"m 371 1060 l 481 1069 l 500 1146 l 489 1235 l 443 1244 l 331 1235 l 314 1160 l 324 1069 z m 704 1060 l 815 1069 l 833 1146 l 824 1235 l 776 1244 l 665 1235 l 647 1160 l 658 1069 z m 556 -25 b 1104 514 958 54 1104 203 b 590 997 1104 790 907 997 b 42 458 188 918 42 769 b 556 -25 42 182 239 -25 z m 590 79 b 319 510 407 79 319 296 b 560 893 319 742 393 893 b 826 464 742 893 826 674 b 590 79 826 232 756 79 z "},"Œ":{"ha":1439,"x_min":0,"x_max":0,"o":"m 549 -25 l 782 1 l 1368 -1 l 1418 263 l 1344 263 l 1243 96 l 938 92 l 938 465 l 1083 460 l 1139 310 l 1208 310 l 1194 511 l 1208 713 l 1139 713 l 1083 563 l 938 557 l 938 882 l 1233 878 l 1319 718 l 1393 718 l 1378 975 l 782 972 l 583 997 b 42 458 186 918 42 769 b 549 -25 42 182 236 -25 z m 681 93 l 592 72 b 313 508 444 72 313 264 b 533 900 313 714 372 900 l 681 881 z "},"Ò":{"ha":1146,"x_min":0,"x_max":0,"o":"m 515 1071 l 638 1071 l 582 1263 l 360 1263 z m 556 -25 b 1104 514 958 54 1104 203 b 590 997 1104 790 907 997 b 42 458 188 918 42 769 b 556 -25 42 182 239 -25 z m 590 79 b 319 510 407 79 319 296 b 560 893 319 742 393 893 b 826 464 742 893 826 674 b 590 79 826 232 756 79 z "},"Ő":{"ha":1146,"x_min":0,"x_max":0,"o":"m 397 1071 l 519 1071 l 675 1263 l 453 1263 z m 675 1071 l 797 1071 l 953 1263 l 731 1263 z m 556 -25 b 1104 514 958 54 1104 203 b 590 997 1104 790 907 997 b 42 458 188 918 42 769 b 556 -25 42 182 239 -25 z m 590 79 b 319 510 407 79 319 296 b 560 893 319 742 393 893 b 826 464 742 893 826 674 b 590 79 826 232 756 79 z "},"Ō":{"ha":1146,"x_min":0,"x_max":0,"o":"m 365 1094 l 782 1094 l 782 1206 l 365 1206 z m 556 -25 b 1104 514 958 54 1104 203 b 590 997 1104 790 907 997 b 42 458 188 918 42 769 b 556 -25 42 182 239 -25 z m 590 79 b 319 510 407 79 319 296 b 560 893 319 742 393 893 b 826 464 742 893 826 674 b 590 79 826 232 756 79 z "},"Ø":{"ha":1146,"x_min":0,"x_max":0,"o":"m 957 868 l 1064 993 l 944 993 l 883 922 b 590 997 804 969 706 997 b 42 458 188 918 42 769 b 185 108 42 318 93 194 l 74 -21 l 196 -21 l 258 53 b 556 -25 339 3 439 -25 b 1104 514 958 54 1104 203 b 957 868 1104 657 1051 781 z m 319 510 b 560 893 319 742 393 893 b 754 771 646 893 710 844 l 350 300 b 319 510 329 365 319 438 z m 590 79 b 390 207 501 79 435 131 l 794 678 b 826 464 815 613 826 538 b 590 79 826 232 756 79 z "},"Ǿ":{"ha":1146,"x_min":0,"x_max":0,"o":"m 782 1263 l 560 1263 l 504 1071 l 626 1071 z m 957 868 l 1064 993 l 944 993 l 883 922 b 590 997 804 969 706 997 b 42 458 188 918 42 769 b 185 108 42 318 93 194 l 74 -21 l 196 -21 l 258 53 b 556 -25 339 3 439 -25 b 1104 514 958 54 1104 203 b 957 868 1104 657 1051 781 z m 319 510 b 560 893 319 742 393 893 b 754 771 646 893 710 844 l 350 300 b 319 510 329 365 319 438 z m 590 79 b 390 207 501 79 435 131 l 794 678 b 826 464 815 613 826 538 b 590 79 826 232 756 79 z "},"Õ":{"ha":1146,"x_min":0,"x_max":0,"o":"m 322 1069 l 378 1069 l 417 1138 l 678 1067 l 781 1090 l 825 1263 l 769 1263 l 729 1194 l 469 1265 l 365 1235 z m 556 -25 b 1104 514 958 54 1104 203 b 590 997 1104 790 907 997 b 42 458 188 918 42 769 b 556 -25 42 182 239 -25 z m 590 79 b 319 510 407 79 319 296 b 560 893 319 742 393 893 b 826 464 742 893 826 674 b 590 79 826 232 756 79 z "},"Ŕ":{"ha":1021,"x_min":0,"x_max":0,"o":"m 676 1263 l 454 1263 l 399 1071 l 521 1071 z m 953 97 l 764 403 l 582 479 b 900 732 761 511 900 592 b 611 974 900 885 771 975 l 264 969 l 49 974 l 42 899 l 139 881 l 139 93 l 42 75 l 49 -1 l 268 3 l 486 -1 l 493 75 l 396 93 l 396 440 l 435 440 l 454 425 l 706 -1 l 831 3 l 1008 -1 l 1014 75 z m 396 888 l 479 899 b 629 721 564 899 629 838 b 481 532 629 597 557 532 l 396 532 z "},"Ř":{"ha":1021,"x_min":0,"x_max":0,"o":"m 540 1071 l 707 1263 l 571 1263 l 497 1199 l 468 1160 l 439 1199 l 365 1263 l 229 1263 l 396 1071 z m 953 97 l 764 403 l 582 479 b 900 732 761 511 900 592 b 611 974 900 885 771 975 l 264 969 l 49 974 l 42 899 l 139 881 l 139 93 l 42 75 l 49 -1 l 268 3 l 486 -1 l 493 75 l 396 93 l 396 440 l 435 440 l 454 425 l 706 -1 l 831 3 l 1008 -1 l 1014 75 z m 396 888 l 479 899 b 629 721 564 899 629 838 b 481 532 629 597 557 532 l 396 532 z "},"Ŗ":{"ha":1021,"x_min":0,"x_max":0,"o":"m 953 97 l 764 403 l 582 479 b 900 732 761 511 900 592 b 611 974 900 885 771 975 l 264 969 l 49 974 l 42 899 l 139 881 l 139 93 l 42 75 l 49 -1 l 268 3 l 486 -1 l 493 75 l 396 93 l 396 440 l 435 440 l 454 425 l 706 -1 l 831 3 l 1008 -1 l 1014 75 z m 396 888 l 479 899 b 629 721 564 899 629 838 b 481 532 629 597 557 532 l 396 532 z m 456 -125 l 488 -174 l 456 -326 l 535 -340 l 650 -181 l 650 -69 l 456 -69 z "},"Ś":{"ha":814,"x_min":0,"x_max":0,"o":"m 363 1071 l 485 1071 l 640 1263 l 418 1263 z m 369 -25 b 772 300 661 54 772 144 b 560 568 772 419 719 486 l 367 667 b 272 786 300 701 272 736 b 417 886 272 846 331 886 b 579 810 476 886 529 861 l 621 681 l 738 681 l 738 917 b 428 997 651 967 535 997 b 49 701 176 942 49 842 b 246 444 49 593 108 515 l 418 356 b 528 217 493 318 528 274 b 392 90 528 139 475 90 b 214 188 329 90 269 124 l 167 319 l 35 319 l 65 69 b 369 -25 161 10 274 -25 z "},"Š":{"ha":814,"x_min":0,"x_max":0,"o":"m 360 1071 l 504 1071 l 671 1263 l 535 1263 l 461 1199 l 432 1160 l 403 1199 l 329 1263 l 193 1263 z m 369 -25 b 772 300 661 54 772 144 b 560 568 772 419 719 486 l 367 667 b 272 786 300 701 272 736 b 417 886 272 846 331 886 b 579 810 476 886 529 861 l 621 681 l 738 681 l 738 917 b 428 997 651 967 535 997 b 49 701 176 942 49 842 b 246 444 49 593 108 515 l 418 356 b 528 217 493 318 528 274 b 392 90 528 139 475 90 b 214 188 329 90 269 124 l 167 319 l 35 319 l 65 69 b 369 -25 161 10 274 -25 z "},"Ş":{"ha":814,"x_min":0,"x_max":0,"o":"m 772 300 b 560 568 772 419 719 486 l 367 667 b 272 786 300 701 272 736 b 417 886 272 846 331 886 b 579 810 476 886 529 861 l 621 681 l 738 681 l 738 917 b 428 997 651 967 535 997 b 49 701 176 942 49 842 b 246 444 49 593 108 515 l 418 356 b 528 217 493 318 528 274 b 392 90 528 139 475 90 b 214 188 329 90 269 124 l 167 319 l 35 319 l 65 69 b 342 -24 153 15 253 -18 l 278 -111 b 361 -187 317 -111 361 -131 b 326 -271 361 -218 350 -253 l 238 -271 l 197 -340 l 285 -340 l 356 -312 b 510 -153 419 -287 510 -247 b 397 -65 510 -96 468 -65 l 438 -6 b 772 300 678 69 772 157 z "},"Ŝ":{"ha":814,"x_min":0,"x_max":0,"o":"m 193 1071 l 329 1071 l 403 1135 l 432 1174 l 461 1135 l 535 1071 l 671 1071 l 504 1263 l 360 1263 z m 369 -25 b 772 300 661 54 772 144 b 560 568 772 419 719 486 l 367 667 b 272 786 300 701 272 736 b 417 886 272 846 331 886 b 579 810 476 886 529 861 l 621 681 l 738 681 l 738 917 b 428 997 651 967 535 997 b 49 701 176 942 49 842 b 246 444 49 593 108 515 l 418 356 b 528 217 493 318 528 274 b 392 90 528 139 475 90 b 214 188 329 90 269 124 l 167 319 l 35 319 l 65 69 b 369 -25 161 10 274 -25 z "},"Ș":{"ha":814,"x_min":0,"x_max":0,"o":"m 369 -25 b 772 300 661 54 772 144 b 560 568 772 419 719 486 l 367 667 b 272 786 300 701 272 736 b 417 886 272 846 331 886 b 579 810 476 886 529 861 l 621 681 l 738 681 l 738 917 b 428 997 651 967 535 997 b 49 701 176 942 49 842 b 246 444 49 593 108 515 l 418 356 b 528 217 493 318 528 274 b 392 90 528 139 475 90 b 214 188 329 90 269 124 l 167 319 l 35 319 l 65 69 b 369 -25 161 10 274 -25 z m 389 -340 l 504 -181 l 504 -69 l 310 -69 l 310 -125 l 342 -174 l 310 -326 z "},"Ŧ":{"ha":896,"x_min":0,"x_max":0,"o":"m 461 969 l 21 974 l 21 671 l 103 671 l 174 879 l 319 883 l 319 638 l 206 638 l 206 554 l 319 554 l 319 93 l 181 75 l 188 -1 l 449 3 l 708 -1 l 715 75 l 576 93 l 576 554 l 692 554 l 692 638 l 576 638 l 576 883 l 722 879 l 793 671 l 875 671 l 875 974 z "},"Ť":{"ha":896,"x_min":0,"x_max":0,"o":"m 376 1071 l 521 1071 l 688 1263 l 551 1263 l 478 1199 l 449 1160 l 419 1199 l 346 1263 l 210 1263 z m 188 -1 l 449 3 l 708 -1 l 715 75 l 576 93 l 576 883 l 722 879 l 793 671 l 875 671 l 875 974 l 461 969 l 21 974 l 21 671 l 103 671 l 174 879 l 319 883 l 319 93 l 181 75 z "},"Ţ":{"ha":896,"x_min":0,"x_max":0,"o":"m 461 969 l 21 974 l 21 671 l 103 671 l 174 879 l 319 883 l 319 93 l 181 75 l 188 -1 l 403 1 l 319 -111 b 403 -187 358 -111 403 -131 b 368 -271 403 -218 392 -253 l 279 -271 l 239 -340 l 326 -340 l 397 -312 b 551 -153 461 -287 551 -247 b 439 -65 551 -96 510 -65 l 483 3 l 708 -1 l 715 75 l 576 93 l 576 883 l 722 879 l 793 671 l 875 671 l 875 974 z "},"Ț":{"ha":896,"x_min":0,"x_max":0,"o":"m 188 -1 l 449 3 l 708 -1 l 715 75 l 576 93 l 576 883 l 722 879 l 793 671 l 875 671 l 875 974 l 461 969 l 21 974 l 21 671 l 103 671 l 174 879 l 319 883 l 319 93 l 181 75 z m 431 -340 l 546 -181 l 546 -69 l 351 -69 l 351 -125 l 383 -174 l 351 -326 z "},"Þ":{"ha":804,"x_min":0,"x_max":0,"o":"m 14 -1 l 233 3 l 521 -1 l 528 75 l 361 93 l 361 215 l 472 215 b 865 531 663 281 865 344 b 576 782 865 696 736 783 l 361 779 l 361 879 l 528 897 l 521 974 l 233 969 l 14 974 l 7 897 l 104 879 l 104 93 l 7 75 z m 361 314 l 361 694 l 424 706 b 594 514 508 706 594 639 b 439 314 594 382 515 314 z "},"Ú":{"ha":1056,"x_min":0,"x_max":0,"o":"m 514 1071 l 636 1071 l 792 1263 l 569 1263 z m 579 -25 b 931 357 856 42 931 171 l 931 881 l 1035 899 l 1028 974 l 872 969 l 694 974 l 688 899 l 799 881 l 799 361 b 586 100 799 199 725 100 b 375 360 447 100 375 199 l 375 881 l 465 899 l 458 974 l 213 969 l 28 974 l 21 899 l 118 881 l 118 346 b 579 -25 118 125 239 -25 z "},"Ŭ":{"ha":1056,"x_min":0,"x_max":0,"o":"m 604 1061 b 801 1215 726 1110 764 1142 l 747 1257 b 583 1175 721 1226 667 1175 b 419 1257 500 1175 446 1226 l 365 1215 b 604 1061 403 1133 488 1061 z m 579 -25 b 931 357 856 42 931 171 l 931 881 l 1035 899 l 1028 974 l 872 969 l 694 974 l 688 899 l 799 881 l 799 361 b 586 100 799 199 725 100 b 375 360 447 100 375 199 l 375 881 l 465 899 l 458 974 l 213 969 l 28 974 l 21 899 l 118 881 l 118 346 b 579 -25 118 125 239 -25 z "},"Û":{"ha":1056,"x_min":0,"x_max":0,"o":"m 344 1071 l 481 1071 l 554 1135 l 583 1174 l 613 1135 l 686 1071 l 822 1071 l 656 1263 l 511 1263 z m 579 -25 b 931 357 856 42 931 171 l 931 881 l 1035 899 l 1028 974 l 872 969 l 694 974 l 688 899 l 799 881 l 799 361 b 586 100 799 199 725 100 b 375 360 447 100 375 199 l 375 881 l 465 899 l 458 974 l 213 969 l 28 974 l 21 899 l 118 881 l 118 346 b 579 -25 118 125 239 -25 z "},"Ü":{"ha":1056,"x_min":0,"x_max":0,"o":"m 381 1060 l 490 1069 l 510 1146 l 499 1235 l 453 1244 l 340 1235 l 324 1160 l 333 1069 z m 714 1060 l 825 1069 l 843 1146 l 833 1235 l 786 1244 l 675 1235 l 657 1160 l 668 1069 z m 579 -25 b 931 357 856 42 931 171 l 931 881 l 1035 899 l 1028 974 l 872 969 l 694 974 l 688 899 l 799 881 l 799 361 b 586 100 799 199 725 100 b 375 360 447 100 375 199 l 375 881 l 465 899 l 458 974 l 213 969 l 28 974 l 21 899 l 118 881 l 118 346 b 579 -25 118 125 239 -25 z "},"Ù":{"ha":1056,"x_min":0,"x_max":0,"o":"m 525 1071 l 647 1071 l 592 1263 l 369 1263 z m 579 -25 b 931 357 856 42 931 171 l 931 881 l 1035 899 l 1028 974 l 872 969 l 694 974 l 688 899 l 799 881 l 799 361 b 586 100 799 199 725 100 b 375 360 447 100 375 199 l 375 881 l 465 899 l 458 974 l 213 969 l 28 974 l 21 899 l 118 881 l 118 346 b 579 -25 118 125 239 -25 z "},"Ű":{"ha":1056,"x_min":0,"x_max":0,"o":"m 407 1071 l 529 1071 l 685 1263 l 463 1263 z m 685 1071 l 807 1071 l 963 1263 l 740 1263 z m 579 -25 b 931 357 856 42 931 171 l 931 881 l 1035 899 l 1028 974 l 872 969 l 694 974 l 688 899 l 799 881 l 799 361 b 586 100 799 199 725 100 b 375 360 447 100 375 199 l 375 881 l 465 899 l 458 974 l 213 969 l 28 974 l 21 899 l 118 881 l 118 346 b 579 -25 118 125 239 -25 z "},"Ū":{"ha":1056,"x_min":0,"x_max":0,"o":"m 375 1094 l 792 1094 l 792 1206 l 375 1206 z m 579 -25 b 931 357 856 42 931 171 l 931 881 l 1035 899 l 1028 974 l 872 969 l 694 974 l 688 899 l 799 881 l 799 361 b 586 100 799 199 725 100 b 375 360 447 100 375 199 l 375 881 l 465 899 l 458 974 l 213 969 l 28 974 l 21 899 l 118 881 l 118 346 b 579 -25 118 125 239 -25 z "},"Ų":{"ha":1056,"x_min":0,"x_max":0,"o":"m 1028 974 l 872 969 l 694 974 l 688 899 l 799 881 l 799 361 b 586 100 799 199 725 100 b 375 360 447 100 375 199 l 375 881 l 465 899 l 458 974 l 213 969 l 28 974 l 21 899 l 118 881 l 118 346 b 576 -25 118 125 239 -24 l 503 -104 l 503 -207 b 801 -340 503 -296 582 -340 l 801 -275 b 658 -185 658 -275 658 -218 l 658 -139 l 708 17 b 931 357 879 89 931 204 l 931 881 l 1035 899 z "},"Ů":{"ha":1056,"x_min":0,"x_max":0,"o":"m 588 1028 b 754 1181 679 1050 754 1068 b 583 1339 754 1301 679 1339 b 413 1181 496 1314 413 1283 b 588 1028 413 1064 503 1028 z m 585 1101 b 501 1181 538 1101 501 1133 b 585 1265 501 1226 538 1265 b 668 1181 632 1265 668 1226 b 585 1101 668 1133 632 1101 z m 579 -25 b 931 357 856 42 931 171 l 931 881 l 1035 899 l 1028 974 l 872 969 l 694 974 l 688 899 l 799 881 l 799 361 b 586 100 799 199 725 100 b 375 360 447 100 375 199 l 375 881 l 465 899 l 458 974 l 213 969 l 28 974 l 21 899 l 118 881 l 118 346 b 579 -25 118 125 239 -25 z "},"Ũ":{"ha":1056,"x_min":0,"x_max":0,"o":"m 332 1069 l 388 1069 l 426 1138 l 688 1067 l 790 1090 l 835 1263 l 779 1263 l 739 1194 l 479 1265 l 375 1235 z m 579 -25 b 931 357 856 42 931 171 l 931 881 l 1035 899 l 1028 974 l 872 969 l 694 974 l 688 899 l 799 881 l 799 361 b 586 100 799 199 725 100 b 375 360 447 100 375 199 l 375 881 l 465 899 l 458 974 l 213 969 l 28 974 l 21 899 l 118 881 l 118 346 b 579 -25 118 125 239 -25 z "},"Ẃ":{"ha":1478,"x_min":0,"x_max":0,"o":"m 711 1071 l 833 1071 l 989 1263 l 767 1263 z m 400 -25 l 551 17 l 754 667 l 757 564 l 950 -25 l 1107 17 l 1376 881 l 1471 899 l 1464 974 l 1301 969 l 1171 974 l 1164 899 l 1271 881 l 1090 243 l 1085 357 l 911 881 l 1001 899 l 994 974 l 839 969 l 599 974 l 592 899 l 650 881 l 690 758 l 529 246 l 529 363 l 357 881 l 451 899 l 444 974 l 282 969 l 14 974 l 7 899 l 94 881 z "},"Ŵ":{"ha":1478,"x_min":0,"x_max":0,"o":"m 542 1071 l 678 1071 l 751 1135 l 781 1174 l 810 1135 l 883 1071 l 1019 1071 l 853 1263 l 708 1263 z m 400 -25 l 551 17 l 754 667 l 757 564 l 950 -25 l 1107 17 l 1376 881 l 1471 899 l 1464 974 l 1301 969 l 1171 974 l 1164 899 l 1271 881 l 1090 243 l 1085 357 l 911 881 l 1001 899 l 994 974 l 839 969 l 599 974 l 592 899 l 650 881 l 690 758 l 529 246 l 529 363 l 357 881 l 451 899 l 444 974 l 282 969 l 14 974 l 7 899 l 94 881 z "},"Ẅ":{"ha":1478,"x_min":0,"x_max":0,"o":"m 578 1060 l 688 1069 l 707 1146 l 696 1235 l 650 1244 l 538 1235 l 521 1160 l 531 1069 z m 911 1060 l 1022 1069 l 1040 1146 l 1031 1235 l 983 1244 l 872 1235 l 854 1160 l 865 1069 z m 400 -25 l 551 17 l 754 667 l 757 564 l 950 -25 l 1107 17 l 1376 881 l 1471 899 l 1464 974 l 1301 969 l 1171 974 l 1164 899 l 1271 881 l 1090 243 l 1085 357 l 911 881 l 1001 899 l 994 974 l 839 969 l 599 974 l 592 899 l 650 881 l 690 758 l 529 246 l 529 363 l 357 881 l 451 899 l 444 974 l 282 969 l 14 974 l 7 899 l 94 881 z "},"Ẁ":{"ha":1478,"x_min":0,"x_max":0,"o":"m 722 1071 l 844 1071 l 789 1263 l 567 1263 z m 400 -25 l 551 17 l 754 667 l 757 564 l 950 -25 l 1107 17 l 1376 881 l 1471 899 l 1464 974 l 1301 969 l 1171 974 l 1164 899 l 1271 881 l 1090 243 l 1085 357 l 911 881 l 1001 899 l 994 974 l 839 969 l 599 974 l 592 899 l 650 881 l 690 758 l 529 246 l 529 363 l 357 881 l 451 899 l 444 974 l 282 969 l 14 974 l 7 899 l 94 881 z "},"Ý":{"ha":1017,"x_min":0,"x_max":0,"o":"m 504 1071 l 626 1071 l 782 1263 l 560 1263 z m 244 -1 l 511 3 l 779 -1 l 786 75 l 640 93 l 640 385 l 929 881 l 1010 899 l 1003 974 l 874 969 l 728 974 l 721 899 l 814 881 l 569 446 l 574 524 l 361 881 l 451 899 l 444 974 l 226 969 l 14 974 l 7 899 l 89 881 l 383 385 l 383 93 l 238 75 z "},"Ŷ":{"ha":1017,"x_min":0,"x_max":0,"o":"m 335 1071 l 471 1071 l 544 1135 l 574 1174 l 603 1135 l 676 1071 l 813 1071 l 646 1263 l 501 1263 z m 244 -1 l 511 3 l 779 -1 l 786 75 l 640 93 l 640 385 l 929 881 l 1010 899 l 1003 974 l 874 969 l 728 974 l 721 899 l 814 881 l 569 446 l 574 524 l 361 881 l 451 899 l 444 974 l 226 969 l 14 974 l 7 899 l 89 881 l 383 385 l 383 93 l 238 75 z "},"Ÿ":{"ha":1017,"x_min":0,"x_max":0,"o":"m 371 1060 l 481 1069 l 500 1146 l 489 1235 l 443 1244 l 331 1235 l 314 1160 l 324 1069 z m 704 1060 l 815 1069 l 833 1146 l 824 1235 l 776 1244 l 665 1235 l 647 1160 l 658 1069 z m 244 -1 l 511 3 l 779 -1 l 786 75 l 640 93 l 640 385 l 929 881 l 1010 899 l 1003 974 l 874 969 l 728 974 l 721 899 l 814 881 l 569 446 l 574 524 l 361 881 l 451 899 l 444 974 l 226 969 l 14 974 l 7 899 l 89 881 l 383 385 l 383 93 l 238 75 z "},"Ỳ":{"ha":1017,"x_min":0,"x_max":0,"o":"m 515 1071 l 638 1071 l 582 1263 l 360 1263 z m 244 -1 l 511 3 l 779 -1 l 786 75 l 640 93 l 640 385 l 929 881 l 1010 899 l 1003 974 l 874 969 l 728 974 l 721 899 l 814 881 l 569 446 l 574 524 l 361 881 l 451 899 l 444 974 l 226 969 l 14 974 l 7 899 l 89 881 l 383 385 l 383 93 l 238 75 z "},"Ź":{"ha":840,"x_min":0,"x_max":0,"o":"m 351 1071 l 474 1071 l 629 1263 l 407 1263 z m 42 0 l 767 0 l 819 297 l 725 297 l 615 97 l 264 90 l 340 135 l 801 906 l 785 972 l 69 972 l 69 693 l 158 693 l 229 874 l 554 881 l 478 832 l 21 75 z "},"Ž":{"ha":840,"x_min":0,"x_max":0,"o":"m 349 1071 l 493 1071 l 660 1263 l 524 1263 l 450 1199 l 421 1160 l 392 1199 l 318 1263 l 182 1263 z m 42 0 l 767 0 l 819 297 l 725 297 l 615 97 l 264 90 l 340 135 l 801 906 l 785 972 l 69 972 l 69 693 l 158 693 l 229 874 l 554 881 l 478 832 l 21 75 z "},"Ż":{"ha":840,"x_min":0,"x_max":0,"o":"m 411 1072 l 501 1082 l 521 1165 l 511 1264 l 435 1274 l 338 1267 l 319 1182 l 329 1082 z m 42 0 l 767 0 l 819 297 l 725 297 l 615 97 l 264 90 l 340 135 l 801 906 l 785 972 l 69 972 l 69 693 l 158 693 l 229 874 l 554 881 l 478 832 l 21 75 z "},"a":{"ha":760,"x_min":0,"x_max":0,"o":"m 271 -21 l 428 93 l 474 -21 l 753 36 l 742 113 l 676 113 b 661 217 664 138 661 164 l 661 485 b 375 694 661 638 582 694 l 63 572 l 63 446 l 272 446 l 290 579 b 356 597 310 592 331 597 b 418 503 388 597 418 588 l 418 417 l 113 322 b 42 171 72 290 42 238 b 271 -21 42 54 138 -21 z m 339 111 b 276 204 311 111 276 140 b 310 306 276 239 288 283 l 418 349 l 418 147 l 397 133 b 339 111 381 122 361 111 z "},"b":{"ha":811,"x_min":0,"x_max":0,"o":"m 388 -21 b 776 386 661 24 776 174 b 519 694 776 575 643 694 l 326 561 l 326 990 l 231 986 l 14 951 l 21 875 l 90 878 l 90 38 b 388 -21 156 7 279 -21 z m 401 67 b 326 108 371 67 349 81 l 326 471 l 347 485 b 435 521 372 501 401 521 b 526 313 478 521 526 472 b 401 67 526 149 472 67 z "},"c":{"ha":693,"x_min":0,"x_max":0,"o":"m 388 -21 b 658 118 508 14 589 60 l 614 189 b 486 144 586 168 539 144 b 285 386 364 144 285 251 b 383 596 285 525 333 596 b 414 585 397 596 404 593 l 442 421 l 642 421 l 642 624 b 406 694 590 668 514 694 b 35 313 197 636 35 524 b 388 -21 35 117 179 -21 z "},"d":{"ha":825,"x_min":0,"x_max":0,"o":"m 339 -21 l 500 103 l 544 -21 l 804 21 l 799 97 l 749 97 b 728 185 735 118 728 128 l 728 992 l 610 986 l 415 943 l 422 867 l 492 869 l 492 658 b 369 694 469 674 399 694 b 42 313 178 651 42 544 b 339 -21 42 115 157 -21 z m 400 149 b 292 350 339 149 292 219 b 413 583 292 497 336 583 b 492 547 447 583 476 565 l 492 188 l 471 172 b 400 149 456 161 433 149 z "},"e":{"ha":700,"x_min":0,"x_max":0,"o":"m 665 425 b 382 694 665 571 582 694 b 35 308 83 611 35 450 b 383 -21 35 117 178 -21 b 663 129 510 21 582 54 l 625 197 b 451 144 593 175 524 144 b 275 338 350 144 286 232 l 665 338 z m 274 411 b 361 596 279 538 306 596 b 438 424 418 596 438 529 z "},"f":{"ha":564,"x_min":0,"x_max":0,"o":"m 71 -1 l 207 3 l 494 -1 l 501 75 l 369 93 l 369 550 l 553 550 l 553 640 l 369 640 l 369 669 b 388 801 369 722 369 769 l 404 831 l 585 831 l 585 986 l 382 986 l 222 843 b 133 665 163 789 133 735 l 133 647 l 82 647 l 28 585 l 28 550 l 133 550 l 133 93 l 64 75 z "},"g":{"ha":804,"x_min":0,"x_max":0,"o":"m 349 -340 b 756 -36 576 -262 756 -185 b 560 133 756 61 676 133 l 303 133 b 224 182 254 133 224 144 l 250 221 b 343 208 276 211 313 208 b 664 465 543 263 661 315 b 657 515 664 482 661 499 l 669 528 l 797 528 l 797 694 l 694 694 l 639 561 b 378 694 593 638 533 694 b 54 450 179 646 56 593 b 199 239 54 360 108 281 l 46 154 l 46 113 b 193 -50 46 38 97 -31 l 21 -142 l 21 -178 b 349 -340 21 -301 181 -340 z m 367 290 b 268 469 307 290 268 350 b 350 611 268 547 293 611 b 447 432 408 611 447 550 b 367 290 447 353 424 290 z m 396 -222 b 228 -117 261 -222 228 -169 b 261 -54 228 -94 240 -68 l 471 -54 b 554 -128 528 -54 554 -87 b 396 -222 554 -167 515 -222 z "},"h":{"ha":881,"x_min":0,"x_max":0,"o":"m 54 -1 l 235 3 l 394 -1 l 401 75 l 353 93 l 353 468 l 376 485 b 482 531 411 508 447 531 b 544 464 521 531 544 508 l 544 93 l 496 75 l 503 -1 l 669 3 l 850 -1 l 857 75 l 788 93 l 788 488 b 567 694 788 654 719 694 l 353 564 l 353 990 l 254 986 l 35 950 l 42 871 l 117 874 l 117 93 l 47 75 z "},"i":{"ha":451,"x_min":0,"x_max":0,"o":"m 176 768 l 326 779 l 347 865 l 336 969 l 286 979 l 135 969 l 115 882 l 125 779 z m 56 -1 l 236 3 l 417 -1 l 424 75 l 354 93 l 354 678 l 258 674 l 42 639 l 49 563 l 118 565 l 118 93 l 49 75 z "},"j":{"ha":439,"x_min":0,"x_max":0,"o":"m 192 768 l 342 779 l 363 865 l 351 969 l 301 979 l 150 969 l 131 882 l 140 779 z m -49 -326 l 78 -326 l 197 -218 b 361 106 257 -164 361 -67 l 361 678 l 265 674 l 49 639 l 56 563 l 125 565 l 125 78 b 113 -112 125 -26 119 -79 l 106 -143 l -49 -143 z "},"k":{"ha":864,"x_min":0,"x_max":0,"o":"m 61 -1 l 218 3 l 394 -1 l 401 75 l 360 93 l 360 368 l 386 300 l 593 -1 l 693 3 l 843 -1 l 857 75 l 803 93 l 574 374 l 518 404 l 747 581 l 833 599 l 825 675 l 683 671 l 522 675 l 522 599 l 619 581 l 399 407 l 360 386 l 360 990 l 261 986 l 42 950 l 49 871 l 124 874 l 124 93 l 54 75 z "},"l":{"ha":443,"x_min":0,"x_max":0,"o":"m 54 -1 l 235 3 l 415 -1 l 422 75 l 353 93 l 353 990 l 254 986 l 35 950 l 42 871 l 117 874 l 117 93 l 47 75 z "},"m":{"ha":1296,"x_min":0,"x_max":0,"o":"m 61 -1 l 224 3 l 396 -1 l 403 75 l 360 93 l 360 472 l 385 490 b 482 532 418 513 447 532 b 538 464 517 532 538 508 l 538 93 l 494 75 l 501 -1 l 651 3 l 817 -1 l 824 75 l 781 93 l 781 472 l 804 490 b 904 532 839 513 871 532 b 958 464 939 532 958 508 l 958 93 l 915 75 l 924 -1 l 1094 3 l 1265 -1 l 1272 75 l 1201 93 l 1201 489 b 974 694 1201 654 1131 694 l 774 564 b 546 694 753 667 681 694 l 356 565 l 347 678 l 249 674 l 42 636 l 49 557 l 124 560 l 124 93 l 54 75 z "},"n":{"ha":888,"x_min":0,"x_max":0,"o":"m 61 -1 l 242 3 l 401 -1 l 408 75 l 360 93 l 360 468 l 383 485 b 489 531 417 508 454 531 b 551 464 528 531 551 508 l 551 93 l 503 75 l 510 -1 l 676 3 l 857 -1 l 864 75 l 794 93 l 794 488 b 574 694 794 654 726 694 l 360 564 l 360 678 l 261 674 l 42 636 l 49 557 l 124 560 l 124 93 l 54 75 z "},"o":{"ha":772,"x_min":0,"x_max":0,"o":"m 347 -21 b 738 357 549 26 738 111 b 419 694 738 565 597 694 b 35 318 222 649 35 564 b 347 -21 35 110 174 -21 z m 396 69 b 285 401 343 69 285 163 b 368 604 285 561 322 604 b 478 274 421 604 478 513 b 396 69 478 114 442 69 z "},"p":{"ha":811,"x_min":0,"x_max":0,"o":"m 35 -321 l 211 -317 l 444 -321 l 451 -244 l 333 -229 l 333 -10 b 403 -21 357 -17 379 -21 b 783 393 669 17 783 158 b 519 694 783 576 635 694 l 333 563 l 321 675 l 228 671 l 21 636 l 28 560 l 97 563 l 97 -229 l 28 -244 z m 417 67 b 333 110 382 67 360 78 l 333 474 l 356 490 b 428 525 378 507 401 525 b 533 318 476 525 533 490 b 417 67 533 157 482 67 z "},"q":{"ha":804,"x_min":0,"x_max":0,"o":"m 381 -321 l 621 -317 l 790 -321 l 797 -244 l 728 -231 l 728 686 l 671 686 l 615 642 b 371 694 546 674 469 694 b 42 310 175 653 42 539 b 344 -21 42 114 158 -21 l 492 101 l 492 -231 l 374 -244 z m 404 146 b 290 360 336 146 290 231 b 419 588 290 501 340 588 b 492 554 454 588 475 572 l 492 185 l 469 171 b 404 146 451 160 428 146 z "},"r":{"ha":639,"x_min":0,"x_max":0,"o":"m 56 -1 l 242 3 l 500 -1 l 507 75 l 357 93 l 357 363 l 369 376 b 458 463 404 414 424 443 l 625 463 l 625 688 l 485 688 l 346 443 l 321 679 l 235 674 l 42 636 l 49 557 l 121 560 l 121 93 l 49 75 z "},"s":{"ha":642,"x_min":0,"x_max":0,"o":"m 304 -21 b 607 211 508 22 607 75 b 475 397 607 303 553 361 l 375 444 b 268 542 286 486 268 506 b 358 601 268 572 297 601 b 463 544 408 601 440 574 l 496 451 l 581 451 l 581 653 b 358 694 554 665 503 694 b 63 463 114 633 63 565 b 213 274 63 372 121 319 l 311 224 b 388 138 374 193 388 172 b 306 78 388 93 354 78 b 174 151 261 78 210 110 l 143 251 l 49 251 l 75 28 b 304 -21 157 -4 254 -21 z "},"t":{"ha":582,"x_min":0,"x_max":0,"o":"m 375 -21 l 575 83 l 542 156 b 431 121 494 129 465 121 b 363 208 390 121 363 157 l 363 558 l 535 558 l 535 642 l 361 642 l 361 854 l 279 854 l 126 743 l 126 644 l 64 644 l 7 583 l 7 558 l 126 558 l 126 219 b 375 -21 126 57 210 -21 z "},"u":{"ha":842,"x_min":0,"x_max":0,"o":"m 324 -21 l 513 107 l 554 -21 l 814 21 l 808 97 l 758 97 b 738 190 744 118 738 140 l 738 679 l 617 674 l 431 629 l 438 553 l 501 558 l 501 192 l 479 176 b 408 147 453 158 429 147 b 335 228 354 147 335 175 l 335 679 l 214 674 l 21 629 l 28 553 l 92 558 l 92 185 b 324 -21 92 19 163 -21 z "},"v":{"ha":789,"x_min":0,"x_max":0,"o":"m 318 -21 l 500 17 l 706 582 l 782 600 l 775 675 l 671 672 l 536 675 l 529 600 l 596 582 l 451 133 l 440 254 l 325 582 l 389 600 l 382 675 l 215 671 l 14 675 l 7 600 l 65 582 z "},"w":{"ha":1238,"x_min":0,"x_max":0,"o":"m 308 -21 l 485 17 l 633 426 l 642 326 l 782 -21 l 958 17 l 1157 582 l 1231 600 l 1224 675 l 1124 671 l 999 675 l 992 600 l 1056 582 l 911 131 l 900 254 l 789 582 l 850 600 l 843 675 l 682 671 l 488 675 l 481 600 l 538 582 l 571 500 l 438 131 l 426 254 l 315 582 l 376 600 l 369 675 l 208 671 l 14 675 l 7 600 l 64 582 z "},"x":{"ha":836,"x_min":0,"x_max":0,"o":"m 21 -1 l 125 3 l 289 -1 l 296 75 l 229 89 l 378 258 l 399 200 l 496 89 l 436 75 l 444 -1 l 679 3 l 821 -1 l 829 75 l 771 89 l 547 378 l 743 585 l 811 599 l 804 675 l 699 671 l 564 675 l 557 599 l 599 585 l 453 424 l 440 479 l 365 585 l 422 599 l 415 675 l 186 671 l 21 675 l 14 599 l 89 585 l 292 310 l 79 89 l 14 75 z "},"y":{"ha":810,"x_min":0,"x_max":0,"o":"m 124 -326 l 369 -326 l 531 43 l 726 582 l 803 597 l 796 675 l 678 671 l 543 675 l 536 597 l 603 582 l 469 121 l 449 254 l 325 585 l 389 599 l 382 675 l 215 671 l 14 675 l 7 599 l 65 585 l 288 10 l 456 65 l 315 -108 l 124 -108 z "},"z":{"ha":711,"x_min":0,"x_max":0,"o":"m 54 0 l 638 0 l 676 265 l 583 265 l 518 96 l 293 76 l 353 124 l 676 625 l 651 675 l 72 675 l 72 442 l 156 442 l 203 585 l 419 600 l 360 558 l 28 56 z "},"á":{"ha":760,"x_min":0,"x_max":0,"o":"m 326 776 l 435 776 l 590 986 l 382 986 z m 271 -21 l 428 93 l 474 -21 l 753 36 l 742 113 l 676 113 b 661 217 664 138 661 164 l 661 485 b 375 694 661 638 582 694 l 63 572 l 63 446 l 272 446 l 290 579 b 356 597 310 592 331 597 b 418 503 388 597 418 588 l 418 417 l 113 322 b 42 171 72 290 42 238 b 271 -21 42 54 138 -21 z m 339 111 b 276 204 311 111 276 140 b 310 306 276 239 288 283 l 418 349 l 418 147 l 397 133 b 339 111 381 122 361 111 z "},"ă":{"ha":760,"x_min":0,"x_max":0,"o":"m 401 781 b 599 935 506 813 561 861 l 544 976 b 381 894 518 946 464 894 b 217 976 297 894 243 946 l 163 935 b 401 781 200 853 285 781 z m 271 -21 l 428 93 l 474 -21 l 753 36 l 742 113 l 676 113 b 661 217 664 138 661 164 l 661 485 b 375 694 661 638 582 694 l 63 572 l 63 446 l 272 446 l 290 579 b 356 597 310 592 331 597 b 418 503 388 597 418 588 l 418 417 l 113 322 b 42 171 72 290 42 238 b 271 -21 42 54 138 -21 z m 339 111 b 276 204 311 111 276 140 b 310 306 276 239 288 283 l 418 349 l 418 147 l 397 133 b 339 111 381 122 361 111 z "},"â":{"ha":760,"x_min":0,"x_max":0,"o":"m 156 776 l 278 776 l 357 851 l 381 892 l 404 851 l 483 776 l 606 776 l 439 986 l 322 986 z m 271 -21 l 428 93 l 474 -21 l 753 36 l 742 113 l 676 113 b 661 217 664 138 661 164 l 661 485 b 375 694 661 638 582 694 l 63 572 l 63 446 l 272 446 l 290 579 b 356 597 310 592 331 597 b 418 503 388 597 418 588 l 418 417 l 113 322 b 42 171 72 290 42 238 b 271 -21 42 54 138 -21 z m 339 111 b 276 204 311 111 276 140 b 310 306 276 239 288 283 l 418 349 l 418 147 l 397 133 b 339 111 381 122 361 111 z "},"ä":{"ha":760,"x_min":0,"x_max":0,"o":"m 206 788 l 315 797 l 335 874 l 324 963 l 278 972 l 165 963 l 149 888 l 158 797 z m 483 788 l 594 797 l 613 874 l 603 963 l 556 972 l 444 963 l 426 888 l 438 797 z m 271 -21 l 428 93 l 474 -21 l 753 36 l 742 113 l 676 113 b 661 217 664 138 661 164 l 661 485 b 375 694 661 638 582 694 l 63 572 l 63 446 l 272 446 l 290 579 b 356 597 310 592 331 597 b 418 503 388 597 418 588 l 418 417 l 113 322 b 42 171 72 290 42 238 b 271 -21 42 54 138 -21 z m 339 111 b 276 204 311 111 276 140 b 310 306 276 239 288 283 l 418 349 l 418 147 l 397 133 b 339 111 381 122 361 111 z "},"æ":{"ha":1067,"x_min":0,"x_max":0,"o":"m 992 186 b 821 138 958 164 897 138 b 628 338 708 138 638 210 l 1028 338 l 1028 406 b 758 694 1028 551 957 694 b 608 635 699 678 650 658 b 361 694 563 679 481 694 l 69 572 l 69 449 l 268 449 l 286 579 b 367 596 308 588 339 596 b 418 501 399 596 418 586 l 418 415 l 113 322 b 42 171 72 290 42 238 b 271 -21 42 54 138 -21 l 476 115 b 774 -21 538 26 643 -21 b 1032 118 890 14 964 60 z m 738 589 b 824 431 799 589 824 540 l 628 418 b 738 589 636 519 669 589 z m 417 260 l 417 160 l 396 146 b 338 124 379 135 356 124 b 276 204 306 124 276 150 b 310 293 276 236 289 272 l 417 335 z "},"ǽ":{"ha":1067,"x_min":0,"x_max":0,"o":"m 743 986 l 535 986 l 479 776 l 588 776 z m 992 186 b 821 138 958 164 897 138 b 628 338 708 138 638 210 l 1028 338 l 1028 406 b 758 694 1028 551 957 694 b 608 635 699 678 650 658 b 361 694 563 679 481 694 l 69 572 l 69 449 l 268 449 l 286 579 b 367 596 308 588 339 596 b 418 501 399 596 418 586 l 418 415 l 113 322 b 42 171 72 290 42 238 b 271 -21 42 54 138 -21 l 476 115 b 774 -21 538 26 643 -21 b 1032 118 890 14 964 60 z m 738 589 b 824 431 799 589 824 540 l 628 418 b 738 589 636 519 669 589 z m 417 260 l 417 160 l 396 146 b 338 124 379 135 356 124 b 276 204 306 124 276 150 b 310 293 276 236 289 272 l 417 335 z "},"à":{"ha":760,"x_min":0,"x_max":0,"o":"m 326 776 l 435 776 l 379 986 l 171 986 z m 271 -21 l 428 93 l 474 -21 l 753 36 l 742 113 l 676 113 b 661 217 664 138 661 164 l 661 485 b 375 694 661 638 582 694 l 63 572 l 63 446 l 272 446 l 290 579 b 356 597 310 592 331 597 b 418 503 388 597 418 588 l 418 417 l 113 322 b 42 171 72 290 42 238 b 271 -21 42 54 138 -21 z m 339 111 b 276 204 311 111 276 140 b 310 306 276 239 288 283 l 418 349 l 418 147 l 397 133 b 339 111 381 122 361 111 z "},"ā":{"ha":760,"x_min":0,"x_max":0,"o":"m 172 819 l 589 819 l 589 931 l 172 931 z m 271 -21 l 428 93 l 474 -21 l 753 36 l 742 113 l 676 113 b 661 217 664 138 661 164 l 661 485 b 375 694 661 638 582 694 l 63 572 l 63 446 l 272 446 l 290 579 b 356 597 310 592 331 597 b 418 503 388 597 418 588 l 418 417 l 113 322 b 42 171 72 290 42 238 b 271 -21 42 54 138 -21 z m 339 111 b 276 204 311 111 276 140 b 310 306 276 239 288 283 l 418 349 l 418 147 l 397 133 b 339 111 381 122 361 111 z "},"ą":{"ha":760,"x_min":0,"x_max":0,"o":"m 514 -185 l 514 -139 l 557 -4 l 753 36 l 742 113 l 676 113 b 661 217 664 138 661 164 l 661 485 b 375 694 661 638 582 694 l 63 572 l 63 446 l 272 446 l 290 579 b 356 597 310 592 331 597 b 418 503 388 597 418 588 l 418 417 l 113 322 b 42 171 72 290 42 238 b 271 -21 42 54 138 -21 l 428 93 l 463 7 l 358 -104 l 358 -207 b 657 -340 358 -296 438 -340 l 657 -275 b 514 -185 514 -275 514 -218 z m 418 147 l 397 133 b 339 111 381 122 361 111 b 276 204 311 111 276 140 b 310 306 276 239 288 283 l 418 349 z "},"å":{"ha":760,"x_min":0,"x_max":0,"o":"m 385 764 b 551 917 476 800 551 804 b 381 1075 551 1038 476 1075 b 210 917 293 1050 210 1019 b 385 764 210 800 300 764 z m 382 838 b 299 917 335 838 299 869 b 382 1001 299 963 335 1001 b 465 917 429 1001 465 963 b 382 838 465 869 429 838 z m 271 -21 l 428 93 l 474 -21 l 753 36 l 742 113 l 676 113 b 661 217 664 138 661 164 l 661 485 b 375 694 661 638 582 694 l 63 572 l 63 446 l 272 446 l 290 579 b 356 597 310 592 331 597 b 418 503 388 597 418 588 l 418 417 l 113 322 b 42 171 72 290 42 238 b 271 -21 42 54 138 -21 z m 339 111 b 276 204 311 111 276 140 b 310 306 276 239 288 283 l 418 349 l 418 147 l 397 133 b 339 111 381 122 361 111 z "},"ã":{"ha":760,"x_min":0,"x_max":0,"o":"m 479 794 l 582 818 l 625 983 l 572 983 l 532 914 l 281 986 l 176 956 l 136 797 l 189 797 l 228 867 z m 271 -21 l 428 93 l 474 -21 l 753 36 l 742 113 l 676 113 b 661 217 664 138 661 164 l 661 485 b 375 694 661 638 582 694 l 63 572 l 63 446 l 272 446 l 290 579 b 356 597 310 592 331 597 b 418 503 388 597 418 588 l 418 417 l 113 322 b 42 171 72 290 42 238 b 271 -21 42 54 138 -21 z m 339 111 b 276 204 311 111 276 140 b 310 306 276 239 288 283 l 418 349 l 418 147 l 397 133 b 339 111 381 122 361 111 z "},"ć":{"ha":693,"x_min":0,"x_max":0,"o":"m 342 776 l 450 776 l 606 986 l 397 986 z m 388 -21 b 658 118 508 14 589 60 l 614 189 b 486 144 586 168 539 144 b 285 386 364 144 285 251 b 383 596 285 525 333 596 b 414 585 397 596 404 593 l 442 421 l 642 421 l 642 624 b 406 694 590 668 514 694 b 35 313 197 636 35 524 b 388 -21 35 117 179 -21 z "},"č":{"ha":693,"x_min":0,"x_max":0,"o":"m 331 776 l 461 776 l 621 986 l 499 986 l 419 903 l 396 863 l 372 903 l 293 986 l 171 986 z m 388 -21 b 658 118 508 14 589 60 l 614 189 b 486 144 586 168 539 144 b 285 386 364 144 285 251 b 383 596 285 525 333 596 b 414 585 397 596 404 593 l 442 421 l 642 421 l 642 624 b 406 694 590 668 514 694 b 35 313 197 636 35 524 b 388 -21 35 117 179 -21 z "},"ç":{"ha":693,"x_min":0,"x_max":0,"o":"m 351 -65 l 381 -21 l 388 -21 b 658 118 508 14 589 60 l 614 189 b 486 144 586 168 539 144 b 285 386 364 144 285 251 b 383 596 285 525 333 596 b 414 585 397 596 404 593 l 442 421 l 642 421 l 642 624 b 406 694 590 668 514 694 b 35 313 197 636 35 524 b 304 -12 35 144 142 18 l 232 -111 b 315 -187 271 -111 315 -131 b 281 -271 315 -218 304 -253 l 192 -271 l 151 -340 l 239 -340 l 310 -312 b 464 -153 374 -287 464 -247 b 351 -65 464 -96 422 -65 z "},"ĉ":{"ha":693,"x_min":0,"x_max":0,"o":"m 171 776 l 293 776 l 372 851 l 396 892 l 419 851 l 499 776 l 621 776 l 454 986 l 338 986 z m 388 -21 b 658 118 508 14 589 60 l 614 189 b 486 144 586 168 539 144 b 285 386 364 144 285 251 b 383 596 285 525 333 596 b 414 585 397 596 404 593 l 442 421 l 642 421 l 642 624 b 406 694 590 668 514 694 b 35 313 197 636 35 524 b 388 -21 35 117 179 -21 z "},"ċ":{"ha":693,"x_min":0,"x_max":0,"o":"m 385 782 l 475 792 l 494 875 l 485 974 l 408 983 l 311 976 l 293 892 l 303 792 z m 388 -21 b 658 118 508 14 589 60 l 614 189 b 486 144 586 168 539 144 b 285 386 364 144 285 251 b 383 596 285 525 333 596 b 414 585 397 596 404 593 l 442 421 l 642 421 l 642 624 b 406 694 590 668 514 694 b 35 313 197 636 35 524 b 388 -21 35 117 179 -21 z "},"ď":{"ha":992,"x_min":0,"x_max":0,"o":"m 339 -21 l 500 103 l 544 -21 l 804 21 l 799 97 l 749 97 b 728 185 735 118 728 128 l 728 992 l 610 986 l 415 943 l 422 867 l 492 869 l 492 658 b 369 694 469 674 399 694 b 42 313 178 651 42 544 b 339 -21 42 115 157 -21 z m 882 529 l 997 764 l 1010 863 l 997 974 l 943 986 l 789 974 l 779 876 l 789 764 l 869 756 b 807 560 868 719 832 608 z m 400 149 b 292 350 339 149 292 219 b 413 583 292 497 336 583 b 492 547 447 583 476 565 l 492 188 l 471 172 b 400 149 456 161 433 149 z "},"đ":{"ha":825,"x_min":0,"x_max":0,"o":"m 808 753 l 808 822 l 728 822 l 728 992 l 610 986 l 415 943 l 422 867 l 492 869 l 492 822 l 343 822 l 343 753 l 492 753 l 492 658 b 369 694 469 674 399 694 b 42 313 178 651 42 544 b 339 -21 42 115 157 -21 l 500 103 l 544 -21 l 804 21 l 799 97 l 749 97 b 728 185 735 118 728 128 l 728 753 z m 492 188 l 471 172 b 400 149 456 161 433 149 b 292 350 339 149 292 219 b 413 583 292 497 336 583 b 492 547 447 583 476 565 z "},"é":{"ha":700,"x_min":0,"x_max":0,"o":"m 589 986 l 381 986 l 325 776 l 433 776 z m 665 425 b 382 694 665 571 582 694 b 35 308 83 611 35 450 b 383 -21 35 117 178 -21 b 663 129 510 21 582 54 l 625 197 b 451 144 593 175 524 144 b 275 338 350 144 286 232 l 665 338 z m 274 411 b 361 596 279 538 306 596 b 438 424 418 596 438 529 z "},"ĕ":{"ha":700,"x_min":0,"x_max":0,"o":"m 400 781 b 597 935 504 813 560 861 l 543 976 b 379 894 517 946 463 894 b 215 976 296 894 242 946 l 161 935 b 400 781 199 853 283 781 z m 665 425 b 382 694 665 571 582 694 b 35 308 83 611 35 450 b 383 -21 35 117 178 -21 b 663 129 510 21 582 54 l 625 197 b 451 144 593 175 524 144 b 275 338 350 144 286 232 l 665 338 z m 274 411 b 361 596 279 538 306 596 b 438 424 418 596 438 529 z "},"ě":{"ha":700,"x_min":0,"x_max":0,"o":"m 444 776 l 604 986 l 482 986 l 403 903 l 379 863 l 356 903 l 276 986 l 154 986 l 314 776 z m 665 425 b 382 694 665 571 582 694 b 35 308 83 611 35 450 b 383 -21 35 117 178 -21 b 663 129 510 21 582 54 l 625 197 b 451 144 593 175 524 144 b 275 338 350 144 286 232 l 665 338 z m 274 411 b 361 596 279 538 306 596 b 438 424 418 596 438 529 z "},"ê":{"ha":700,"x_min":0,"x_max":0,"o":"m 356 851 l 379 892 l 403 851 l 482 776 l 604 776 l 438 986 l 321 986 l 154 776 l 276 776 z m 665 425 b 382 694 665 571 582 694 b 35 308 83 611 35 450 b 383 -21 35 117 178 -21 b 663 129 510 21 582 54 l 625 197 b 451 144 593 175 524 144 b 275 338 350 144 286 232 l 665 338 z m 274 411 b 361 596 279 538 306 596 b 438 424 418 596 438 529 z "},"ë":{"ha":700,"x_min":0,"x_max":0,"o":"m 204 788 l 314 797 l 333 874 l 322 963 l 276 972 l 164 963 l 147 888 l 157 797 z m 482 788 l 593 797 l 611 874 l 601 963 l 554 972 l 443 963 l 425 888 l 436 797 z m 665 425 b 382 694 665 571 582 694 b 35 308 83 611 35 450 b 383 -21 35 117 178 -21 b 663 129 510 21 582 54 l 625 197 b 451 144 593 175 524 144 b 275 338 350 144 286 232 l 665 338 z m 274 411 b 361 596 279 538 306 596 b 438 424 418 596 438 529 z "},"ė":{"ha":700,"x_min":0,"x_max":0,"o":"m 368 782 l 458 792 l 478 875 l 468 974 l 392 983 l 294 976 l 276 892 l 286 792 z m 665 425 b 382 694 665 571 582 694 b 35 308 83 611 35 450 b 383 -21 35 117 178 -21 b 663 129 510 21 582 54 l 625 197 b 451 144 593 175 524 144 b 275 338 350 144 286 232 l 665 338 z m 274 411 b 361 596 279 538 306 596 b 438 424 418 596 438 529 z "},"è":{"ha":700,"x_min":0,"x_max":0,"o":"m 433 776 l 378 986 l 169 986 l 325 776 z m 665 425 b 382 694 665 571 582 694 b 35 308 83 611 35 450 b 383 -21 35 117 178 -21 b 663 129 510 21 582 54 l 625 197 b 451 144 593 175 524 144 b 275 338 350 144 286 232 l 665 338 z m 274 411 b 361 596 279 538 306 596 b 438 424 418 596 438 529 z "},"ē":{"ha":700,"x_min":0,"x_max":0,"o":"m 588 931 l 171 931 l 171 819 l 588 819 z m 665 425 b 382 694 665 571 582 694 b 35 308 83 611 35 450 b 383 -21 35 117 178 -21 b 663 129 510 21 582 54 l 625 197 b 451 144 593 175 524 144 b 275 338 350 144 286 232 l 665 338 z m 274 411 b 361 596 279 538 306 596 b 438 424 418 596 438 529 z "},"ę":{"ha":700,"x_min":0,"x_max":0,"o":"m 665 425 b 382 694 665 571 582 694 b 35 308 83 611 35 450 b 383 -21 35 117 178 -21 l 306 -104 l 306 -207 b 604 -340 306 -296 385 -340 l 604 -275 b 461 -185 461 -275 461 -218 l 461 -139 l 515 29 b 663 129 569 54 615 85 l 625 197 b 451 144 593 175 524 144 b 275 338 350 144 286 232 l 665 338 z m 274 411 b 361 596 279 538 306 596 b 438 424 418 596 438 529 z "},"ğ":{"ha":804,"x_min":0,"x_max":0,"o":"m 424 781 b 621 935 528 813 583 861 l 567 976 b 403 894 540 946 486 894 b 239 976 319 894 265 946 l 185 935 b 424 781 222 853 307 781 z m 349 -340 b 756 -36 576 -262 756 -185 b 560 133 756 61 676 133 l 303 133 b 224 182 254 133 224 144 l 250 221 b 343 208 276 211 313 208 b 664 465 543 263 661 315 b 657 515 664 482 661 499 l 669 528 l 797 528 l 797 694 l 694 694 l 639 561 b 378 694 593 638 533 694 b 54 450 179 646 56 593 b 199 239 54 360 108 281 l 46 154 l 46 113 b 193 -50 46 38 97 -31 l 21 -142 l 21 -178 b 349 -340 21 -301 181 -340 z m 367 290 b 268 469 307 290 268 350 b 350 611 268 547 293 611 b 447 432 408 611 447 550 b 367 290 447 353 424 290 z m 396 -222 b 228 -117 261 -222 228 -169 b 261 -54 228 -94 240 -68 l 471 -54 b 554 -128 528 -54 554 -87 b 396 -222 554 -167 515 -222 z "},"ĝ":{"ha":804,"x_min":0,"x_max":0,"o":"m 178 776 l 300 776 l 379 851 l 403 892 l 426 851 l 506 776 l 628 776 l 461 986 l 344 986 z m 349 -340 b 756 -36 576 -262 756 -185 b 560 133 756 61 676 133 l 303 133 b 224 182 254 133 224 144 l 250 221 b 343 208 276 211 313 208 b 664 465 543 263 661 315 b 657 515 664 482 661 499 l 669 528 l 797 528 l 797 694 l 694 694 l 639 561 b 378 694 593 638 533 694 b 54 450 179 646 56 593 b 199 239 54 360 108 281 l 46 154 l 46 113 b 193 -50 46 38 97 -31 l 21 -142 l 21 -178 b 349 -340 21 -301 181 -340 z m 367 290 b 268 469 307 290 268 350 b 350 611 268 547 293 611 b 447 432 408 611 447 550 b 367 290 447 353 424 290 z m 396 -222 b 228 -117 261 -222 228 -169 b 261 -54 228 -94 240 -68 l 471 -54 b 554 -128 528 -54 554 -87 b 396 -222 554 -167 515 -222 z "},"ģ":{"ha":804,"x_min":0,"x_max":0,"o":"m 306 776 l 500 776 l 500 832 l 468 881 l 500 988 l 421 1001 l 306 888 z m 349 -340 b 756 -36 576 -262 756 -185 b 560 133 756 61 676 133 l 303 133 b 224 182 254 133 224 144 l 250 221 b 343 208 276 211 313 208 b 664 465 543 263 661 315 b 657 515 664 482 661 499 l 669 528 l 797 528 l 797 694 l 694 694 l 639 561 b 378 694 593 638 533 694 b 54 450 179 646 56 593 b 199 239 54 360 108 281 l 46 154 l 46 113 b 193 -50 46 38 97 -31 l 21 -142 l 21 -178 b 349 -340 21 -301 181 -340 z m 367 290 b 268 469 307 290 268 350 b 350 611 268 547 293 611 b 447 432 408 611 447 550 b 367 290 447 353 424 290 z m 396 -222 b 228 -117 261 -222 228 -169 b 261 -54 228 -94 240 -68 l 471 -54 b 554 -128 528 -54 554 -87 b 396 -222 554 -167 515 -222 z "},"ġ":{"ha":804,"x_min":0,"x_max":0,"o":"m 392 782 l 482 792 l 501 875 l 492 974 l 415 983 l 318 976 l 300 892 l 310 792 z m 349 -340 b 756 -36 576 -262 756 -185 b 560 133 756 61 676 133 l 303 133 b 224 182 254 133 224 144 l 250 221 b 343 208 276 211 313 208 b 664 465 543 263 661 315 b 657 515 664 482 661 499 l 669 528 l 797 528 l 797 694 l 694 694 l 639 561 b 378 694 593 638 533 694 b 54 450 179 646 56 593 b 199 239 54 360 108 281 l 46 154 l 46 113 b 193 -50 46 38 97 -31 l 21 -142 l 21 -178 b 349 -340 21 -301 181 -340 z m 367 290 b 268 469 307 290 268 350 b 350 611 268 547 293 611 b 447 432 408 611 447 550 b 367 290 447 353 424 290 z m 396 -222 b 228 -117 261 -222 228 -169 b 261 -54 228 -94 240 -68 l 471 -54 b 554 -128 528 -54 554 -87 b 396 -222 554 -167 515 -222 z "},"ħ":{"ha":881,"x_min":0,"x_max":0,"o":"m 788 93 l 788 488 b 567 694 788 654 719 694 l 353 564 l 353 746 l 463 746 l 463 815 l 353 815 l 353 990 l 254 986 l 35 950 l 42 871 l 117 874 l 117 815 l 39 815 l 39 746 l 117 746 l 117 93 l 47 75 l 54 -1 l 235 3 l 394 -1 l 401 75 l 353 93 l 353 468 l 376 485 b 482 531 411 508 447 531 b 544 464 521 531 544 508 l 544 93 l 496 75 l 503 -1 l 669 3 l 850 -1 l 857 75 z "},"ĥ":{"ha":881,"x_min":0,"x_max":0,"o":"m -15 1071 l 121 1071 l 194 1135 l 224 1174 l 253 1135 l 326 1071 l 463 1071 l 296 1263 l 151 1263 z m 54 -1 l 235 3 l 394 -1 l 401 75 l 353 93 l 353 468 l 376 485 b 482 531 411 508 447 531 b 544 464 521 531 544 508 l 544 93 l 496 75 l 503 -1 l 669 3 l 850 -1 l 857 75 l 788 93 l 788 488 b 567 694 788 654 719 694 l 353 564 l 353 990 l 254 986 l 35 950 l 42 871 l 117 874 l 117 93 l 47 75 z "},"í":{"ha":451,"x_min":0,"x_max":0,"o":"m 178 776 l 286 776 l 442 986 l 233 986 z m 56 -1 l 236 3 l 417 -1 l 424 75 l 354 93 l 354 678 l 258 674 l 42 639 l 49 563 l 118 565 l 118 93 l 49 75 z "},"ĭ":{"ha":451,"x_min":0,"x_max":0,"o":"m 253 781 b 450 935 357 813 413 861 l 396 976 b 232 894 369 946 315 894 b 68 976 149 894 94 946 l 14 935 b 253 781 51 853 136 781 z m 56 -1 l 236 3 l 417 -1 l 424 75 l 354 93 l 354 678 l 258 674 l 42 639 l 49 563 l 118 565 l 118 93 l 49 75 z "},"î":{"ha":451,"x_min":0,"x_max":0,"o":"m 7 776 l 129 776 l 208 851 l 232 892 l 256 851 l 335 776 l 457 776 l 290 986 l 174 986 z m 56 -1 l 236 3 l 417 -1 l 424 75 l 354 93 l 354 678 l 258 674 l 42 639 l 49 563 l 118 565 l 118 93 l 49 75 z "},"ï":{"ha":451,"x_min":0,"x_max":0,"o":"m 57 788 l 167 797 l 186 874 l 175 963 l 129 972 l 17 963 l 0 888 l 10 797 z m 335 788 l 446 797 l 464 874 l 454 963 l 407 972 l 296 963 l 278 888 l 289 797 z m 56 -1 l 236 3 l 417 -1 l 424 75 l 354 93 l 354 678 l 258 674 l 42 639 l 49 563 l 118 565 l 118 93 l 49 75 z "},"ı":{"ha":451,"x_min":0,"x_max":0,"o":"m 56 -1 l 236 3 l 417 -1 l 424 75 l 354 93 l 354 678 l 258 674 l 42 639 l 49 563 l 118 565 l 118 93 l 49 75 z "},"ì":{"ha":451,"x_min":0,"x_max":0,"o":"m 178 776 l 286 776 l 231 986 l 22 986 z m 56 -1 l 236 3 l 417 -1 l 424 75 l 354 93 l 354 678 l 258 674 l 42 639 l 49 563 l 118 565 l 118 93 l 49 75 z "},"ĳ":{"ha":890,"x_min":0,"x_max":0,"o":"m 176 768 l 326 779 l 347 865 l 336 969 l 286 979 l 135 969 l 115 882 l 125 779 z m 643 768 l 793 779 l 814 865 l 803 969 l 753 979 l 601 969 l 582 882 l 592 779 z m 56 -1 l 236 3 l 417 -1 l 424 75 l 354 93 l 354 678 l 258 674 l 42 639 l 49 563 l 118 565 l 118 93 l 49 75 z m 403 -326 l 529 -326 l 649 -218 b 813 106 708 -164 813 -67 l 813 678 l 717 674 l 500 639 l 507 563 l 576 565 l 576 78 b 564 -112 576 -26 571 -79 l 557 -143 l 403 -143 z "},"ī":{"ha":451,"x_min":0,"x_max":0,"o":"m 24 819 l 440 819 l 440 931 l 24 931 z m 56 -1 l 236 3 l 417 -1 l 424 75 l 354 93 l 354 678 l 258 674 l 42 639 l 49 563 l 118 565 l 118 93 l 49 75 z "},"į":{"ha":451,"x_min":0,"x_max":0,"o":"m 176 768 l 326 779 l 347 865 l 336 969 l 286 979 l 135 969 l 115 882 l 125 779 z m 285 1 l 417 -1 l 424 75 l 354 93 l 354 678 l 258 674 l 42 639 l 49 563 l 118 565 l 118 93 l 49 75 l 56 -1 l 183 1 l 85 -104 l 85 -207 b 383 -340 85 -296 164 -340 l 383 -275 b 240 -185 240 -275 240 -218 l 240 -139 z "},"ĩ":{"ha":451,"x_min":0,"x_max":0,"o":"m 331 794 l 433 818 l 476 983 l 424 983 l 383 914 l 132 986 l 28 956 l -12 797 l 40 797 l 79 867 z m 56 -1 l 236 3 l 417 -1 l 424 75 l 354 93 l 354 678 l 258 674 l 42 639 l 49 563 l 118 565 l 118 93 l 49 75 z "},"ĵ":{"ha":439,"x_min":0,"x_max":0,"o":"m 22 776 l 144 776 l 224 851 l 247 892 l 271 851 l 350 776 l 472 776 l 306 986 l 189 986 z m -49 -326 l 78 -326 l 197 -218 b 361 106 257 -164 361 -67 l 361 678 l 265 674 l 49 639 l 56 563 l 125 565 l 125 78 b 113 -112 125 -26 119 -79 l 106 -143 l -49 -143 z "},"ķ":{"ha":864,"x_min":0,"x_max":0,"o":"m 61 -1 l 218 3 l 394 -1 l 401 75 l 360 93 l 360 368 l 386 300 l 593 -1 l 693 3 l 843 -1 l 857 75 l 803 93 l 574 374 l 518 404 l 747 581 l 833 599 l 825 675 l 683 671 l 522 675 l 522 599 l 619 581 l 399 407 l 360 386 l 360 990 l 261 986 l 42 950 l 49 871 l 124 874 l 124 93 l 54 75 z m 414 -340 l 529 -181 l 529 -69 l 335 -69 l 335 -125 l 367 -174 l 335 -326 z "},"ĸ":{"ha":864,"x_min":0,"x_max":0,"o":"m 61 -1 l 218 3 l 394 -1 l 401 75 l 360 93 l 360 368 l 386 300 l 593 -1 l 693 3 l 843 -1 l 857 75 l 803 93 l 574 374 l 518 404 l 747 581 l 833 599 l 825 675 l 683 671 l 522 675 l 522 599 l 619 581 l 399 407 l 360 386 l 360 676 l 261 672 l 42 636 l 49 557 l 124 560 l 124 93 l 54 75 z "},"ĺ":{"ha":443,"x_min":0,"x_max":0,"o":"m 153 1071 l 275 1071 l 431 1263 l 208 1263 z m 54 -1 l 235 3 l 415 -1 l 422 75 l 353 93 l 353 990 l 254 986 l 35 950 l 42 871 l 117 874 l 117 93 l 47 75 z "},"ľ":{"ha":618,"x_min":0,"x_max":0,"o":"m 54 -1 l 235 3 l 415 -1 l 422 75 l 353 93 l 353 990 l 254 986 l 35 950 l 42 871 l 117 874 l 117 93 l 47 75 z m 500 529 l 615 764 l 628 863 l 615 974 l 561 986 l 407 974 l 397 876 l 407 764 l 488 756 b 425 560 486 719 450 608 z "},"ļ":{"ha":443,"x_min":0,"x_max":0,"o":"m 54 -1 l 235 3 l 415 -1 l 422 75 l 353 93 l 353 990 l 254 986 l 35 950 l 42 871 l 117 874 l 117 93 l 47 75 z m 204 -340 l 319 -181 l 319 -69 l 125 -69 l 125 -125 l 157 -174 l 125 -326 z "},"ŀ":{"ha":631,"x_min":0,"x_max":0,"o":"m 54 -1 l 235 3 l 415 -1 l 422 75 l 353 93 l 353 990 l 254 986 l 35 950 l 42 871 l 117 874 l 117 93 l 47 75 z m 468 451 l 608 461 l 621 553 l 608 656 l 554 668 l 414 656 l 404 567 l 414 461 z "},"ł":{"ha":443,"x_min":0,"x_max":0,"o":"m 461 589 l 461 700 l 353 646 l 353 990 l 254 986 l 35 950 l 42 871 l 117 874 l 117 529 l 3 472 l 3 361 l 117 418 l 117 93 l 47 75 l 54 -1 l 235 3 l 415 -1 l 422 75 l 353 93 l 353 535 z "},"ń":{"ha":888,"x_min":0,"x_max":0,"o":"m 390 776 l 499 776 l 654 986 l 446 986 z m 61 -1 l 242 3 l 401 -1 l 408 75 l 360 93 l 360 468 l 383 485 b 489 531 417 508 454 531 b 551 464 528 531 551 508 l 551 93 l 503 75 l 510 -1 l 676 3 l 857 -1 l 864 75 l 794 93 l 794 488 b 574 694 794 654 726 694 l 360 564 l 360 678 l 261 674 l 42 636 l 49 557 l 124 560 l 124 93 l 54 75 z "},"ŉ":{"ha":888,"x_min":0,"x_max":0,"o":"m 124 736 l 267 861 l 267 986 l 72 986 l 72 917 l 104 868 l 44 750 z m 61 -1 l 242 3 l 401 -1 l 408 75 l 360 93 l 360 468 l 383 485 b 489 531 417 508 454 531 b 551 464 528 531 551 508 l 551 93 l 503 75 l 510 -1 l 676 3 l 857 -1 l 864 75 l 794 93 l 794 488 b 574 694 794 654 726 694 l 360 564 l 360 678 l 261 674 l 42 636 l 49 557 l 124 560 l 124 93 l 54 75 z "},"ň":{"ha":888,"x_min":0,"x_max":0,"o":"m 379 776 l 510 776 l 669 986 l 547 986 l 468 903 l 444 863 l 421 903 l 342 986 l 219 986 z m 61 -1 l 242 3 l 401 -1 l 408 75 l 360 93 l 360 468 l 383 485 b 489 531 417 508 454 531 b 551 464 528 531 551 508 l 551 93 l 503 75 l 510 -1 l 676 3 l 857 -1 l 864 75 l 794 93 l 794 488 b 574 694 794 654 726 694 l 360 564 l 360 678 l 261 674 l 42 636 l 49 557 l 124 560 l 124 93 l 54 75 z "},"ņ":{"ha":888,"x_min":0,"x_max":0,"o":"m 61 -1 l 242 3 l 401 -1 l 408 75 l 360 93 l 360 468 l 383 485 b 489 531 417 508 454 531 b 551 464 528 531 551 508 l 551 93 l 503 75 l 510 -1 l 676 3 l 857 -1 l 864 75 l 794 93 l 794 488 b 574 694 794 654 726 694 l 360 564 l 360 678 l 261 674 l 42 636 l 49 557 l 124 560 l 124 93 l 54 75 z m 426 -340 l 542 -181 l 542 -69 l 347 -69 l 347 -125 l 379 -174 l 347 -326 z "},"ñ":{"ha":888,"x_min":0,"x_max":0,"o":"m 543 794 l 646 818 l 689 983 l 636 983 l 596 914 l 344 986 l 240 956 l 200 797 l 253 797 l 292 867 z m 61 -1 l 242 3 l 401 -1 l 408 75 l 360 93 l 360 468 l 383 485 b 489 531 417 508 454 531 b 551 464 528 531 551 508 l 551 93 l 503 75 l 510 -1 l 676 3 l 857 -1 l 864 75 l 794 93 l 794 488 b 574 694 794 654 726 694 l 360 564 l 360 678 l 261 674 l 42 636 l 49 557 l 124 560 l 124 93 l 54 75 z "},"ŋ":{"ha":878,"x_min":0,"x_max":0,"o":"m 378 -326 l 511 -326 l 631 -218 b 794 106 690 -164 794 -67 l 794 488 b 574 694 794 654 726 694 l 360 564 l 360 678 l 261 674 l 42 636 l 49 557 l 124 560 l 124 93 l 54 75 l 61 -1 l 242 3 l 401 -1 l 408 75 l 360 93 l 360 468 l 383 483 b 489 531 418 506 454 531 b 551 464 528 531 551 508 l 551 78 b 539 -112 551 -26 546 -79 l 532 -143 l 378 -143 z "},"ó":{"ha":772,"x_min":0,"x_max":0,"o":"m 343 776 l 451 776 l 607 986 l 399 986 z m 347 -21 b 738 357 549 26 738 111 b 419 694 738 565 597 694 b 35 318 222 649 35 564 b 347 -21 35 110 174 -21 z m 396 69 b 285 401 343 69 285 163 b 368 604 285 561 322 604 b 478 274 421 604 478 513 b 396 69 478 114 442 69 z "},"ŏ":{"ha":772,"x_min":0,"x_max":0,"o":"m 418 781 b 615 935 522 813 578 861 l 561 976 b 397 894 535 946 481 894 b 233 976 314 894 260 946 l 179 935 b 418 781 217 853 301 781 z m 347 -21 b 738 357 549 26 738 111 b 419 694 738 565 597 694 b 35 318 222 649 35 564 b 347 -21 35 110 174 -21 z m 396 69 b 285 401 343 69 285 163 b 368 604 285 561 322 604 b 478 274 421 604 478 513 b 396 69 478 114 442 69 z "},"ô":{"ha":772,"x_min":0,"x_max":0,"o":"m 172 776 l 294 776 l 374 851 l 397 892 l 421 851 l 500 776 l 622 776 l 456 986 l 339 986 z m 347 -21 b 738 357 549 26 738 111 b 419 694 738 565 597 694 b 35 318 222 649 35 564 b 347 -21 35 110 174 -21 z m 396 69 b 285 401 343 69 285 163 b 368 604 285 561 322 604 b 478 274 421 604 478 513 b 396 69 478 114 442 69 z "},"ö":{"ha":772,"x_min":0,"x_max":0,"o":"m 222 788 l 332 797 l 351 874 l 340 963 l 294 972 l 182 963 l 165 888 l 175 797 z m 500 788 l 611 797 l 629 874 l 619 963 l 572 972 l 461 963 l 443 888 l 454 797 z m 347 -21 b 738 357 549 26 738 111 b 419 694 738 565 597 694 b 35 318 222 649 35 564 b 347 -21 35 110 174 -21 z m 396 69 b 285 401 343 69 285 163 b 368 604 285 561 322 604 b 478 274 421 604 478 513 b 396 69 478 114 442 69 z "},"œ":{"ha":1151,"x_min":0,"x_max":0,"o":"m 1076 186 b 906 138 1043 164 982 138 b 713 338 793 138 722 206 l 1113 338 l 1113 406 b 843 694 1113 551 1042 694 b 640 599 756 671 690 638 b 419 694 585 661 507 694 b 35 332 222 664 35 569 b 347 -21 35 115 174 -21 b 599 72 439 -6 529 22 b 858 -21 661 11 751 -21 b 1117 118 975 14 1049 60 z m 396 69 b 281 401 340 69 281 163 b 368 604 281 561 318 604 b 482 274 424 604 482 513 b 396 69 482 114 446 69 z m 822 589 b 908 431 883 589 908 540 l 713 418 b 822 589 719 522 753 589 z "},"ò":{"ha":772,"x_min":0,"x_max":0,"o":"m 343 776 l 451 776 l 396 986 l 188 986 z m 347 -21 b 738 357 549 26 738 111 b 419 694 738 565 597 694 b 35 318 222 649 35 564 b 347 -21 35 110 174 -21 z m 396 69 b 285 401 343 69 285 163 b 368 604 285 561 322 604 b 478 274 421 604 478 513 b 396 69 478 114 442 69 z "},"ő":{"ha":772,"x_min":0,"x_max":0,"o":"m 210 776 l 318 776 l 474 986 l 265 986 z m 475 776 l 583 776 l 739 986 l 531 986 z m 347 -21 b 738 357 549 26 738 111 b 419 694 738 565 597 694 b 35 318 222 649 35 564 b 347 -21 35 110 174 -21 z m 396 69 b 285 401 343 69 285 163 b 368 604 285 561 322 604 b 478 274 421 604 478 513 b 396 69 478 114 442 69 z "},"ō":{"ha":772,"x_min":0,"x_max":0,"o":"m 189 819 l 606 819 l 606 931 l 189 931 z m 347 -21 b 738 357 549 26 738 111 b 419 694 738 565 597 694 b 35 318 222 649 35 564 b 347 -21 35 110 174 -21 z m 396 69 b 285 401 343 69 285 163 b 368 604 285 561 322 604 b 478 274 421 604 478 513 b 396 69 478 114 442 69 z "},"ª":{"ha":669,"x_min":0,"x_max":0,"o":"m 249 435 l 378 524 l 415 435 l 636 479 l 626 539 l 574 539 b 560 621 563 558 560 579 l 560 829 b 331 993 560 949 497 993 l 79 897 l 79 799 l 244 799 l 260 903 b 317 917 276 913 296 917 b 369 844 347 917 369 910 l 369 776 l 118 703 b 63 585 86 678 63 638 b 249 435 63 493 140 435 z m 299 539 b 246 611 275 539 246 561 b 274 690 246 638 256 672 l 369 724 l 369 567 l 349 556 b 299 539 335 547 318 539 z "},"º":{"ha":686,"x_min":0,"x_max":0,"o":"m 313 435 b 629 731 479 472 629 538 b 369 993 629 893 515 993 b 57 700 206 957 57 892 b 313 435 57 538 169 435 z m 351 506 b 253 765 303 506 253 578 b 328 922 253 890 285 922 b 426 664 376 922 426 851 b 351 506 426 540 394 506 z "},"ø":{"ha":808,"x_min":0,"x_max":0,"o":"m 772 681 l 674 681 l 622 625 b 419 694 568 669 497 694 b 35 318 222 649 35 564 b 119 78 35 218 67 136 l 35 -14 l 136 -14 l 175 29 b 347 -21 225 -3 283 -21 b 738 357 549 26 738 111 b 672 572 738 443 714 517 z m 285 401 b 368 604 285 561 322 604 b 464 453 404 604 443 560 l 292 267 b 285 401 288 304 285 350 z m 478 274 b 396 69 478 114 442 69 b 310 176 365 69 332 101 l 475 357 b 478 274 476 331 478 303 z "},"ǿ":{"ha":808,"x_min":0,"x_max":0,"o":"m 614 986 l 406 986 l 350 776 l 458 776 z m 772 681 l 674 681 l 622 625 b 419 694 568 669 497 694 b 35 318 222 649 35 564 b 119 78 35 218 67 136 l 35 -14 l 136 -14 l 175 29 b 347 -21 225 -3 283 -21 b 738 357 549 26 738 111 b 672 572 738 443 714 517 z m 285 401 b 368 604 285 561 322 604 b 464 453 404 604 443 560 l 292 267 b 285 401 288 304 285 350 z m 478 274 b 396 69 478 114 442 69 b 310 176 365 69 332 101 l 475 357 b 478 274 476 331 478 303 z "},"õ":{"ha":772,"x_min":0,"x_max":0,"o":"m 496 794 l 599 818 l 642 983 l 589 983 l 549 914 l 297 986 l 193 956 l 153 797 l 206 797 l 244 867 z m 347 -21 b 738 357 549 26 738 111 b 419 694 738 565 597 694 b 35 318 222 649 35 564 b 347 -21 35 110 174 -21 z m 396 69 b 285 401 343 69 285 163 b 368 604 285 561 322 604 b 478 274 421 604 478 513 b 396 69 478 114 442 69 z "},"ŕ":{"ha":639,"x_min":0,"x_max":0,"o":"m 265 776 l 374 776 l 529 986 l 321 986 z m 56 -1 l 242 3 l 500 -1 l 507 75 l 357 93 l 357 363 l 369 376 b 458 463 404 414 424 443 l 625 463 l 625 688 l 485 688 l 346 443 l 321 679 l 235 674 l 42 636 l 49 557 l 121 560 l 121 93 l 49 75 z "},"ř":{"ha":639,"x_min":0,"x_max":0,"o":"m 254 776 l 385 776 l 544 986 l 422 986 l 343 903 l 319 863 l 296 903 l 217 986 l 94 986 z m 56 -1 l 242 3 l 500 -1 l 507 75 l 357 93 l 357 363 l 369 376 b 458 463 404 414 424 443 l 625 463 l 625 688 l 485 688 l 346 443 l 321 679 l 235 674 l 42 636 l 49 557 l 121 560 l 121 93 l 49 75 z "},"ŗ":{"ha":639,"x_min":0,"x_max":0,"o":"m 56 -1 l 242 3 l 500 -1 l 507 75 l 357 93 l 357 363 l 369 376 b 458 463 404 414 424 443 l 625 463 l 625 688 l 485 688 l 346 443 l 321 679 l 235 674 l 42 636 l 49 557 l 121 560 l 121 93 l 49 75 z m 246 -340 l 361 -181 l 361 -69 l 167 -69 l 167 -125 l 199 -174 l 167 -326 z "},"ś":{"ha":642,"x_min":0,"x_max":0,"o":"m 267 776 l 375 776 l 531 986 l 322 986 z m 304 -21 b 607 211 508 22 607 75 b 475 397 607 303 553 361 l 375 444 b 268 542 286 486 268 506 b 358 601 268 572 297 601 b 463 544 408 601 440 574 l 496 451 l 581 451 l 581 653 b 358 694 554 665 503 694 b 63 463 114 633 63 565 b 213 274 63 372 121 319 l 311 224 b 388 138 374 193 388 172 b 306 78 388 93 354 78 b 174 151 261 78 210 110 l 143 251 l 49 251 l 75 28 b 304 -21 157 -4 254 -21 z "},"š":{"ha":642,"x_min":0,"x_max":0,"o":"m 256 776 l 386 776 l 546 986 l 424 986 l 344 903 l 321 863 l 297 903 l 218 986 l 96 986 z m 304 -21 b 607 211 508 22 607 75 b 475 397 607 303 553 361 l 375 444 b 268 542 286 486 268 506 b 358 601 268 572 297 601 b 463 544 408 601 440 574 l 496 451 l 581 451 l 581 653 b 358 694 554 665 503 694 b 63 463 114 633 63 565 b 213 274 63 372 121 319 l 311 224 b 388 138 374 193 388 172 b 306 78 388 93 354 78 b 174 151 261 78 210 110 l 143 251 l 49 251 l 75 28 b 304 -21 157 -4 254 -21 z "},"ş":{"ha":642,"x_min":0,"x_max":0,"o":"m 607 211 b 475 397 607 303 553 361 l 375 444 b 268 542 286 486 268 506 b 358 601 268 572 297 601 b 463 544 408 601 440 574 l 496 451 l 581 451 l 581 653 b 358 694 554 665 503 694 b 63 463 114 633 63 565 b 213 274 63 372 121 319 l 311 224 b 388 138 374 193 388 172 b 306 78 388 93 354 78 b 174 151 261 78 210 110 l 143 251 l 49 251 l 75 28 b 261 -18 138 4 208 -12 l 192 -111 b 275 -187 231 -111 275 -131 b 240 -271 275 -218 264 -253 l 151 -271 l 111 -340 l 199 -340 l 269 -312 b 424 -153 333 -287 424 -247 b 311 -65 424 -96 382 -65 l 347 -11 b 607 211 522 31 607 85 z "},"ŝ":{"ha":642,"x_min":0,"x_max":0,"o":"m 96 776 l 218 776 l 297 851 l 321 892 l 344 851 l 424 776 l 546 776 l 379 986 l 263 986 z m 304 -21 b 607 211 508 22 607 75 b 475 397 607 303 553 361 l 375 444 b 268 542 286 486 268 506 b 358 601 268 572 297 601 b 463 544 408 601 440 574 l 496 451 l 581 451 l 581 653 b 358 694 554 665 503 694 b 63 463 114 633 63 565 b 213 274 63 372 121 319 l 311 224 b 388 138 374 193 388 172 b 306 78 388 93 354 78 b 174 151 261 78 210 110 l 143 251 l 49 251 l 75 28 b 304 -21 157 -4 254 -21 z "},"ș":{"ha":642,"x_min":0,"x_max":0,"o":"m 304 -21 b 607 211 508 22 607 75 b 475 397 607 303 553 361 l 375 444 b 268 542 286 486 268 506 b 358 601 268 572 297 601 b 463 544 408 601 440 574 l 496 451 l 581 451 l 581 653 b 358 694 554 665 503 694 b 63 463 114 633 63 565 b 213 274 63 372 121 319 l 311 224 b 388 138 374 193 388 172 b 306 78 388 93 354 78 b 174 151 261 78 210 110 l 143 251 l 49 251 l 75 28 b 304 -21 157 -4 254 -21 z m 303 -340 l 418 -181 l 418 -69 l 224 -69 l 224 -125 l 256 -174 l 224 -326 z "},"ŧ":{"ha":582,"x_min":0,"x_max":0,"o":"m 542 156 b 431 121 494 129 465 121 b 363 208 390 121 363 157 l 363 382 l 497 382 l 497 458 l 363 458 l 363 558 l 535 558 l 535 642 l 361 642 l 361 854 l 279 854 l 126 743 l 126 644 l 64 644 l 7 583 l 7 558 l 126 558 l 126 458 l 32 458 l 32 382 l 126 382 l 126 219 b 375 -21 126 57 210 -21 l 575 83 z "},"ť":{"ha":582,"x_min":0,"x_max":0,"o":"m 515 681 l 606 865 l 615 943 l 606 1031 l 563 1040 l 442 1031 l 435 954 l 442 865 l 506 858 b 456 704 504 831 475 743 z m 375 -21 l 575 83 l 542 156 b 431 121 494 129 465 121 b 363 208 390 121 363 157 l 363 558 l 535 558 l 535 642 l 361 642 l 361 854 l 279 854 l 126 743 l 126 644 l 64 644 l 7 583 l 7 558 l 126 558 l 126 219 b 375 -21 126 57 210 -21 z "},"ţ":{"ha":582,"x_min":0,"x_max":0,"o":"m 338 -65 l 367 -21 l 375 -21 l 575 83 l 542 156 b 431 121 494 129 465 121 b 363 208 390 121 363 157 l 363 558 l 535 558 l 535 642 l 361 642 l 361 854 l 279 854 l 126 743 l 126 644 l 64 644 l 7 583 l 7 558 l 126 558 l 126 219 b 290 -12 126 88 182 11 l 218 -111 b 301 -187 257 -111 301 -131 b 267 -271 301 -218 290 -253 l 178 -271 l 138 -340 l 225 -340 l 296 -312 b 450 -153 360 -287 450 -247 b 338 -65 450 -96 408 -65 z "},"ț":{"ha":582,"x_min":0,"x_max":0,"o":"m 375 -21 l 575 83 l 542 156 b 431 121 494 129 465 121 b 363 208 390 121 363 157 l 363 558 l 535 558 l 535 642 l 361 642 l 361 854 l 279 854 l 126 743 l 126 644 l 64 644 l 7 583 l 7 558 l 126 558 l 126 219 b 375 -21 126 57 210 -21 z m 329 -340 l 444 -181 l 444 -69 l 250 -69 l 250 -125 l 282 -174 l 250 -326 z "},"þ":{"ha":811,"x_min":0,"x_max":0,"o":"m 35 -321 l 211 -317 l 444 -321 l 450 -244 l 333 -229 l 333 -10 b 403 -21 357 -17 379 -21 b 783 393 669 17 783 158 b 519 694 783 576 635 694 l 333 563 l 333 990 l 238 986 l 21 951 l 28 875 l 97 878 l 97 -229 l 28 -244 z m 417 67 b 333 110 382 67 360 78 l 333 474 l 356 490 b 428 525 378 507 401 525 b 533 318 476 525 533 490 b 417 67 533 157 482 67 z "},"ú":{"ha":842,"x_min":0,"x_max":0,"o":"m 367 776 l 475 776 l 631 986 l 422 986 z m 324 -21 l 513 107 l 554 -21 l 814 21 l 808 97 l 758 97 b 738 190 744 118 738 140 l 738 679 l 617 674 l 431 629 l 438 553 l 501 558 l 501 192 l 479 176 b 408 147 453 158 429 147 b 335 228 354 147 335 175 l 335 679 l 214 674 l 21 629 l 28 553 l 92 558 l 92 185 b 324 -21 92 19 163 -21 z "},"ŭ":{"ha":842,"x_min":0,"x_max":0,"o":"m 442 781 b 639 935 546 813 601 861 l 585 976 b 421 894 558 946 504 894 b 257 976 338 894 283 946 l 203 935 b 442 781 240 853 325 781 z m 324 -21 l 513 107 l 554 -21 l 814 21 l 808 97 l 758 97 b 738 190 744 118 738 140 l 738 679 l 617 674 l 431 629 l 438 553 l 501 558 l 501 192 l 479 176 b 408 147 453 158 429 147 b 335 228 354 147 335 175 l 335 679 l 214 674 l 21 629 l 28 553 l 92 558 l 92 185 b 324 -21 92 19 163 -21 z "},"û":{"ha":842,"x_min":0,"x_max":0,"o":"m 196 776 l 318 776 l 397 851 l 421 892 l 444 851 l 524 776 l 646 776 l 479 986 l 363 986 z m 324 -21 l 513 107 l 554 -21 l 814 21 l 808 97 l 758 97 b 738 190 744 118 738 140 l 738 679 l 617 674 l 431 629 l 438 553 l 501 558 l 501 192 l 479 176 b 408 147 453 158 429 147 b 335 228 354 147 335 175 l 335 679 l 214 674 l 21 629 l 28 553 l 92 558 l 92 185 b 324 -21 92 19 163 -21 z "},"ü":{"ha":842,"x_min":0,"x_max":0,"o":"m 246 788 l 356 797 l 375 874 l 364 963 l 318 972 l 206 963 l 189 888 l 199 797 z m 524 788 l 635 797 l 653 874 l 643 963 l 596 972 l 485 963 l 467 888 l 478 797 z m 324 -21 l 513 107 l 554 -21 l 814 21 l 808 97 l 758 97 b 738 190 744 118 738 140 l 738 679 l 617 674 l 431 629 l 438 553 l 501 558 l 501 192 l 479 176 b 408 147 453 158 429 147 b 335 228 354 147 335 175 l 335 679 l 214 674 l 21 629 l 28 553 l 92 558 l 92 185 b 324 -21 92 19 163 -21 z "},"ù":{"ha":842,"x_min":0,"x_max":0,"o":"m 367 776 l 475 776 l 419 986 l 211 986 z m 324 -21 l 513 107 l 554 -21 l 814 21 l 808 97 l 758 97 b 738 190 744 118 738 140 l 738 679 l 617 674 l 431 629 l 438 553 l 501 558 l 501 192 l 479 176 b 408 147 453 158 429 147 b 335 228 354 147 335 175 l 335 679 l 214 674 l 21 629 l 28 553 l 92 558 l 92 185 b 324 -21 92 19 163 -21 z "},"ű":{"ha":842,"x_min":0,"x_max":0,"o":"m 233 776 l 342 776 l 497 986 l 289 986 z m 499 776 l 607 776 l 763 986 l 554 986 z m 324 -21 l 513 107 l 554 -21 l 814 21 l 808 97 l 758 97 b 738 190 744 118 738 140 l 738 679 l 617 674 l 431 629 l 438 553 l 501 558 l 501 192 l 479 176 b 408 147 453 158 429 147 b 335 228 354 147 335 175 l 335 679 l 214 674 l 21 629 l 28 553 l 92 558 l 92 185 b 324 -21 92 19 163 -21 z "},"ū":{"ha":842,"x_min":0,"x_max":0,"o":"m 213 819 l 629 819 l 629 931 l 213 931 z m 324 -21 l 513 107 l 554 -21 l 814 21 l 808 97 l 758 97 b 738 190 744 118 738 140 l 738 679 l 617 674 l 431 629 l 438 553 l 501 558 l 501 192 l 479 176 b 408 147 453 158 429 147 b 335 228 354 147 335 175 l 335 679 l 214 674 l 21 629 l 28 553 l 92 558 l 92 185 b 324 -21 92 19 163 -21 z "},"ų":{"ha":842,"x_min":0,"x_max":0,"o":"m 574 -185 l 574 -139 l 614 -11 l 814 21 l 808 97 l 758 97 b 738 190 744 118 738 140 l 738 679 l 617 674 l 431 629 l 438 553 l 501 558 l 501 192 l 479 176 b 408 147 453 158 429 147 b 335 228 354 147 335 175 l 335 679 l 214 674 l 21 629 l 28 553 l 92 558 l 92 185 b 324 -21 92 19 163 -21 l 513 107 l 539 25 l 418 -104 l 418 -207 b 717 -340 418 -296 497 -340 l 717 -275 b 574 -185 574 -275 574 -218 z "},"ů":{"ha":842,"x_min":0,"x_max":0,"o":"m 425 764 b 592 917 517 800 592 804 b 421 1075 592 1038 517 1075 b 250 917 333 1050 250 1019 b 425 764 250 800 340 764 z m 422 838 b 339 917 375 838 339 869 b 422 1001 339 963 375 1001 b 506 917 469 1001 506 963 b 422 838 506 869 469 838 z m 324 -21 l 513 107 l 554 -21 l 814 21 l 808 97 l 758 97 b 738 190 744 118 738 140 l 738 679 l 617 674 l 431 629 l 438 553 l 501 558 l 501 192 l 479 176 b 408 147 453 158 429 147 b 335 228 354 147 335 175 l 335 679 l 214 674 l 21 629 l 28 553 l 92 558 l 92 185 b 324 -21 92 19 163 -21 z "},"ũ":{"ha":842,"x_min":0,"x_max":0,"o":"m 519 794 l 622 818 l 665 983 l 613 983 l 572 914 l 321 986 l 217 956 l 176 797 l 229 797 l 268 867 z m 324 -21 l 513 107 l 554 -21 l 814 21 l 808 97 l 758 97 b 738 190 744 118 738 140 l 738 679 l 617 674 l 431 629 l 438 553 l 501 558 l 501 192 l 479 176 b 408 147 453 158 429 147 b 335 228 354 147 335 175 l 335 679 l 214 674 l 21 629 l 28 553 l 92 558 l 92 185 b 324 -21 92 19 163 -21 z "},"ẃ":{"ha":1238,"x_min":0,"x_max":0,"o":"m 607 776 l 715 776 l 871 986 l 663 986 z m 308 -21 l 485 17 l 633 426 l 642 326 l 782 -21 l 958 17 l 1157 582 l 1231 600 l 1224 675 l 1124 671 l 999 675 l 992 600 l 1056 582 l 911 131 l 900 254 l 789 582 l 850 600 l 843 675 l 682 671 l 488 675 l 481 600 l 538 582 l 571 500 l 438 131 l 426 254 l 315 582 l 376 600 l 369 675 l 208 671 l 14 675 l 7 600 l 64 582 z "},"ŵ":{"ha":1238,"x_min":0,"x_max":0,"o":"m 436 776 l 558 776 l 638 851 l 661 892 l 685 851 l 764 776 l 886 776 l 719 986 l 603 986 z m 308 -21 l 485 17 l 633 426 l 642 326 l 782 -21 l 958 17 l 1157 582 l 1231 600 l 1224 675 l 1124 671 l 999 675 l 992 600 l 1056 582 l 911 131 l 900 254 l 789 582 l 850 600 l 843 675 l 682 671 l 488 675 l 481 600 l 538 582 l 571 500 l 438 131 l 426 254 l 315 582 l 376 600 l 369 675 l 208 671 l 14 675 l 7 600 l 64 582 z "},"ẅ":{"ha":1238,"x_min":0,"x_max":0,"o":"m 486 788 l 596 797 l 615 874 l 604 963 l 558 972 l 446 963 l 429 888 l 439 797 z m 764 788 l 875 797 l 893 874 l 883 963 l 836 972 l 725 963 l 707 888 l 718 797 z m 308 -21 l 485 17 l 633 426 l 642 326 l 782 -21 l 958 17 l 1157 582 l 1231 600 l 1224 675 l 1124 671 l 999 675 l 992 600 l 1056 582 l 911 131 l 900 254 l 789 582 l 850 600 l 843 675 l 682 671 l 488 675 l 481 600 l 538 582 l 571 500 l 438 131 l 426 254 l 315 582 l 376 600 l 369 675 l 208 671 l 14 675 l 7 600 l 64 582 z "},"ẁ":{"ha":1238,"x_min":0,"x_max":0,"o":"m 607 776 l 715 776 l 660 986 l 451 986 z m 308 -21 l 485 17 l 633 426 l 642 326 l 782 -21 l 958 17 l 1157 582 l 1231 600 l 1224 675 l 1124 671 l 999 675 l 992 600 l 1056 582 l 911 131 l 900 254 l 789 582 l 850 600 l 843 675 l 682 671 l 488 675 l 481 600 l 538 582 l 571 500 l 438 131 l 426 254 l 315 582 l 376 600 l 369 675 l 208 671 l 14 675 l 7 600 l 64 582 z "},"ý":{"ha":810,"x_min":0,"x_max":0,"o":"m 394 776 l 503 776 l 658 986 l 450 986 z m 124 -326 l 369 -326 l 531 43 l 726 582 l 803 597 l 796 675 l 678 671 l 543 675 l 536 597 l 603 582 l 469 121 l 449 254 l 325 585 l 389 599 l 382 675 l 215 671 l 14 675 l 7 599 l 65 585 l 288 10 l 456 65 l 315 -108 l 124 -108 z "},"ŷ":{"ha":810,"x_min":0,"x_max":0,"o":"m 224 776 l 346 776 l 425 851 l 449 892 l 472 851 l 551 776 l 674 776 l 507 986 l 390 986 z m 124 -326 l 369 -326 l 531 43 l 726 582 l 803 597 l 796 675 l 678 671 l 543 675 l 536 597 l 603 582 l 469 121 l 449 254 l 325 585 l 389 599 l 382 675 l 215 671 l 14 675 l 7 599 l 65 585 l 288 10 l 456 65 l 315 -108 l 124 -108 z "},"ÿ":{"ha":810,"x_min":0,"x_max":0,"o":"m 274 788 l 383 797 l 403 874 l 392 963 l 346 972 l 233 963 l 217 888 l 226 797 z m 551 788 l 663 797 l 681 874 l 671 963 l 624 972 l 513 963 l 494 888 l 506 797 z m 124 -326 l 369 -326 l 531 43 l 726 582 l 803 597 l 796 675 l 678 671 l 543 675 l 536 597 l 603 582 l 469 121 l 449 254 l 325 585 l 389 599 l 382 675 l 215 671 l 14 675 l 7 599 l 65 585 l 288 10 l 456 65 l 315 -108 l 124 -108 z "},"ỳ":{"ha":810,"x_min":0,"x_max":0,"o":"m 394 776 l 503 776 l 447 986 l 239 986 z m 124 -326 l 369 -326 l 531 43 l 726 582 l 803 597 l 796 675 l 678 671 l 543 675 l 536 597 l 603 582 l 469 121 l 449 254 l 325 585 l 389 599 l 382 675 l 215 671 l 14 675 l 7 599 l 65 585 l 288 10 l 456 65 l 315 -108 l 124 -108 z "},"ź":{"ha":711,"x_min":0,"x_max":0,"o":"m 301 776 l 410 776 l 565 986 l 357 986 z m 54 0 l 638 0 l 676 265 l 583 265 l 518 96 l 293 76 l 353 124 l 676 625 l 651 675 l 72 675 l 72 442 l 156 442 l 203 585 l 419 600 l 360 558 l 28 56 z "},"ž":{"ha":711,"x_min":0,"x_max":0,"o":"m 290 776 l 421 776 l 581 986 l 458 986 l 379 903 l 356 863 l 332 903 l 253 986 l 131 986 z m 54 0 l 638 0 l 676 265 l 583 265 l 518 96 l 293 76 l 353 124 l 676 625 l 651 675 l 72 675 l 72 442 l 156 442 l 203 585 l 419 600 l 360 558 l 28 56 z "},"ż":{"ha":711,"x_min":0,"x_max":0,"o":"m 344 782 l 435 792 l 454 875 l 444 974 l 368 983 l 271 976 l 253 892 l 263 792 z m 54 0 l 638 0 l 676 265 l 583 265 l 518 96 l 293 76 l 353 124 l 676 625 l 651 675 l 72 675 l 72 442 l 156 442 l 203 585 l 419 600 l 360 558 l 28 56 z "},"ß":{"ha":972,"x_min":0,"x_max":0,"o":"m 656 -25 b 944 221 851 39 944 85 b 824 396 944 306 892 357 l 724 450 b 619 569 647 492 619 514 b 863 792 761 614 861 688 b 501 997 864 922 714 997 l 361 938 b 140 681 197 868 140 769 l 140 647 l 89 647 l 35 585 l 35 550 l 140 550 l 140 89 l 71 75 l 78 -1 l 210 3 l 383 -1 l 383 688 b 515 907 383 819 421 907 b 619 785 581 907 619 856 b 542 606 619 701 594 640 l 444 540 b 561 318 444 429 474 372 l 660 257 b 725 151 711 221 725 185 b 635 74 725 96 683 74 b 556 118 608 74 578 94 l 522 210 l 442 210 l 454 28 b 656 -25 525 -4 593 -25 z "},"ð":{"ha":793,"x_min":0,"x_max":0,"o":"m 538 854 l 624 896 l 624 972 l 478 901 b 285 1000 422 940 358 974 l 240 917 b 354 840 278 900 318 875 l 274 801 l 274 725 l 403 789 b 503 594 443 738 479 674 l 342 661 b 49 346 181 649 49 550 b 403 -21 49 124 218 11 b 744 374 608 7 744 97 b 538 854 744 553 679 725 z m 408 69 b 294 354 351 69 294 165 b 411 557 294 508 338 557 b 504 525 432 557 463 546 l 521 517 b 535 388 528 476 533 433 b 408 69 543 140 458 69 z "},"`":{"ha":833,"x_min":0,"x_max":0,"o":"m 371 776 l 479 776 l 424 986 l 215 986 z "},"´":{"ha":833,"x_min":0,"x_max":0,"o":"m 215 776 l 324 776 l 479 986 l 271 986 z "},"ˆ":{"ha":833,"x_min":0,"x_max":0,"o":"m 122 776 l 244 776 l 324 851 l 347 892 l 371 851 l 450 776 l 572 776 l 406 986 l 289 986 z "},"˜":{"ha":833,"x_min":0,"x_max":0,"o":"m 446 790 l 549 814 l 592 979 l 539 979 l 499 910 l 247 982 l 143 951 l 103 793 l 156 793 l 194 863 z "},"ˇ":{"ha":833,"x_min":0,"x_max":0,"o":"m 304 776 l 435 776 l 594 986 l 472 986 l 393 903 l 369 863 l 346 903 l 267 986 l 144 986 z "},"¨":{"ha":833,"x_min":0,"x_max":0,"o":"m 172 788 l 282 797 l 301 874 l 290 963 l 244 972 l 132 963 l 115 888 l 125 797 z m 450 788 l 561 797 l 579 874 l 569 963 l 522 972 l 411 963 l 393 888 l 404 797 z "},"¯":{"ha":833,"x_min":0,"x_max":0,"o":"m 139 819 l 556 819 l 556 931 l 139 931 z "},"˘":{"ha":833,"x_min":0,"x_max":0,"o":"m 372 781 b 569 935 476 813 532 861 l 515 976 b 351 894 489 946 435 894 b 188 976 268 894 214 946 l 133 935 b 372 781 171 853 256 781 z "},"˚":{"ha":833,"x_min":0,"x_max":0,"o":"m 351 764 b 518 917 443 800 518 804 b 347 1075 518 1038 443 1075 b 176 917 260 1050 176 1019 b 351 764 176 800 267 764 z m 349 838 b 265 917 301 838 265 869 b 349 1001 265 963 301 1001 b 432 917 396 1001 432 963 b 349 838 432 869 396 838 z "},"˝":{"ha":833,"x_min":0,"x_max":0,"o":"m 82 776 l 190 776 l 346 986 l 138 986 z m 347 776 l 456 776 l 611 986 l 403 986 z "},"˙":{"ha":833,"x_min":0,"x_max":0,"o":"m 336 782 l 426 792 l 446 875 l 436 974 l 360 983 l 263 976 l 244 892 l 254 792 z "},"¸":{"ha":833,"x_min":0,"x_max":0,"o":"m 190 -340 l 278 -340 l 349 -312 b 503 -153 413 -287 503 -247 b 390 -65 503 -96 461 -65 l 449 22 l 369 22 l 271 -111 b 354 -187 310 -111 354 -131 b 319 -271 354 -218 343 -253 l 231 -271 z "},"˛":{"ha":833,"x_min":0,"x_max":0,"o":"m 496 -340 l 496 -275 b 353 -185 353 -275 353 -218 l 353 -139 l 418 65 l 356 65 l 197 -104 l 197 -207 b 496 -340 197 -296 276 -340 z "},",":{"ha":356,"x_min":0,"x_max":0,"o":"m 186 -232 l 301 3 l 314 101 l 301 213 l 247 225 l 93 213 l 83 115 l 93 3 l 174 -6 b 111 -201 174 -42 132 -153 z "},";":{"ha":433,"x_min":0,"x_max":0,"o":"m 168 436 l 322 446 l 335 544 l 322 654 l 268 667 l 114 654 l 104 558 l 114 446 z m 208 -232 l 324 3 l 336 101 l 324 213 l 269 225 l 115 213 l 106 115 l 115 3 l 196 -6 b 133 -201 196 -42 154 -153 z "},":":{"ha":404,"x_min":0,"x_max":0,"o":"m 168 436 l 322 446 l 335 544 l 322 654 l 268 667 l 114 654 l 104 558 l 114 446 z m 168 -7 l 322 3 l 335 101 l 322 211 l 268 224 l 114 211 l 104 115 l 114 3 z "},".":{"ha":369,"x_min":0,"x_max":0,"o":"m 161 -7 l 315 3 l 328 101 l 315 211 l 261 224 l 107 211 l 97 115 l 107 3 z "},"…":{"ha":1231,"x_min":0,"x_max":0,"o":"m 168 -7 l 308 3 l 321 94 l 308 197 l 254 210 l 114 197 l 104 108 l 114 3 z m 569 -7 l 710 3 l 722 94 l 710 197 l 656 210 l 515 197 l 506 108 l 515 3 z m 974 -7 l 1114 3 l 1126 94 l 1114 197 l 1060 210 l 919 197 l 910 108 l 919 3 z "},"-":{"ha":514,"x_min":0,"x_max":0,"o":"m 49 336 l 465 336 l 465 454 l 49 454 z "},"!":{"ha":465,"x_min":0,"x_max":0,"o":"m 153 326 l 313 326 l 333 529 l 354 986 l 111 986 l 132 528 z m 179 -7 l 333 3 l 346 101 l 333 211 l 279 224 l 125 211 l 115 115 l 125 3 z "},"¡":{"ha":451,"x_min":0,"x_max":0,"o":"m 179 443 l 333 456 l 343 551 l 333 664 l 279 674 l 125 664 l 113 565 l 125 456 z m 104 -319 l 347 -319 l 326 139 l 306 340 l 146 340 l 125 138 z "},"?":{"ha":679,"x_min":0,"x_max":0,"o":"m 208 319 l 304 319 l 314 464 l 354 478 b 610 726 460 514 610 583 b 278 988 610 875 483 960 l 90 972 l 90 807 l 218 807 l 244 903 b 350 740 308 903 350 849 b 254 539 350 640 296 563 l 200 508 z m 201 -7 l 356 3 l 368 101 l 356 211 l 301 224 l 147 211 l 138 115 l 147 3 z "},"¿":{"ha":631,"x_min":0,"x_max":0,"o":"m 436 674 l 282 664 l 269 565 l 282 456 l 336 443 l 490 456 l 500 551 l 490 664 z m 429 347 l 333 347 l 324 203 l 283 189 b 28 -60 178 153 28 83 b 360 -321 28 -208 154 -293 l 547 -306 l 547 -140 l 419 -140 l 393 -236 b 288 -74 329 -236 288 -182 b 383 128 288 26 342 104 l 438 158 z "},"‘":{"ha":314,"x_min":0,"x_max":0,"o":"m 185 999 l 69 764 l 57 665 l 69 554 l 124 542 l 278 554 l 288 651 l 278 764 l 197 772 b 260 968 199 808 235 919 z "},"’":{"ha":349,"x_min":0,"x_max":0,"o":"m 158 529 l 274 764 l 286 863 l 274 974 l 219 986 l 65 974 l 56 876 l 65 764 l 146 756 b 83 560 144 719 108 608 z "},"“":{"ha":608,"x_min":0,"x_max":0,"o":"m 183 997 l 68 763 l 56 664 l 68 553 l 122 540 l 276 553 l 286 650 l 276 763 l 196 771 b 258 967 197 807 233 918 z m 479 997 l 364 763 l 351 664 l 364 553 l 418 540 l 572 553 l 582 650 l 572 763 l 492 771 b 554 967 493 807 529 918 z "},"”":{"ha":643,"x_min":0,"x_max":0,"o":"m 172 529 l 288 764 l 300 863 l 288 974 l 233 986 l 79 974 l 69 876 l 79 764 l 160 756 b 97 560 158 719 122 608 z m 468 529 l 583 764 l 596 863 l 583 974 l 529 986 l 375 974 l 365 876 l 375 764 l 456 756 b 393 560 454 719 418 608 z "},"‚":{"ha":342,"x_min":0,"x_max":0,"o":"m 186 -232 l 301 3 l 314 101 l 301 213 l 247 225 l 93 213 l 83 115 l 93 3 l 174 -6 b 111 -201 172 -42 136 -153 z "},"„":{"ha":636,"x_min":0,"x_max":0,"o":"m 186 -232 l 301 3 l 314 101 l 301 213 l 247 225 l 93 213 l 83 115 l 93 3 l 174 -6 b 111 -201 172 -42 136 -153 z m 482 -232 l 597 3 l 610 101 l 597 213 l 543 225 l 389 213 l 379 115 l 389 3 l 469 -6 b 407 -201 468 -42 432 -153 z "},"‹":{"ha":465,"x_min":0,"x_max":0,"o":"m 272 21 l 424 21 l 247 325 l 424 632 l 275 632 l 21 326 z "},"›":{"ha":465,"x_min":0,"x_max":0,"o":"m 42 21 l 193 21 l 444 326 l 192 632 l 42 632 l 218 325 z "},"·":{"ha":369,"x_min":0,"x_max":0,"o":"m 140 451 l 281 461 l 293 553 l 281 656 l 226 668 l 86 656 l 76 567 l 86 461 z "},"/":{"ha":707,"x_min":0,"x_max":0,"o":"m -14 -319 l 94 -319 l 721 997 l 615 997 z "},"|":{"ha":407,"x_min":0,"x_max":0,"o":"m 153 -340 l 254 -340 l 254 997 l 153 997 z "},"–":{"ha":653,"x_min":0,"x_max":0,"o":"m 49 336 l 604 336 l 604 433 l 49 433 z "},"—":{"ha":1208,"x_min":0,"x_max":0,"o":"m 49 336 l 1160 336 l 1160 433 l 49 433 z "},"•":{"ha":368,"x_min":0,"x_max":0,"o":"m 147 307 l 289 317 l 299 417 l 289 526 l 221 536 l 79 526 l 69 428 l 79 317 z "},"(":{"ha":422,"x_min":0,"x_max":0,"o":"m 367 -331 l 415 -285 b 236 339 289 -92 236 72 b 415 963 236 606 289 769 l 367 1008 b 49 339 139 786 49 629 b 367 -331 49 49 139 -108 z "},")":{"ha":422,"x_min":0,"x_max":0,"o":"m 56 -331 b 374 339 283 -115 374 49 b 56 1008 374 629 283 793 l 7 963 b 186 339 133 769 186 606 b 7 -285 186 72 133 -92 z "},"[":{"ha":463,"x_min":0,"x_max":0,"o":"m 90 -321 l 206 -317 l 414 -321 l 414 -244 l 257 -231 b 250 400 253 -135 250 133 b 257 903 250 622 253 838 l 414 917 l 414 993 l 206 989 l 90 993 z "},"]":{"ha":463,"x_min":0,"x_max":0,"o":"m 49 -321 l 257 -317 l 372 -321 l 372 993 l 257 989 l 49 993 l 49 917 l 206 903 b 213 400 210 838 213 622 b 206 -231 213 133 210 -135 l 49 -244 z "},"{":{"ha":483,"x_min":0,"x_max":0,"o":"m 361 -319 l 442 -319 l 442 -243 l 403 -243 b 319 -97 354 -243 317 -208 l 328 292 l 229 364 b 328 535 326 410 329 471 l 319 771 b 403 917 315 882 354 917 l 442 917 l 442 993 l 375 993 b 146 799 257 993 146 917 l 147 535 b 56 374 147 460 146 403 l 56 354 l 147 271 l 146 -125 b 361 -319 146 -243 243 -319 z "},"}":{"ha":483,"x_min":0,"x_max":0,"o":"m 42 -319 l 122 -319 b 338 -125 240 -319 338 -243 l 336 193 b 428 354 336 268 338 325 l 428 374 l 336 457 l 338 799 b 108 993 338 917 226 993 l 42 993 l 42 917 l 81 917 b 164 771 129 917 167 882 l 154 436 l 254 364 b 156 193 157 318 154 257 l 164 -97 b 81 -243 167 -208 129 -243 l 42 -243 z "},"­":{"ha":514,"x_min":0,"x_max":0,"o":"m 49 336 l 465 336 l 465 454 l 49 454 z "},"«":{"ha":804,"x_min":0,"x_max":0,"o":"m 272 21 l 424 21 l 247 325 l 424 632 l 274 632 l 21 326 z m 611 21 l 763 21 l 586 325 l 763 632 l 613 632 l 360 326 z "},"»":{"ha":804,"x_min":0,"x_max":0,"o":"m 42 21 l 193 21 l 444 326 l 192 632 l 42 632 l 218 325 z m 381 21 l 532 21 l 783 326 l 531 632 l 381 632 l 557 325 z "},"*":{"ha":640,"x_min":0,"x_max":0,"o":"m 251 510 l 319 665 l 389 510 l 538 621 l 413 726 l 578 742 l 518 918 l 375 833 l 414 993 l 226 993 l 264 833 l 122 918 l 63 742 l 225 726 l 103 621 z "},"~":{"ha":929,"x_min":0,"x_max":0,"o":"m 69 285 l 146 285 l 206 339 l 676 261 l 806 319 l 860 438 l 783 438 l 724 383 l 257 461 l 121 396 z "},"¦":{"ha":407,"x_min":0,"x_max":0,"o":"m 153 400 l 254 400 l 254 997 l 153 997 z m 153 -340 l 254 -340 l 254 257 l 153 257 z "},"\\":{"ha":624,"x_min":0,"x_max":0,"o":"m 571 -319 l 679 -319 l 50 997 l -56 997 z "},"_":{"ha":785,"x_min":0,"x_max":0,"o":"m 7 -194 l 778 -194 l 778 -90 l 7 -90 z "},"'":{"ha":356,"x_min":0,"x_max":0,"o":"m 158 535 l 210 535 l 299 850 l 292 979 l 76 979 l 69 850 z "},"\"":{"ha":658,"x_min":0,"x_max":0,"o":"m 158 535 l 210 535 l 299 850 l 292 979 l 76 979 l 69 850 z m 456 535 l 507 535 l 596 850 l 589 979 l 374 979 l 367 850 z "},"ʼ":{"ha":349,"x_min":0,"x_max":0,"o":"m 158 529 l 274 764 l 286 863 l 274 974 l 219 986 l 65 974 l 56 876 l 65 764 l 146 756 b 83 560 144 719 108 608 z "},"&":{"ha":1056,"x_min":0,"x_max":0,"o":"m 407 -25 b 658 104 539 11 610 57 l 754 -1 l 868 1 l 993 -1 l 1007 75 l 949 89 l 782 267 l 894 424 l 985 438 l 975 510 l 869 506 l 721 510 l 715 438 l 778 431 l 717 336 l 503 564 b 722 838 614 636 722 708 b 468 997 722 922 622 997 b 132 756 225 938 132 874 b 282 518 132 682 178 633 b 63 232 144 428 63 363 b 407 -25 63 78 213 -25 z m 444 629 b 343 810 394 686 343 753 b 443 907 343 878 392 907 b 526 810 499 907 526 865 b 444 629 526 726 494 669 z m 472 113 b 306 282 378 113 306 189 b 350 443 306 343 315 400 l 599 169 b 472 113 563 132 521 113 z "},"@":{"ha":1288,"x_min":0,"x_max":0,"o":"m 642 -158 b 972 -50 729 -147 869 -103 l 946 -1 b 703 -62 892 -22 810 -62 b 236 379 490 -62 236 56 b 704 893 236 685 472 893 b 1088 549 932 893 1088 743 b 853 188 1088 340 958 210 l 964 647 l 778 744 l 626 676 b 374 319 475 608 374 476 b 592 122 374 200 482 122 l 783 360 l 728 211 l 810 125 b 1225 563 1025 125 1225 319 b 693 969 1225 794 1038 969 l 564 929 b 69 351 271 839 69 621 b 642 -158 69 57 300 -158 z m 611 250 b 532 361 563 250 532 286 b 708 643 532 453 583 582 l 801 571 l 764 433 z "},"©":{"ha":1156,"x_min":0,"x_max":0,"o":"m 579 -21 b 1086 478 883 24 1086 186 b 576 993 1086 803 849 990 b 69 494 272 949 69 786 b 579 -21 69 169 307 -18 z m 576 63 b 181 494 415 63 181 197 b 579 910 181 757 367 910 b 975 478 740 910 975 775 b 576 63 975 215 789 63 z m 593 196 b 808 250 694 210 756 228 l 819 410 l 761 410 l 725 314 b 607 256 692 281 661 256 b 453 497 514 256 453 358 b 604 717 453 636 519 717 b 719 656 669 717 699 686 l 744 576 l 807 576 l 807 729 b 626 776 763 753 700 776 b 294 469 415 742 294 658 b 593 196 294 290 436 196 z "},"®":{"ha":836,"x_min":0,"x_max":0,"o":"m 417 951 b 63 610 204 921 63 810 b 419 257 63 388 228 258 b 774 599 632 288 774 399 b 417 951 774 822 608 950 z m 417 301 b 135 610 303 301 135 399 b 419 907 135 797 268 907 b 701 599 533 907 701 811 b 417 301 701 411 568 301 z m 521 575 l 451 604 b 574 701 519 617 574 647 b 461 796 574 761 522 797 l 328 793 l 244 796 l 242 765 l 278 760 l 278 454 l 242 449 l 244 418 l 329 421 l 413 418 l 415 449 l 378 454 l 378 589 l 394 589 l 400 583 l 499 418 l 546 421 l 615 418 l 617 449 l 593 456 z m 378 763 l 410 765 b 468 699 443 765 468 743 b 411 625 468 650 440 625 l 378 625 z "},"™":{"ha":1493,"x_min":0,"x_max":0,"o":"m 175 435 l 347 438 l 518 435 l 522 493 l 438 503 l 438 911 l 519 908 l 567 776 l 622 776 l 622 975 l 357 974 l 69 975 l 69 776 l 125 776 l 172 908 l 256 911 l 256 503 l 171 493 z m 640 435 l 726 436 l 819 435 l 821 493 l 767 503 l 767 911 l 786 807 l 939 435 l 1046 435 l 1218 914 l 1206 817 l 1206 503 l 1151 493 l 1157 435 l 1283 436 l 1421 435 l 1424 493 l 1368 503 l 1368 908 l 1422 918 l 1419 975 l 1308 972 l 1179 975 l 1028 551 l 1032 647 l 899 975 l 713 972 l 642 975 l 638 918 l 693 910 l 693 503 l 636 493 z "},"¶":{"ha":763,"x_min":0,"x_max":0,"o":"m 276 -222 l 394 -222 l 394 875 l 513 875 l 513 -222 l 631 -222 l 631 875 l 707 889 l 707 972 l 278 972 b 42 714 146 889 42 818 b 276 500 42 582 144 500 z "},"§":{"ha":808,"x_min":0,"x_max":0,"o":"m 753 338 l 753 413 l 486 579 b 331 786 376 636 331 707 b 444 914 331 871 383 914 b 531 879 492 914 521 897 l 549 775 l 663 775 l 663 929 b 458 997 629 971 554 997 b 128 710 244 954 128 872 b 204 525 128 638 158 578 b 69 319 136 489 69 428 b 275 44 69 197 169 107 l 536 -111 l 536 -132 b 411 -257 536 -185 475 -257 b 267 -208 342 -257 285 -226 l 250 -104 l 136 -104 l 136 -272 b 419 -340 188 -307 297 -340 b 714 -49 653 -276 714 -168 l 714 26 l 626 81 b 753 338 694 132 753 213 z m 424 204 b 244 392 300 281 244 331 b 269 465 244 419 251 446 b 315 431 283 454 299 442 l 575 261 l 575 240 b 538 135 575 199 564 164 z "},"^":{"ha":543,"x_min":0,"x_max":0,"o":"m 69 639 l 215 639 l 272 774 l 328 639 l 474 639 l 303 979 l 240 979 z "},"†":{"ha":597,"x_min":0,"x_max":0,"o":"m 271 -83 l 319 -83 l 365 314 l 410 457 l 365 514 l 354 646 l 576 604 l 576 778 l 354 736 l 396 986 l 193 986 l 235 736 l 21 778 l 21 604 l 236 646 l 225 514 l 181 457 l 225 314 z "},"‡":{"ha":639,"x_min":0,"x_max":0,"o":"m 214 -72 l 417 -72 l 375 178 l 597 136 l 597 310 l 375 268 l 386 400 l 431 457 l 386 514 l 375 646 l 597 604 l 597 778 l 375 736 l 417 986 l 214 986 l 256 736 l 42 778 l 42 604 l 257 646 l 246 514 l 201 457 l 246 400 l 257 268 l 42 310 l 42 136 l 256 178 z "},"∅":{"ha":833,"x_min":0,"x_max":0,"o":"m 750 761 l 696 815 l 619 739 b 431 800 569 778 506 800 b 126 496 249 800 126 667 b 188 307 126 424 149 358 l 111 231 l 165 176 l 242 253 b 431 192 292 214 356 192 b 735 496 613 192 735 325 b 674 685 735 568 713 633 z m 218 496 b 431 714 218 614 301 714 b 556 675 479 714 522 700 l 253 372 b 218 496 231 408 218 450 z m 643 496 b 431 278 643 378 560 278 b 306 317 382 278 339 292 l 608 619 b 643 496 631 583 643 542 z "},"Ω":{"ha":1000,"x_min":0,"x_max":0,"o":"m 42 0 l 472 0 l 472 250 b 319 599 406 263 319 376 b 493 903 319 765 374 903 b 681 582 600 903 681 779 b 528 250 681 331 581 264 l 528 0 l 958 0 l 958 250 l 883 250 l 850 172 l 636 139 l 636 197 b 944 604 826 306 944 347 b 514 993 944 819 769 993 b 56 563 188 917 56 781 b 347 193 56 332 199 228 l 347 139 l 150 172 l 117 250 l 42 250 z "},"∆":{"ha":939,"x_min":0,"x_max":0,"o":"m 28 0 l 911 0 l 911 99 l 511 993 l 449 965 l 28 97 z m 150 97 l 404 625 l 414 549 l 613 97 z "},"µ":{"ha":861,"x_min":0,"x_max":0,"o":"m 706 208 l 706 674 l 469 674 l 469 189 l 449 174 b 378 143 422 153 397 143 b 310 221 332 143 310 168 l 310 674 l 74 674 l 74 -319 l 324 -319 l 204 -56 l 204 19 b 343 -21 249 -7 294 -21 l 481 103 l 551 0 l 774 0 l 788 69 b 706 208 725 88 706 121 z "},"":{"ha":951,"x_min":0,"x_max":0,"o":"m 683 -40 l 688 -19 l 665 0 l 624 26 l 629 157 l 639 163 l 683 157 l 710 351 l 747 361 l 817 264 l 846 274 l 850 490 l 867 533 l 878 582 l 882 639 l 869 714 l 849 771 l 824 818 l 785 863 l 743 901 l 771 944 l 771 972 l 750 990 l 706 1004 l 661 1015 l 621 1050 l 594 1057 l 550 1057 l 528 1040 l 533 969 l 424 997 l 414 997 l 408 974 l 503 943 l 472 943 l 364 903 l 310 863 l 271 814 l 240 765 l 226 715 l 214 650 l 86 736 l 90 628 l 69 617 l 69 581 l 83 531 l 101 517 l 107 357 l 311 163 l 447 171 l 456 38 l 386 8 l 371 -7 l 372 -22 l 417 -22 l 458 -8 l 469 -17 l 490 -8 l 490 19 l 493 97 l 497 169 l 582 168 l 588 103 l 578 -3 l 589 -14 l 608 -14 l 642 -39 z m 331 750 l 307 754 l 321 758 l 344 786 l 326 807 l 286 790 l 321 838 l 361 869 l 435 906 l 497 924 l 565 924 l 571 913 l 554 894 l 501 897 l 486 882 l 467 868 l 461 839 l 472 832 l 486 843 l 528 857 l 526 828 l 531 817 l 538 808 l 522 797 l 508 767 l 497 767 l 497 792 l 483 797 l 474 790 l 468 771 l 457 767 l 432 783 l 388 783 l 338 750 z m 581 844 l 564 853 l 564 879 l 575 892 l 585 868 z m 647 783 l 639 817 l 628 819 l 601 804 l 594 813 l 599 829 l 611 838 l 611 850 l 629 857 l 629 885 l 664 875 l 664 868 l 685 856 l 661 817 l 674 792 l 665 783 z m 757 564 l 746 572 l 746 593 l 768 611 l 760 650 l 729 653 l 718 629 l 661 621 l 665 658 l 694 651 l 704 665 l 685 690 l 704 690 l 703 721 l 719 718 l 724 703 l 756 703 l 767 713 l 774 729 l 760 757 l 739 764 l 756 728 l 735 724 l 735 750 l 718 761 l 739 801 l 774 783 l 769 829 l 754 844 l 719 858 l 696 885 l 711 885 l 758 856 l 790 817 l 818 767 l 844 697 l 856 646 l 832 647 l 813 675 l 803 675 l 790 617 l 797 604 l 822 596 l 814 581 l 782 581 z m 682 714 l 671 718 l 671 731 l 682 736 l 685 724 z m 297 692 l 374 725 l 379 708 z m 550 682 l 482 706 l 488 722 l 554 688 z m 142 353 l 126 369 l 122 504 l 128 514 l 103 539 l 131 529 l 129 544 l 103 564 l 132 564 l 132 571 l 106 594 l 103 703 l 160 657 l 178 647 l 321 558 l 317 544 l 278 564 l 218 603 l 136 650 l 136 625 l 231 572 l 221 558 l 142 603 z m 357 600 l 340 608 l 321 629 l 317 656 l 344 657 l 342 647 l 360 639 l 340 636 l 339 631 l 347 619 l 367 621 l 383 639 l 375 653 l 406 658 l 403 640 l 394 624 l 372 607 z m 499 597 l 481 599 l 453 611 l 442 631 l 438 654 l 469 649 l 469 640 l 490 638 l 475 626 l 482 617 l 499 617 l 508 632 l 507 647 l 497 654 l 539 651 l 532 624 l 524 611 z m 321 181 l 321 307 l 328 408 l 326 471 l 247 508 l 263 514 l 329 486 l 338 547 l 347 560 l 439 564 l 724 564 l 729 554 l 729 539 l 535 544 l 372 539 l 369 508 l 483 508 l 472 499 l 369 499 l 367 486 l 476 486 l 461 472 l 358 472 l 354 342 l 417 329 l 413 321 l 353 325 l 351 294 l 417 285 l 415 272 l 349 281 l 349 258 l 410 250 l 406 238 l 349 242 l 346 186 z m 776 536 l 776 550 l 790 556 l 790 546 l 783 536 z m 528 467 l 532 515 l 607 508 l 601 467 z m 282 321 l 193 382 l 193 449 l 192 486 l 194 504 l 194 514 l 286 460 l 281 404 z m 750 417 b 728 433 750 417 729 435 l 736 500 l 760 504 l 779 494 l 793 490 l 813 490 l 822 483 l 807 458 l 789 440 l 761 419 z m 649 481 l 649 499 l 715 499 l 710 486 z m 665 197 l 628 199 l 636 247 l 563 257 l 568 264 l 636 264 l 639 276 l 568 283 l 579 292 l 646 288 l 657 372 l 631 376 l 633 419 l 633 428 l 635 461 l 710 460 l 706 433 l 700 419 l 671 426 l 664 419 l 706 399 l 664 407 l 661 400 l 700 378 l 693 374 l 665 372 l 667 361 l 688 357 l 682 307 z m 446 419 l 446 433 l 547 433 l 547 419 z m 818 325 l 764 392 l 810 429 l 818 433 z m 547 376 l 439 382 l 447 400 l 547 390 z m 439 347 l 439 361 l 533 356 l 533 347 z m 281 263 l 211 319 l 183 351 l 286 282 z m 528 224 l 439 232 l 439 303 l 528 297 z "},"ℓ":{"ha":711,"x_min":0,"x_max":0,"o":"m 350 136 l 350 388 b 656 750 515 471 656 583 b 422 997 656 894 549 994 l 135 822 l 135 421 b 56 389 108 410 82 400 l 56 264 l 135 294 l 135 6 l 292 -25 l 613 139 l 572 192 z m 350 844 l 375 858 b 454 729 418 858 454 807 b 350 535 454 646 413 583 z "},"℮":{"ha":1153,"x_min":0,"x_max":0,"o":"m 563 -21 b 1050 306 833 42 982 118 l 828 306 b 606 83 819 194 719 83 b 321 340 461 83 347 167 l 321 461 l 1083 461 l 1083 528 b 590 993 1072 793 875 993 b 69 465 208 889 69 768 b 563 -21 69 189 269 -21 z m 321 556 l 321 694 b 547 889 333 806 431 889 b 828 689 688 889 792 819 l 828 556 z "},"$":{"ha":863,"x_min":0,"x_max":0,"o":"m 801 300 b 589 568 801 419 749 486 l 472 628 l 472 885 b 608 810 521 878 565 853 l 650 681 l 767 681 l 767 917 b 472 997 685 964 575 994 l 472 1085 l 392 1085 l 392 981 b 78 701 183 924 78 829 b 275 444 78 593 138 515 l 392 385 l 392 93 b 243 188 340 101 290 133 l 196 319 l 64 319 l 94 69 b 392 -25 188 11 297 -24 l 392 -111 l 472 -111 l 472 -4 b 801 300 710 71 801 158 z m 301 786 b 392 881 301 832 336 867 l 392 669 b 301 786 328 703 301 738 z m 472 97 l 472 342 b 557 217 531 307 557 267 b 472 97 557 157 525 114 z "},"¢":{"ha":714,"x_min":0,"x_max":0,"o":"m 679 118 l 635 189 b 507 144 607 168 560 144 b 306 386 385 144 306 251 b 404 596 306 525 354 596 b 435 585 418 596 425 593 l 463 421 l 663 421 l 663 624 b 428 694 611 668 535 694 l 428 764 l 303 764 l 303 650 b 56 313 157 585 56 479 b 308 -10 56 150 156 28 l 308 -111 l 433 -111 l 433 -14 b 679 118 540 21 615 64 z "},"£":{"ha":817,"x_min":0,"x_max":0,"o":"m 667 214 l 601 96 l 372 92 b 421 249 376 93 421 117 l 421 428 l 596 428 l 596 528 l 421 528 l 421 689 b 522 903 421 772 403 903 b 601 875 567 903 586 889 l 625 771 l 736 771 l 736 925 b 539 993 701 967 640 993 b 178 722 393 958 178 875 l 178 528 l 147 528 l 56 451 l 56 428 l 178 428 l 178 110 l 67 47 l 74 -1 l 265 3 l 726 -1 l 761 214 z "},"ƒ":{"ha":583,"x_min":0,"x_max":0,"o":"m -21 -326 l 113 -326 l 225 -218 b 389 106 283 -162 389 -67 l 389 550 l 572 550 l 572 640 l 389 640 l 389 669 b 407 801 389 722 389 768 l 424 832 l 604 832 l 604 988 l 401 988 l 242 843 b 153 665 182 789 153 735 l 153 647 l 101 647 l 47 585 l 47 550 l 153 550 l 153 78 b 135 -110 153 -47 149 -74 l 122 -143 l -21 -143 z "},"¥":{"ha":989,"x_min":0,"x_max":0,"o":"m 961 900 l 954 975 l 825 972 l 679 976 l 672 900 l 765 883 l 560 431 l 554 533 l 382 882 l 472 900 l 465 976 l 247 972 l 35 976 l 28 900 l 110 882 l 376 386 l 203 386 l 203 310 l 382 310 l 382 243 l 203 243 l 203 167 l 383 167 l 383 93 l 238 75 l 244 -1 l 504 3 l 765 -1 l 772 75 l 626 93 l 626 167 l 821 167 l 821 243 l 626 243 l 626 310 l 821 310 l 821 386 l 633 386 l 881 883 z "},"€":{"ha":996,"x_min":0,"x_max":0,"o":"m 638 885 b 796 806 707 885 767 854 l 836 660 l 940 660 l 940 875 b 649 993 839 954 742 993 b 151 632 358 942 200 826 l 63 632 l 63 528 l 136 528 b 135 485 135 514 135 500 b 136 444 135 471 135 457 l 63 444 l 63 340 l 150 340 b 638 -21 200 111 378 -21 b 938 97 728 0 861 53 l 899 167 b 678 111 839 133 744 111 b 424 340 547 111 460 194 l 569 340 l 639 444 l 408 444 b 406 511 407 465 406 488 l 406 528 l 681 528 l 750 632 l 414 632 b 638 885 439 792 517 885 z "},"¤":{"ha":861,"x_min":0,"x_max":0,"o":"m 171 171 l 249 250 b 431 190 300 213 363 190 b 613 250 499 190 561 213 l 690 171 l 756 236 l 676 314 b 736 496 714 365 736 428 b 676 678 736 564 714 626 l 756 756 l 690 821 l 613 742 b 431 801 561 779 499 801 b 249 742 363 801 300 779 l 171 821 l 106 756 l 185 678 b 125 496 147 626 125 564 b 185 314 125 428 147 365 l 106 236 z m 431 286 b 221 496 303 286 221 375 b 431 706 221 617 303 706 b 640 496 558 706 640 617 b 431 286 640 375 558 286 z "},"ﬁ":{"ha":949,"x_min":0,"x_max":0,"o":"m 71 -1 l 207 3 l 453 1 l 460 75 l 369 93 l 369 550 l 565 550 l 625 564 l 615 500 l 615 93 l 546 75 l 553 -1 l 733 3 l 914 -1 l 921 75 l 851 93 l 851 676 l 756 676 l 563 640 l 369 640 l 369 669 b 388 801 369 746 374 776 l 404 832 l 674 832 l 810 790 l 857 790 l 857 988 l 382 988 l 222 843 b 133 665 161 788 133 733 l 133 647 l 82 647 l 28 585 l 28 550 l 133 550 l 133 93 l 64 75 z "},"ﬂ":{"ha":951,"x_min":0,"x_max":0,"o":"m 71 -1 l 203 3 l 467 -1 l 474 75 l 369 93 l 369 550 l 625 550 l 625 93 l 556 75 l 563 -1 l 743 3 l 924 -1 l 931 75 l 861 93 l 861 990 l 772 990 l 654 988 l 382 988 l 222 843 b 133 665 163 789 133 735 l 133 647 l 82 647 l 28 585 l 28 550 l 133 550 l 133 93 l 64 75 z m 369 640 l 369 669 b 388 801 369 722 369 768 l 404 832 l 544 832 l 625 861 l 625 640 z "},"⁄":{"ha":199,"x_min":0,"x_max":0,"o":"m -222 -69 l -114 -69 l 421 986 l 315 986 z "},"¼":{"ha":1214,"x_min":0,"x_max":0,"o":"m 250 -69 l 358 -69 l 893 986 l 788 986 z m 54 436 l 243 439 l 425 436 l 429 488 l 322 500 l 322 976 l 229 976 l 42 892 l 63 847 l 126 853 l 169 885 l 157 856 l 157 500 l 50 488 z m 946 0 l 1083 0 l 1083 113 l 1172 113 l 1172 219 l 1083 219 l 1083 363 l 1057 363 l 946 271 l 946 219 l 854 219 l 810 200 l 1101 472 l 1101 535 l 985 535 l 713 189 l 753 113 l 946 113 z "},"½":{"ha":1215,"x_min":0,"x_max":0,"o":"m 250 -69 l 358 -69 l 893 986 l 788 986 z m 54 436 l 243 439 l 425 436 l 429 488 l 322 500 l 322 976 l 229 976 l 42 892 l 63 847 l 126 853 l 169 885 l 157 856 l 157 500 l 50 488 z m 721 0 l 1113 0 l 1146 69 l 1146 115 l 926 115 l 796 72 l 944 165 b 1139 400 1067 242 1139 306 b 942 546 1139 488 1057 546 l 725 488 l 725 369 l 851 369 l 874 479 b 922 486 889 485 904 486 b 974 410 956 486 974 458 b 853 192 974 349 940 278 l 700 40 z "},"¾":{"ha":1254,"x_min":0,"x_max":0,"o":"m 290 -69 l 399 -69 l 933 986 l 828 986 z m 63 438 l 164 438 l 289 497 b 456 642 365 533 456 576 b 285 765 456 701 410 757 b 424 881 379 790 424 821 b 264 983 424 935 389 983 l 49 925 l 49 807 l 174 807 l 194 914 b 224 919 204 918 217 919 b 268 846 253 919 268 893 b 203 749 268 794 246 767 l 181 739 l 188 700 b 288 617 260 700 288 665 b 282 565 288 604 286 586 l 63 565 z m 986 0 l 1124 0 l 1124 113 l 1213 113 l 1213 219 l 1124 219 l 1124 363 l 1097 363 l 986 271 l 986 219 l 894 219 l 850 200 l 1142 472 l 1142 535 l 1025 535 l 753 189 l 793 113 l 986 113 z "},"%":{"ha":1149,"x_min":0,"x_max":0,"o":"m 156 -7 l 304 -7 l 992 979 l 843 979 z m 269 486 b 538 746 408 518 538 576 b 319 976 538 888 442 976 b 56 718 185 946 56 888 b 269 486 56 575 151 486 z m 303 549 b 226 775 267 549 226 613 b 285 915 226 885 253 915 b 360 688 321 915 360 851 b 303 549 360 579 335 549 z m 825 0 b 1093 260 964 32 1093 90 b 875 490 1093 401 997 490 b 611 232 740 460 611 401 b 825 0 611 89 707 0 z m 858 63 b 782 289 822 63 782 126 b 840 429 782 399 808 429 b 915 201 876 429 915 365 b 858 63 915 93 890 63 z "},"‰":{"ha":1682,"x_min":0,"x_max":0,"o":"m 156 -7 l 304 -7 l 992 979 l 843 979 z m 269 486 b 538 746 408 518 538 576 b 319 976 538 888 442 976 b 56 718 185 946 56 888 b 269 486 56 575 151 486 z m 303 549 b 226 775 267 549 226 613 b 285 915 226 885 253 915 b 360 688 321 915 360 851 b 303 549 360 579 335 549 z m 825 0 b 1093 260 964 32 1093 90 b 875 490 1093 401 997 490 b 611 232 740 460 611 401 b 825 0 611 89 707 0 z m 1358 0 b 1626 260 1497 32 1626 90 b 1408 490 1626 401 1531 490 b 1144 232 1274 460 1144 401 b 1358 0 1144 89 1240 0 z m 858 63 b 782 289 822 63 782 126 b 840 429 782 399 808 429 b 915 201 876 429 915 365 b 858 63 915 93 890 63 z m 1392 63 b 1315 289 1356 63 1315 126 b 1374 429 1315 399 1342 429 b 1449 201 1410 429 1449 365 b 1392 63 1449 93 1424 63 z "},"μ":{"ha":861,"x_min":0,"x_max":0,"o":"m 706 208 l 706 674 l 469 674 l 469 189 l 449 174 b 378 143 422 153 397 143 b 310 221 332 143 310 168 l 310 674 l 74 674 l 74 -319 l 324 -319 l 204 -56 l 204 19 b 343 -21 249 -7 294 -21 l 481 103 l 551 0 l 774 0 l 788 69 b 706 208 725 88 706 121 z "},"#":{"ha":874,"x_min":0,"x_max":0,"o":"m 175 0 l 293 0 l 325 271 l 499 271 l 467 0 l 585 0 l 617 271 l 771 271 l 782 368 l 629 368 l 651 542 l 807 542 l 818 639 l 663 639 l 696 910 l 578 910 l 544 639 l 371 639 l 404 910 l 286 910 l 253 639 l 103 639 l 92 542 l 242 542 l 219 368 l 67 368 l 56 271 l 207 271 z m 338 368 l 360 542 l 533 542 l 511 368 z "},"№":{"ha":1403,"x_min":0,"x_max":0,"o":"m 64 0 l 251 0 l 251 722 l 289 606 l 647 0 l 776 0 l 776 888 l 881 904 l 874 974 l 672 974 l 672 375 l 633 486 l 319 974 l 164 969 l 49 974 l 42 897 l 147 869 l 147 90 l 57 61 z m 1074 174 b 1339 433 1257 204 1339 285 b 1125 674 1339 578 1253 674 b 846 414 933 644 846 563 b 1074 174 846 269 938 174 z m 1115 271 b 1033 457 1064 271 1033 340 b 1083 576 1033 533 1051 576 b 1151 390 1126 576 1151 507 b 1115 271 1151 313 1139 271 z m 846 0 l 1340 0 l 1340 118 l 846 118 z "},"Δ":{"ha":939,"x_min":0,"x_max":0,"o":"m 28 0 l 911 0 l 911 99 l 511 993 l 449 965 l 28 97 z m 150 97 l 404 625 l 414 549 l 613 97 z "},"Ω":{"ha":1000,"x_min":0,"x_max":0,"o":"m 42 0 l 472 0 l 472 250 b 319 599 406 263 319 376 b 493 903 319 765 374 903 b 681 582 600 903 681 779 b 528 250 681 331 581 264 l 528 0 l 958 0 l 958 250 l 883 250 l 850 172 l 636 139 l 636 197 b 944 604 826 306 944 347 b 514 993 944 819 769 993 b 56 563 188 917 56 781 b 347 193 56 332 199 228 l 347 139 l 150 172 l 117 250 l 42 250 z "},"π":{"ha":861,"x_min":0,"x_max":0,"o":"m 158 0 l 388 0 l 388 549 l 490 549 l 490 103 l 550 0 l 788 0 l 801 69 b 719 236 758 82 719 121 l 719 549 l 858 549 l 858 674 l 3 674 l 3 444 l 75 444 l 111 549 l 158 549 z "},"+":{"ha":861,"x_min":0,"x_max":0,"o":"m 371 0 l 489 0 l 489 294 l 788 294 l 788 413 l 489 413 l 489 715 l 371 715 l 371 413 l 72 413 l 72 294 l 371 294 z "},"−":{"ha":861,"x_min":0,"x_max":0,"o":"m 65 333 l 794 333 l 794 451 l 65 451 z "},"±":{"ha":861,"x_min":0,"x_max":0,"o":"m 371 179 l 489 179 l 489 474 l 788 474 l 788 592 l 489 592 l 489 894 l 371 894 l 371 592 l 72 592 l 72 474 l 371 474 z m 72 0 l 774 0 l 774 118 l 72 118 z "},"×":{"ha":861,"x_min":0,"x_max":0,"o":"m 221 -3 l 432 208 l 640 0 l 724 83 l 515 292 l 726 503 l 643 588 l 432 375 l 217 590 l 133 507 l 349 292 l 136 81 z "},"÷":{"ha":861,"x_min":0,"x_max":0,"o":"m 388 511 l 528 521 l 540 613 l 528 715 l 474 728 l 333 715 l 324 626 l 333 521 z m 65 306 l 794 306 l 794 424 l 65 424 z m 388 -10 l 528 0 l 540 92 l 528 194 l 474 207 l 333 194 l 324 106 l 333 0 z "},"=":{"ha":861,"x_min":0,"x_max":0,"o":"m 72 417 l 788 417 l 788 535 l 72 535 z m 72 146 l 788 146 l 788 264 l 72 264 z "},"<":{"ha":861,"x_min":0,"x_max":0,"o":"m 792 35 l 792 167 l 219 399 l 792 631 l 792 761 l 69 439 l 69 356 z "},">":{"ha":861,"x_min":0,"x_max":0,"o":"m 69 35 l 792 356 l 792 439 l 69 761 l 69 631 l 642 399 l 69 167 z "},"°":{"ha":585,"x_min":0,"x_max":0,"o":"m 292 600 b 515 824 447 635 515 700 b 293 1046 515 944 436 1046 b 69 822 138 1011 69 946 b 292 600 69 701 149 600 z m 292 686 b 172 824 226 686 172 732 b 293 960 172 914 226 960 b 413 822 358 960 413 914 b 292 686 413 732 358 686 z "},"≈":{"ha":861,"x_min":0,"x_max":0,"o":"m 35 403 l 111 403 l 171 457 l 642 379 l 771 438 l 825 556 l 749 556 l 689 501 l 222 579 l 86 514 z m 36 139 l 113 139 l 172 193 l 643 115 l 772 174 l 826 292 l 750 292 l 690 238 l 224 315 l 88 250 z "},"≥":{"ha":861,"x_min":0,"x_max":0,"o":"m 69 138 l 792 458 l 792 542 l 69 864 l 69 733 l 642 501 l 69 269 z m 76 0 l 778 0 l 778 118 l 76 118 z "},"∞":{"ha":1146,"x_min":0,"x_max":0,"o":"m 297 179 b 500 278 363 179 449 222 l 542 321 b 838 179 610 254 721 179 b 1063 425 1004 235 1063 311 b 846 653 1063 551 985 653 b 647 546 779 653 697 606 l 611 503 b 308 653 539 569 429 653 b 83 403 142 597 83 500 b 297 179 83 276 165 179 z m 851 382 b 674 446 792 382 713 408 l 717 469 b 844 500 754 490 799 500 b 974 444 933 500 974 479 b 851 382 974 408 906 382 z m 296 318 b 169 390 215 318 169 351 b 293 447 169 429 222 449 b 479 378 364 446 438 406 l 443 354 b 296 318 397 329 349 318 z "},"≤":{"ha":861,"x_min":0,"x_max":0,"o":"m 792 138 l 792 269 l 219 501 l 792 733 l 792 864 l 69 542 l 69 458 z m 81 0 l 782 0 l 782 118 l 81 118 z "},"¬":{"ha":861,"x_min":0,"x_max":0,"o":"m 669 250 l 788 250 l 788 521 l 72 521 l 72 403 l 669 403 z "},"≠":{"ha":861,"x_min":0,"x_max":0,"o":"m 92 0 l 221 0 l 343 146 l 788 146 l 788 264 l 442 264 l 569 417 l 788 417 l 788 535 l 668 535 l 779 667 l 653 667 l 542 535 l 72 535 l 72 417 l 443 417 l 314 264 l 72 264 l 72 146 l 214 146 z "},"∫":{"ha":861,"x_min":0,"x_max":0,"o":"m 124 -326 l 257 -326 l 369 -218 b 533 106 428 -162 533 -67 l 533 694 b 551 804 533 751 540 779 l 565 833 l 738 833 l 738 986 l 576 986 l 428 890 b 297 706 357 844 297 775 l 297 78 b 279 -110 297 -47 293 -74 l 267 -143 l 124 -143 z "},"∂":{"ha":861,"x_min":0,"x_max":0,"o":"m 318 1000 l 274 917 b 536 594 374 872 482 772 l 375 661 b 82 346 214 649 82 550 b 436 -21 82 124 251 11 b 778 374 642 7 778 97 b 318 1000 778 636 639 885 z m 442 69 b 328 354 385 69 328 165 b 444 557 328 508 371 557 b 538 525 465 557 496 546 l 554 517 b 568 388 561 476 567 433 b 442 69 576 140 492 69 z "},"∏":{"ha":1024,"x_min":0,"x_max":0,"o":"m 35 -222 l 254 -218 l 438 -222 l 444 -146 l 382 -128 l 382 872 l 649 872 l 649 -128 l 579 -146 l 586 -222 l 778 -218 l 989 -222 l 996 -146 l 906 -128 l 906 879 l 996 897 l 989 974 l 778 969 l 199 969 l 35 974 l 28 897 l 125 879 l 125 -128 l 28 -146 z "},"√":{"ha":861,"x_min":0,"x_max":0,"o":"m 186 -28 l 376 19 l 771 1125 l 989 1125 l 1017 1231 l 703 1231 l 328 139 l 314 246 l 168 653 l -146 653 l -156 583 l -61 569 z "},"∑":{"ha":861,"x_min":0,"x_max":0,"o":"m 81 -222 l 761 -222 l 810 76 l 729 76 l 661 -14 l 272 -35 l 633 415 l 633 457 l 382 882 l 635 875 l 699 722 l 774 722 l 774 972 l 94 972 l 64 917 l 424 313 l 50 -167 z "},"◊":{"ha":861,"x_min":0,"x_max":0,"o":"m 397 -22 l 460 6 l 796 513 l 464 993 l 401 965 l 65 458 z m 499 233 l 489 282 l 253 597 l 365 768 l 375 719 l 603 403 z "},"̈":{"ha":0,"x_min":0,"x_max":0,"o":"m -522 788 l -412 797 l -393 874 l -404 963 l -450 972 l -562 963 l -579 888 l -569 797 z m -244 788 l -133 797 l -115 874 l -125 963 l -172 972 l -283 963 l -301 888 l -290 797 z "},"̇":{"ha":0,"x_min":0,"x_max":0,"o":"m -358 782 l -268 792 l -249 875 l -258 974 l -335 983 l -432 976 l -450 892 l -440 792 z "},"̀":{"ha":0,"x_min":0,"x_max":0,"o":"m -324 776 l -215 776 l -271 986 l -479 986 z "},"́":{"ha":0,"x_min":0,"x_max":0,"o":"m -479 776 l -371 776 l -215 986 l -424 986 z "},"̋":{"ha":0,"x_min":0,"x_max":0,"o":"m -612 776 l -504 776 l -349 986 l -557 986 z m -347 776 l -239 776 l -83 986 l -292 986 z "},"̂":{"ha":0,"x_min":0,"x_max":0,"o":"m -572 776 l -450 776 l -371 851 l -347 892 l -324 851 l -244 776 l -122 776 l -289 986 l -406 986 z "},"̌":{"ha":0,"x_min":0,"x_max":0,"o":"m -390 776 l -260 776 l -100 986 l -222 986 l -301 903 l -325 863 l -349 903 l -428 986 l -550 986 z "},"̆":{"ha":0,"x_min":0,"x_max":0,"o":"m -322 781 b -125 935 -218 813 -162 861 l -179 976 b -343 894 -206 946 -260 894 b -507 976 -426 894 -481 946 l -561 935 b -322 781 -524 853 -439 781 z "},"̊":{"ha":0,"x_min":0,"x_max":0,"o":"m -343 764 b -176 917 -251 800 -176 804 b -347 1075 -176 1038 -251 1075 b -518 917 -435 1050 -518 1019 b -343 764 -518 800 -428 764 z m -346 838 b -429 917 -393 838 -429 869 b -346 1001 -429 963 -393 1001 b -262 917 -299 1001 -262 963 b -346 838 -262 869 -299 838 z "},"̃":{"ha":0,"x_min":0,"x_max":0,"o":"m -249 790 l -146 814 l -103 979 l -156 979 l -196 910 l -447 982 l -551 951 l -592 793 l -539 793 l -500 863 z "},"̄":{"ha":0,"x_min":0,"x_max":0,"o":"m -556 819 l -139 819 l -139 931 l -556 931 z "},"̒":{"ha":0,"x_min":0,"x_max":0,"o":"m -444 776 l -250 776 l -250 832 l -282 881 l -250 988 l -329 1001 l -444 888 z "},"̦":{"ha":0,"x_min":0,"x_max":0,"o":"m -365 -340 l -250 -181 l -250 -69 l -444 -69 l -444 -125 l -412 -174 l -444 -326 z "},"̧":{"ha":0,"x_min":0,"x_max":0,"o":"m -504 -340 l -417 -340 l -346 -312 b -192 -153 -282 -287 -192 -247 b -304 -65 -192 -96 -233 -65 l -246 22 l -325 22 l -424 -111 b -340 -187 -385 -111 -340 -131 b -375 -271 -340 -218 -351 -253 l -464 -271 z "},"̨":{"ha":0,"x_min":0,"x_max":0,"o":"m -199 -340 l -199 -275 b -342 -185 -342 -275 -342 -218 l -342 -139 l -276 65 l -339 65 l -497 -104 l -497 -207 b -199 -340 -497 -296 -418 -340 z "}," ":{"ha":1389,"x_min":0,"x_max":0,"o":""}," ":{"ha":694,"x_min":0,"x_max":0,"o":""}," ":{"ha":347,"x_min":0,"x_max":0,"o":""}," ":{"ha":104,"x_min":0,"x_max":0,"o":""}," ":{"ha":326,"x_min":0,"x_max":0,"o":""}," ":{"ha":188,"x_min":0,"x_max":0,"o":""}," ":{"ha":463,"x_min":0,"x_max":0,"o":""},"ſ":{"ha":564,"x_min":0,"x_max":0,"o":"m 71 -1 l 207 1 l 494 -1 l 501 75 l 369 93 l 369 669 b 388 801 369 722 369 769 l 404 831 l 585 831 l 585 986 l 382 986 l 222 843 b 133 665 163 789 133 735 l 133 647 l 82 647 l 28 585 l 28 550 l 133 550 l 133 93 l 64 75 z "},"①":{"ha":1100,"x_min":0,"x_max":0,"o":"m 551 -21 b 1058 478 856 24 1058 186 b 549 993 1058 803 821 990 b 42 494 244 949 42 786 b 551 -21 42 169 279 -18 z m 549 63 b 153 494 388 63 153 197 b 551 910 153 757 339 910 b 947 478 713 910 947 775 b 549 63 947 215 761 63 z m 372 225 l 561 228 l 743 225 l 747 276 l 640 289 l 640 765 l 547 765 l 360 681 l 381 636 l 444 642 l 488 674 l 475 644 l 475 289 l 368 276 z "},"②":{"ha":1100,"x_min":0,"x_max":0,"o":"m 551 -21 b 1058 478 856 24 1058 186 b 549 993 1058 803 821 990 b 42 494 244 949 42 786 b 551 -21 42 169 279 -18 z m 549 63 b 153 494 388 63 153 197 b 551 910 153 757 339 910 b 947 478 713 910 947 775 b 549 63 947 215 761 63 z m 342 233 l 733 233 l 767 303 l 767 349 l 547 349 l 417 306 l 565 399 b 760 633 688 475 760 539 b 563 779 760 721 678 779 l 346 721 l 346 603 l 472 603 l 494 713 b 543 719 510 718 525 719 b 594 643 576 719 594 692 b 474 425 594 582 561 511 l 321 274 z "},"③":{"ha":1100,"x_min":0,"x_max":0,"o":"m 551 -21 b 1058 478 878 26 1058 204 b 549 993 1058 776 847 990 b 42 494 222 946 42 768 b 551 -21 42 196 253 -18 z m 549 63 b 153 494 332 63 153 258 b 551 910 153 736 319 910 b 947 478 768 910 947 714 b 549 63 947 236 781 63 z m 382 207 l 483 207 l 608 269 b 775 419 735 332 775 372 b 604 535 775 490 722 526 b 743 650 704 561 743 593 b 583 753 743 717 688 753 l 368 694 l 368 576 l 493 576 l 514 683 b 543 689 525 688 535 689 b 588 615 572 689 588 663 b 522 518 588 567 568 538 l 500 508 l 507 469 b 607 386 572 469 607 440 b 601 335 607 368 606 350 l 382 335 z "},"④":{"ha":1100,"x_min":0,"x_max":0,"o":"m 551 -21 b 1058 478 856 24 1058 186 b 549 993 1058 803 821 990 b 42 494 244 949 42 786 b 551 -21 42 169 279 -18 z m 549 63 b 153 494 388 63 153 197 b 551 910 153 757 339 910 b 947 478 713 910 947 775 b 549 63 947 215 761 63 z m 513 228 l 650 228 l 650 340 l 739 340 l 739 447 l 650 447 l 650 590 l 624 590 l 513 499 l 513 447 l 421 447 l 376 428 l 668 700 l 668 763 l 551 763 l 279 417 l 319 340 l 513 340 z "},"⑤":{"ha":1100,"x_min":0,"x_max":0,"o":"m 551 -21 b 1058 478 856 24 1058 186 b 549 993 1058 803 821 990 b 42 494 244 949 42 786 b 551 -21 42 169 279 -18 z m 549 63 b 153 494 388 63 153 197 b 551 910 153 757 339 910 b 947 478 713 910 947 775 b 549 63 947 215 761 63 z m 375 210 l 476 210 l 576 267 b 751 443 674 322 751 368 b 579 571 751 554 653 571 l 428 501 l 444 629 l 717 629 l 750 699 l 750 744 l 410 744 l 374 472 l 397 449 l 425 461 b 508 485 454 475 476 485 b 583 410 563 485 583 456 b 571 338 583 388 579 364 l 375 338 z "},"⑥":{"ha":1100,"x_min":0,"x_max":0,"o":"m 549 993 b 42 494 244 949 42 786 b 551 -21 42 169 279 -18 b 1058 478 856 24 1058 186 b 549 993 1058 803 821 990 z m 549 63 b 153 494 388 63 153 197 b 551 910 153 757 339 910 b 947 478 713 910 947 775 b 549 63 947 215 761 63 z m 594 579 l 492 499 b 694 733 501 642 551 690 l 682 783 b 318 433 417 704 318 576 b 517 221 318 300 393 221 b 760 421 636 251 760 286 b 594 579 760 496 710 579 z m 549 276 b 490 439 510 276 490 339 b 556 472 524 463 539 472 b 592 376 578 472 592 438 b 549 276 592 301 574 276 z "},"⑦":{"ha":1100,"x_min":0,"x_max":0,"o":"m 551 -21 b 1058 478 856 24 1058 186 b 549 993 1058 803 821 990 b 42 494 244 949 42 786 b 551 -21 42 169 279 -18 z m 549 63 b 153 494 388 63 153 197 b 551 910 153 757 339 910 b 947 478 713 910 947 775 b 549 63 947 215 761 63 z m 408 208 l 535 208 l 793 704 l 757 743 l 379 743 l 379 615 l 625 615 l 678 653 l 408 279 z "},"⑧":{"ha":1100,"x_min":0,"x_max":0,"o":"m 549 993 b 42 494 244 949 42 786 b 551 -21 42 169 279 -18 b 1058 478 856 24 1058 186 b 549 993 1058 803 821 990 z m 549 63 b 153 494 388 63 153 197 b 551 910 153 757 339 910 b 947 478 713 910 947 775 b 549 63 947 215 761 63 z m 635 531 b 753 643 710 554 753 585 b 554 764 753 710 675 764 b 349 615 419 733 349 688 b 463 465 349 557 394 504 b 342 343 363 431 342 394 b 549 207 342 258 429 207 b 772 372 688 251 772 283 b 635 531 772 435 721 486 z m 553 708 b 597 643 581 708 597 675 b 569 561 597 599 581 575 b 514 656 535 582 514 617 b 553 708 514 690 526 708 z m 553 263 b 500 342 526 263 500 290 b 518 435 500 378 507 407 l 526 429 b 600 333 567 407 600 383 b 553 263 600 283 581 263 z "},"⑨":{"ha":1100,"x_min":0,"x_max":0,"o":"m 549 993 b 42 494 244 949 42 786 b 551 -21 42 169 279 -18 b 1058 478 856 24 1058 186 b 549 993 1058 803 821 990 z m 549 63 b 153 494 388 63 153 197 b 551 910 153 757 339 910 b 947 478 713 910 947 775 b 549 63 947 215 761 63 z m 571 764 b 328 564 451 733 328 699 b 493 406 328 489 379 406 l 596 486 b 392 247 585 340 535 290 l 404 199 b 769 551 669 278 769 407 b 571 764 769 685 694 764 z m 496 608 b 539 708 496 683 514 708 b 597 547 578 708 597 643 b 531 513 561 522 544 513 b 496 608 507 513 496 547 z "},"¹":{"ha":472,"x_min":0,"x_max":0,"o":"m 54 554 l 243 557 l 425 554 l 429 606 l 322 618 l 322 1094 l 229 1094 l 42 1010 l 63 965 l 126 971 l 169 1003 l 157 974 l 157 618 l 50 606 z "},"²":{"ha":544,"x_min":0,"x_max":0,"o":"m 50 556 l 442 556 l 475 625 l 475 671 l 256 671 l 125 628 l 274 721 b 468 956 396 797 468 861 b 271 1101 468 1043 386 1101 l 54 1043 l 54 925 l 181 925 l 203 1035 b 251 1042 218 1040 233 1042 b 303 965 285 1042 303 1014 b 182 747 303 904 269 833 l 29 596 z "},"³":{"ha":513,"x_min":0,"x_max":0,"o":"m 63 556 l 164 556 l 289 615 b 456 760 365 651 456 694 b 285 883 456 819 410 875 b 424 999 379 908 424 939 b 264 1101 424 1053 389 1101 l 49 1043 l 49 925 l 174 925 l 194 1032 b 224 1038 204 1036 217 1038 b 268 964 253 1038 268 1011 b 203 867 268 913 246 885 l 181 857 l 188 818 b 288 735 260 818 288 783 b 282 683 288 722 286 704 l 63 683 z "},"฿":{"ha":925,"x_min":0,"x_max":0,"o":"m 593 521 b 854 753 754 547 854 636 b 611 974 854 860 778 975 l 521 972 l 521 1085 l 454 1085 l 454 972 l 213 969 l 49 974 l 42 899 l 139 881 l 139 93 l 42 75 l 49 -1 l 213 3 l 454 0 l 454 -111 l 521 -111 l 521 -1 l 542 -1 b 904 276 746 25 904 111 b 593 521 904 419 799 511 z m 396 888 l 454 897 l 454 546 l 396 546 z m 597 731 b 521 558 597 653 569 586 l 521 888 b 597 731 576 864 597 804 z m 396 86 l 396 476 l 454 476 l 454 76 z m 521 82 l 521 471 b 647 275 601 450 647 374 b 521 82 647 200 614 108 z "},"₿":{"ha":925,"x_min":0,"x_max":0,"o":"m 904 276 b 593 521 904 419 799 511 b 854 753 754 547 854 636 b 611 974 854 860 778 975 l 563 974 l 563 1085 l 496 1085 l 496 972 l 410 971 l 410 1085 l 343 1085 l 343 971 l 213 969 l 49 974 l 42 899 l 139 881 l 139 93 l 42 75 l 49 -1 l 213 3 l 343 1 l 343 -111 l 410 -111 l 410 0 l 496 -1 l 496 -111 l 563 -111 l 563 1 b 904 276 757 31 904 117 z m 597 731 b 469 546 597 629 550 546 l 396 546 l 396 888 l 458 899 b 597 731 563 899 597 826 z m 465 75 l 396 86 l 396 476 l 475 476 b 647 275 583 476 647 390 b 465 75 647 186 601 75 z "},"₴":{"ha":814,"x_min":0,"x_max":0,"o":"m 739 590 b 765 701 756 624 765 660 b 386 997 765 815 686 931 b 76 917 276 997 160 965 l 76 681 l 193 681 l 235 810 b 397 886 274 850 325 886 b 542 786 493 886 542 839 b 447 667 542 735 511 700 l 297 590 l -21 590 l -21 528 l 806 528 l 806 590 z m -21 399 l 58 399 b 42 300 44 368 42 336 b 444 -25 42 122 194 43 b 749 69 547 -25 660 14 l 779 319 l 647 319 l 600 188 b 422 90 557 138 499 90 b 286 217 346 90 286 133 b 396 356 286 267 313 314 l 479 399 l 806 399 l 806 461 l -21 461 z "},"₺":{"ha":925,"x_min":0,"x_max":0,"o":"m 964 467 l 771 463 l 557 467 l 550 392 l 647 374 b 465 75 647 165 601 75 l 396 86 l 396 426 l 647 558 l 647 635 l 396 503 l 396 569 l 647 701 l 647 778 l 396 646 l 396 881 l 493 899 l 486 974 l 263 969 l 49 974 l 42 899 l 139 881 l 139 510 l 15 444 l 15 368 l 139 433 l 139 367 l 15 301 l 15 225 l 139 290 l 139 93 l 42 75 l 49 -1 l 213 3 l 542 -1 b 904 374 746 24 904 90 l 971 392 z "},"₽":{"ha":907,"x_min":0,"x_max":0,"o":"m 507 408 b 900 724 697 474 900 538 b 611 974 900 889 771 975 l 264 969 l 49 974 l 42 899 l 139 881 l 139 507 l 42 507 l 42 408 l 139 408 l 139 353 l 42 353 l 42 258 l 139 258 l 139 93 l 42 75 l 49 -1 l 268 3 l 556 -1 l 563 75 l 396 93 l 396 258 l 728 258 l 728 353 l 396 353 l 396 408 z m 396 888 l 458 899 b 629 707 543 899 629 832 b 474 507 629 575 550 507 l 396 507 z "},"₹":{"ha":749,"x_min":0,"x_max":0,"o":"m 618 681 l 686 681 l 742 775 l 621 775 b 571 881 614 817 597 851 l 686 881 l 742 974 l 42 974 l 42 881 l 203 881 b 344 775 268 881 324 844 l 42 775 l 42 681 l 353 681 b 206 532 343 583 276 532 l 42 532 l 42 440 l 160 440 l 179 425 l 431 -1 l 556 3 l 733 -1 l 739 75 l 678 97 l 489 403 l 307 479 b 618 681 463 507 589 571 z "},"₸":{"ha":896,"x_min":0,"x_max":0,"o":"m 21 910 l 875 910 l 875 972 l 21 972 z m 188 -1 l 449 3 l 708 -1 l 715 75 l 576 93 l 576 758 l 722 754 l 793 574 l 875 574 l 875 849 l 21 849 l 21 574 l 103 574 l 174 754 l 319 758 l 319 93 l 181 75 z "},"₮":{"ha":896,"x_min":0,"x_max":0,"o":"m 458 969 l 18 974 l 18 713 l 100 713 l 171 879 l 317 883 l 317 521 l 157 444 l 157 368 l 317 444 l 317 378 l 157 301 l 157 225 l 317 301 l 317 93 l 178 75 l 185 -1 l 446 3 l 706 -1 l 713 75 l 574 93 l 574 426 l 733 503 l 733 579 l 574 503 l 574 569 l 733 646 l 733 722 l 574 646 l 574 883 l 719 879 l 790 713 l 872 713 l 872 974 z "},"₩":{"ha":1478,"x_min":0,"x_max":0,"o":"m 1376 881 l 1471 899 l 1464 974 l 1301 969 l 1171 974 l 1164 899 l 1271 881 l 1178 551 l 1021 551 l 911 881 l 1001 899 l 994 974 l 839 969 l 599 974 l 592 899 l 650 881 l 690 758 l 625 551 l 467 551 l 357 881 l 451 899 l 444 974 l 282 969 l 14 974 l 7 899 l 94 881 l 206 551 l 42 551 l 42 489 l 226 489 l 249 422 l 42 422 l 42 360 l 271 360 l 400 -25 l 551 17 l 658 360 l 824 360 l 950 -25 l 1107 17 l 1214 360 l 1438 360 l 1438 422 l 1233 422 l 1254 489 l 1438 489 l 1438 551 l 1274 551 z m 754 667 l 757 564 l 761 551 l 718 551 z m 488 489 l 606 489 l 585 422 l 510 422 z m 678 422 l 699 489 l 782 489 l 803 422 z m 1142 422 l 1063 422 l 1042 489 l 1160 489 z m 529 246 l 529 360 l 565 360 z m 1090 243 l 1085 357 l 1083 360 l 1124 360 z "},"↑":{"ha":889,"x_min":0,"x_max":0,"o":"m 375 56 l 514 56 l 514 556 l 540 485 l 632 389 l 819 389 l 444 764 l 69 389 l 257 389 l 347 485 l 375 556 z "},"↗":{"ha":689,"x_min":0,"x_max":0,"o":"m 168 110 l 522 464 l 492 394 l 488 263 l 619 129 l 619 660 l 89 660 l 222 528 l 354 531 l 424 563 l 69 208 z "},"→":{"ha":847,"x_min":0,"x_max":0,"o":"m 403 35 l 778 410 l 403 785 l 403 597 l 499 507 l 569 479 l 69 479 l 69 340 l 569 340 l 499 314 l 403 222 z "},"↘":{"ha":689,"x_min":0,"x_max":0,"o":"m 89 110 l 619 110 l 619 640 l 488 507 l 492 375 l 522 306 l 168 660 l 69 561 l 424 207 l 354 239 l 222 242 z "},"↓":{"ha":889,"x_min":0,"x_max":0,"o":"m 444 56 l 819 431 l 632 431 l 540 335 l 514 264 l 514 764 l 375 764 l 375 264 l 347 335 l 257 431 l 69 431 z "},"↙":{"ha":689,"x_min":0,"x_max":0,"o":"m 69 110 l 600 110 l 467 242 l 335 239 l 265 207 l 619 561 l 521 660 l 167 306 l 197 375 l 201 507 l 69 640 z "},"←":{"ha":847,"x_min":0,"x_max":0,"o":"m 444 35 l 444 222 l 349 314 l 278 340 l 778 340 l 778 479 l 278 479 l 349 507 l 444 597 l 444 785 l 69 410 z "},"↖":{"ha":689,"x_min":0,"x_max":0,"o":"m 521 110 l 619 208 l 265 563 l 335 531 l 467 528 l 600 660 l 69 660 l 69 129 l 201 263 l 197 394 l 167 464 z "},"●":{"ha":1100,"x_min":0,"x_max":0,"o":"m 551 -21 b 1058 478 856 24 1058 186 b 549 993 1058 803 821 990 b 42 494 244 949 42 786 b 551 -21 42 169 279 -18 z "},"○":{"ha":1100,"x_min":0,"x_max":0,"o":"m 551 -21 b 1058 478 856 24 1058 186 b 549 993 1058 803 821 990 b 42 494 244 949 42 786 b 551 -21 42 169 279 -18 z m 549 63 b 153 494 388 63 153 197 b 551 910 153 757 339 910 b 947 478 713 910 947 775 b 549 63 947 215 761 63 z "}}}
